<?xml version="1.0" encoding="UTF-8" standalone="no"?>
<!-- Created with Inkscape (http://www.inkscape.org/) -->

<svg
   xmlns:dc="http://purl.org/dc/elements/1.1/"
   xmlns:cc="http://creativecommons.org/ns#"
   xmlns:rdf="http://www.w3.org/1999/02/22-rdf-syntax-ns#"
   xmlns:svg="http://www.w3.org/2000/svg"
   xmlns="http://www.w3.org/2000/svg"
   xmlns:sodipodi="http://sodipodi.sourceforge.net/DTD/sodipodi-0.dtd"
   xmlns:inkscape="http://www.inkscape.org/namespaces/inkscape"
   inkscape:version="0.91 r13725"
   version="1.1"
   id="svg2"
   viewBox="0 0 744.09448819 1052.3622047"
   height="297mm"
   width="210mm"
   sodipodi:docname="intersecting_circles.svg">
  <sodipodi:namedview
     inkscape:window-maximized="1"
     inkscape:window-y="1"
     inkscape:window-x="0"
     inkscape:window-height="751"
     inkscape:window-width="1280"
     showgrid="false"
     inkscape:current-layer="svg2"
     inkscape:document-units="px"
     inkscape:cy="873.75667"
     inkscape:cx="178.99076"
     inkscape:zoom="1.7783262"
     inkscape:pageshadow="2"
     inkscape:pageopacity="0.0"
     borderopacity="1.0"
     bordercolor="#666666"
     pagecolor="#ffffff"
     id="base" />
  <defs
     id="defs4">
    <pattern
       id="Voronoi7785"
       width="141.73229"
       height="141.73228"
       patternTransform="translate(29.883094,31.246405)"
       patternUnits="userSpaceOnUse">
      <path
         d="M 3.335,6.842 23.468,3.529 M 3.335,6.842 16.263,17.297 M 16.263,17.297 40.983,6.852 M 23.468,3.529 40.983,6.852 M 89.233,15.393 99.377,2.705 M 61.582,15.993 72.079,21.932 M 72.079,21.932 89.233,15.393 M 88.142,24.158 89.233,15.393 M 99.377,2.705 100.416,0.000 M 78.797,29.536 88.142,24.158 M 40.983,6.852 48.500,6.005 M 48.500,6.005 48.602,6.683 M 48.602,6.683 61.582,15.993 M 78.797,29.536 83.816,32.190 M 72.079,21.932 73.552,29.587 M 73.552,29.587 78.797,29.536 M 83.816,32.190 88.703,30.791 M 88.142,24.158 88.703,30.791 M 16.263,17.297 17.815,27.957 M 17.815,27.957 45.085,20.566 M 45.085,20.566 48.602,6.683 M 88.703,30.791 90.875,34.193 M 45.085,20.566 45.153,23.342 M 136.059,29.364 139.535,12.396 M 136.048,30.133 136.059,29.364 M 0.000,29.563 14.923,34.618 M 14.923,34.618 17.815,27.957 M 90.875,34.193 104.101,37.896 M 99.377,2.705 104.101,37.896 M 104.101,37.896 104.507,38.419 M 104.507,38.419 109.504,40.573 M 109.504,40.573 119.796,0.000 M 109.504,40.573 110.197,41.032 M 110.197,41.032 139.535,12.396 M 45.153,23.342 67.363,44.030 M 61.582,15.993 67.363,44.030 M 0.000,39.977 5.630,49.728 M 132.393,49.357 136.048,30.133 M 14.923,34.618 18.909,45.046 M 5.630,49.728 14.724,48.095 M 14.724,48.095 18.909,45.046 M 110.197,41.032 114.230,47.494 M 114.230,47.494 136.059,29.364 M 67.363,44.030 69.131,46.056 M 0.000,52.229 5.630,49.728 M 69.131,46.056 70.149,46.367 M 70.149,46.367 73.552,29.587 M 114.230,47.494 114.867,49.081 M 114.867,49.081 132.393,49.357 M 132.393,49.357 136.780,53.203 M 70.149,46.367 70.689,46.863 M 70.689,46.863 83.816,32.190 M 136.780,53.203 141.732,52.901 M 136.048,30.133 141.732,39.977 M 18.909,45.046 35.008,49.902 M 35.008,49.902 45.153,23.342 M 39.099,53.060 69.131,46.056 M 39.099,53.060 45.463,58.780 M 70.689,46.863 75.846,52.946 M 75.846,52.946 90.875,34.193 M 35.008,49.902 36.562,52.455 M 36.562,52.455 39.099,53.060 M 34.353,59.369 36.562,52.455 M 11.218,66.765 14.724,48.095 M 11.218,66.765 28.697,65.474 M 28.697,65.474 34.353,59.369 M 111.607,61.211 114.867,49.081 M 9.589,68.608 11.218,66.765 M 0.000,55.916 8.164,69.448 M 8.164,69.448 9.589,68.608 M 131.787,68.969 136.780,53.203 M 111.607,61.211 128.840,69.957 M 128.840,69.957 131.787,68.969 M 45.463,58.780 72.954,64.853 M 75.846,52.946 79.383,60.119 M 79.383,60.119 104.507,38.419 M 72.954,64.853 79.445,60.499 M 79.383,60.119 79.445,60.499 M 9.589,68.608 24.698,77.501 M 24.698,77.501 28.697,65.474 M 24.698,77.501 24.734,78.783 M 24.734,78.783 26.832,79.362 M 26.832,79.362 42.294,79.907 M 34.353,59.369 42.294,79.907 M 45.463,58.780 58.310,79.364 M 58.310,79.364 72.954,64.853 M 79.445,60.499 95.098,73.931 M 95.098,73.931 111.607,61.211 M 123.523,86.316 128.840,69.957 M 26.832,79.362 40.212,94.772 M 40.212,94.772 51.413,88.868 M 42.294,79.907 51.413,88.868 M 51.413,88.868 54.264,88.928 M 54.264,88.928 58.310,79.364 M 123.523,86.316 141.732,91.189 M 12.480,96.041 24.734,78.783 M 12.480,96.041 26.222,102.519 M 26.222,102.519 28.794,102.881 M 28.794,102.881 40.212,94.772 M 105.735,95.760 123.523,86.316 M 95.098,73.931 97.999,93.032 M 97.999,93.032 105.735,95.760 M 54.264,88.928 64.511,100.455 M 64.511,100.455 88.651,100.332 M 88.651,100.332 97.999,93.032 M 120.759,110.757 141.732,97.569 M 105.735,95.760 117.434,109.665 M 117.434,109.665 120.759,110.757 M 0.000,79.627 8.164,69.448 M 0.000,96.060 12.480,96.041 M 110.648,124.842 117.434,109.665 M 131.787,68.969 141.732,73.386 M 56.669,119.263 64.511,100.455 M 28.794,102.881 40.789,121.676 M 40.789,121.676 56.669,119.263 M 104.220,129.222 110.648,124.842 M 17.275,128.078 26.222,102.519 M 13.788,129.020 17.275,128.078 M 13.785,129.089 13.788,129.020 M 87.826,126.712 88.651,100.332 M 87.826,126.712 104.220,129.222 M 17.275,128.078 34.875,131.109 M 34.875,131.109 40.789,121.676 M 0.000,121.584 13.788,129.020 M 56.669,119.263 71.228,141.732 M 76.982,141.732 87.826,126.712 M 0.000,5.467 3.335,6.842 M 13.785,129.089 21.355,141.732 M 34.875,131.109 36.667,141.732 M 21.355,0.000 23.468,3.529 M 10.926,141.732 13.785,129.089 M 104.220,129.222 107.879,141.732 M 110.648,124.842 126.412,141.732 M 120.759,110.757 141.732,130.266 M 141.732,74.588 141.732,74.588 M 139.535,12.396 141.732,7.408 M 48.500,6.005 50.259,0.000 "
         style="stroke:#000000"
         id="path6058" />
    </pattern>
    <pattern
       patternUnits="userSpaceOnUse"
       patternTransform="translate(193.24854,31.809729)"
       height="141.73229"
       width="141.73229"
       id="Voronoi2274">
      <path
         id="path6109"
         style="stroke:#000000"
         d="M 107.245,0.000 108.774,5.819 M 108.774,5.819 121.453,6.411 M 119.699,10.663 121.453,6.411 M 17.708,8.851 18.023,9.125 M 78.844,0.000 82.930,8.287 M 18.023,9.125 42.437,1.670 M 42.437,1.670 44.569,0.000 M 51.127,0.000 52.713,5.548 M 114.151,21.869 119.699,10.663 M 82.930,8.287 96.242,16.190 M 96.242,16.190 96.425,0.000 M 18.023,9.125 19.459,21.123 M 52.713,5.548 70.697,21.849 M 70.697,21.849 82.930,8.287 M 96.242,16.190 97.059,17.111 M 97.059,17.111 108.774,5.819 M 97.059,17.111 98.095,22.938 M 98.095,22.938 114.151,21.869 M 48.619,28.282 52.713,5.548 M 114.151,21.869 125.771,29.299 M 119.699,10.663 125.771,29.299 M 97.183,25.658 98.095,22.938 M 0.000,14.595 17.708,8.851 M 0.000,19.950 19.459,21.123 M 97.183,25.658 118.369,37.265 M 19.459,21.123 25.442,29.973 M 25.442,29.973 42.437,1.670 M 118.369,37.265 122.707,37.342 M 48.619,28.282 57.807,37.494 M 57.807,37.494 73.934,35.139 M 70.697,21.849 73.934,35.139 M 25.442,29.973 26.235,34.736 M 26.235,34.736 48.619,28.282 M 73.934,35.139 77.174,37.006 M 122.707,37.342 134.772,35.622 M 125.771,29.299 134.772,35.622 M 77.174,37.006 88.947,38.851 M 88.947,38.851 97.183,25.658 M 51.899,49.359 57.807,37.494 M 33.661,48.179 51.899,49.359 M 23.385,41.760 26.235,34.736 M 23.385,41.760 23.397,41.774 M 23.397,41.774 33.661,48.179 M 88.947,38.851 94.543,49.595 M 94.543,49.595 118.369,37.265 M 94.543,49.595 98.266,62.496 M 98.266,62.496 122.707,37.342 M 98.266,62.496 98.984,65.952 M 51.899,49.359 60.748,70.537 M 60.748,70.537 77.174,37.006 M 98.984,65.952 120.361,71.326 M 120.361,71.326 141.732,64.447 M 60.748,70.537 61.091,74.544 M 33.661,48.179 43.248,79.080 M 43.248,79.080 61.091,74.544 M 16.222,83.382 27.064,82.904 M 23.397,41.774 27.064,82.904 M 27.064,82.904 34.449,84.630 M 34.449,84.630 43.248,79.080 M 61.091,74.544 75.445,81.965 M 135.175,100.880 141.732,79.966 M 0.000,48.031 23.385,41.760 M 0.000,74.556 16.222,83.382 M 134.772,35.622 141.732,37.161 M 11.285,99.360 16.222,83.382 M 75.445,81.965 78.443,82.786 M 78.443,82.786 98.984,65.952 M 10.529,100.804 11.285,99.360 M 53.631,105.857 75.445,81.965 M 117.320,100.384 120.361,71.326 M 53.631,105.857 56.472,109.355 M 56.472,109.355 82.619,95.578 M 78.443,82.786 82.619,95.578 M 34.449,84.630 37.972,103.535 M 37.972,103.535 53.631,105.857 M 9.279,110.112 10.529,100.804 M 56.472,109.355 58.522,113.094 M 9.279,110.112 11.202,112.193 M 117.320,100.384 128.448,107.913 M 128.448,107.913 135.175,100.880 M 36.208,108.747 37.972,103.535 M 11.285,99.360 30.555,112.189 M 30.555,112.189 36.208,108.747 M 11.202,112.193 27.719,114.592 M 27.719,114.592 30.555,112.189 M 128.448,107.913 130.226,111.977 M 58.522,113.094 68.810,116.005 M 26.231,119.651 27.719,114.592 M 51.625,121.533 58.522,113.094 M 11.202,112.193 11.302,124.675 M 26.231,119.651 36.560,128.357 M 51.625,121.533 62.375,126.422 M 62.375,126.422 68.810,116.005 M 62.375,126.422 62.427,126.847 M 10.063,125.963 11.302,124.675 M 11.302,124.675 23.608,125.365 M 23.608,125.365 26.231,119.651 M 130.226,111.977 141.732,116.357 M 4.000,127.007 10.063,125.963 M 36.208,108.747 45.300,123.563 M 45.300,123.563 51.625,121.533 M 68.810,116.005 88.139,109.825 M 82.619,95.578 88.139,109.825 M 0.000,112.926 9.279,110.112 M 0.000,124.774 4.000,127.007 M 36.560,128.357 44.820,126.422 M 44.820,126.422 45.300,123.563 M 88.139,109.825 90.841,112.561 M 90.841,112.561 117.320,100.384 M 62.427,126.847 68.445,133.495 M 23.608,125.365 25.609,133.015 M 120.975,128.710 130.226,111.977 M 25.609,133.015 26.859,133.728 M 26.859,133.728 36.560,128.357 M 90.841,112.561 92.272,118.918 M 103.251,126.527 120.975,128.710 M 68.445,133.495 87.877,124.836 M 87.877,124.836 92.272,118.918 M 92.272,118.918 96.638,122.846 M 96.638,122.846 103.251,126.527 M 10.063,125.963 14.675,139.302 M 14.675,139.302 25.609,133.015 M 120.975,128.710 127.344,137.977 M 127.344,137.977 141.732,124.697 M 44.820,126.422 48.520,141.138 M 48.520,141.138 62.427,126.847 M 26.859,133.728 32.551,141.732 M 48.510,141.732 48.520,141.138 M 1.550,141.732 4.000,127.007 M 13.345,141.732 14.675,139.302 M 65.743,141.732 68.445,133.495 M 0.000,100.851 10.529,100.804 M 82.539,141.732 87.877,124.836 M 13.427,0.000 17.708,8.851 M 0.000,114.665 0.000,114.665 M 96.425,141.732 96.638,122.846 M 103.251,126.527 107.245,141.732 M 127.344,137.977 128.484,141.732 M 135.175,100.880 141.732,100.851 M 121.453,6.411 135.026,0.000 " />
    </pattern>
    <pattern
       id="Voronoi3976"
       width="141.73229"
       height="141.73229"
       patternTransform="translate(192.68522,191.23188)"
       patternUnits="userSpaceOnUse">
      <path
         d="M 43.348,1.813 43.541,0.000 M 10.667,2.970 43.348,1.813 M 77.948,12.685 86.893,9.080 M 71.892,11.076 72.773,0.000 M 71.892,11.076 77.948,12.685 M 86.893,9.080 91.309,0.000 M 86.893,9.080 102.072,16.424 M 43.348,1.813 45.255,12.470 M 95.294,22.611 102.072,16.424 M 95.294,22.611 97.991,26.174 M 102.072,16.424 119.931,8.975 M 119.931,8.975 122.870,0.000 M 77.948,12.685 89.818,26.182 M 89.818,26.182 95.294,22.611 M 119.931,8.975 120.673,14.150 M 45.255,12.470 58.172,21.859 M 58.172,21.859 71.892,11.076 M 10.667,2.970 21.744,24.980 M 21.744,24.980 45.255,12.470 M 77.103,35.131 86.779,35.470 M 86.779,35.470 89.818,26.182 M 16.867,32.900 18.595,32.616 M 58.172,21.859 59.824,32.087 M 59.824,32.087 77.103,35.131 M 18.595,32.616 19.082,32.612 M 19.082,32.612 21.744,24.980 M 97.991,26.174 106.532,42.045 M 120.673,14.150 122.485,35.317 M 97.991,26.174 113.067,41.021 M 113.067,41.021 122.485,35.317 M 106.532,42.045 112.286,41.550 M 112.286,41.550 113.067,41.021 M 86.779,35.470 92.709,44.065 M 92.709,44.065 106.532,42.045 M 76.243,52.590 77.103,35.131 M 76.243,52.590 92.145,45.760 M 92.145,45.760 92.709,44.065 M 19.082,32.612 22.898,40.708 M 22.898,40.708 55.611,41.942 M 55.611,41.942 59.824,32.087 M 122.485,35.317 136.480,45.939 M 92.145,45.760 93.068,60.883 M 109.964,63.646 112.286,41.550 M 93.068,60.883 106.734,65.217 M 106.734,65.217 109.964,63.646 M 20.317,58.138 22.898,40.708 M 63.048,62.286 76.243,52.590 M 55.611,41.942 58.713,60.754 M 58.713,60.754 63.048,62.286 M 136.480,45.939 141.732,45.567 M 120.673,14.150 141.732,24.561 M 109.964,63.646 128.339,69.050 M 128.339,69.050 136.480,45.939 M 128.339,69.050 129.077,71.454 M 129.077,71.454 129.348,71.778 M 113.547,81.932 129.077,71.454 M 42.897,69.893 46.883,69.888 M 46.883,69.888 58.713,60.754 M 20.317,58.138 24.187,68.773 M 24.187,68.773 42.897,69.893 M 104.092,80.458 106.734,65.217 M 104.092,80.458 113.547,81.932 M 63.048,62.286 78.970,74.238 M 78.970,74.238 93.068,60.883 M 35.978,92.315 42.897,69.893 M 129.194,90.521 129.348,71.778 M 15.452,82.210 24.187,68.773 M 15.452,82.210 35.978,92.315 M 78.970,74.238 81.875,84.016 M 15.065,82.584 15.452,82.210 M 0.000,36.953 16.867,32.900 M 0.000,55.576 20.317,58.138 M 94.150,88.303 104.092,80.458 M 81.875,84.016 84.195,86.494 M 84.195,86.494 94.150,88.303 M 94.150,88.303 99.690,94.901 M 99.690,94.901 112.878,100.147 M 113.547,81.932 119.996,98.686 M 119.996,98.686 129.194,90.521 M 46.883,69.888 52.742,95.956 M 52.742,95.956 81.875,84.016 M 112.878,100.147 119.789,99.093 M 119.789,99.093 119.996,98.686 M 15.065,82.584 25.572,103.834 M 24.555,105.614 25.572,103.834 M 79.870,103.342 84.195,86.494 M 51.705,98.783 52.742,95.956 M 51.705,98.783 79.870,103.342 M 23.709,107.323 24.555,105.614 M 25.572,103.834 40.344,105.199 M 40.344,105.199 48.533,102.419 M 35.978,92.315 48.533,102.419 M 48.533,102.419 49.728,102.377 M 49.728,102.377 51.705,98.783 M 119.789,99.093 126.007,109.441 M 126.007,109.441 141.732,104.099 M 129.194,90.521 141.732,94.657 M 33.897,117.563 40.344,105.199 M 23.569,116.860 23.709,107.323 M 23.569,116.860 33.897,117.563 M 22.238,118.841 23.569,116.860 M 1.413,112.175 23.709,107.323 M 95.720,115.861 99.690,94.901 M 22.238,118.841 25.245,124.417 M 0.000,103.318 24.555,105.614 M 0.000,111.171 1.413,112.175 M 125.787,118.412 126.007,109.441 M 95.720,115.861 104.538,119.646 M 104.538,119.646 112.878,100.147 M 125.787,118.412 131.514,121.655 M 25.245,124.417 37.106,125.262 M 33.897,117.563 37.106,125.262 M 1.413,112.175 9.768,122.078 M 9.768,122.078 22.238,118.841 M 0.000,87.501 15.065,82.584 M 79.388,118.048 79.870,103.342 M 79.388,118.048 95.720,115.861 M 104.538,119.646 107.190,122.914 M 24.397,132.592 25.245,124.417 M 107.190,122.914 113.352,126.008 M 113.352,126.008 125.787,118.412 M 49.728,102.377 59.403,122.548 M 59.403,122.548 73.149,125.123 M 73.149,125.123 79.388,118.048 M 37.106,125.262 45.831,133.906 M 45.831,133.906 59.403,122.548 M 24.397,132.592 43.963,137.760 M 43.963,137.760 45.831,133.906 M 9.768,122.078 10.172,139.619 M 10.172,139.619 24.397,132.592 M 73.149,125.123 80.638,141.732 M 88.270,141.732 107.190,122.914 M 131.514,121.655 141.732,119.223 M 129.348,71.778 141.732,75.325 M 113.352,126.008 115.754,141.732 M 7.842,0.000 10.667,2.970 M 0.000,19.051 18.595,32.616 M 0.000,24.561 16.867,32.900 M 9.240,141.732 10.172,139.619 M 43.541,141.732 43.963,137.760 M 131.514,121.655 137.486,141.732 "
         style="stroke:#000000"
         id="path6164" />
    </pattern>
    <pattern
       patternUnits="userSpaceOnUse"
       patternTransform="translate(29.883094,191.23188)"
       height="141.73229"
       width="141.73229"
       id="Voronoi5414">
      <path
         id="path6223"
         style="stroke:#000000"
         d="M 119.093,19.974 120.204,0.000 M 0.000,7.311 32.961,13.387 M 32.961,13.387 42.115,4.822 M 42.115,4.822 60.670,17.215 M 119.093,19.974 141.732,6.057 M 118.054,23.374 119.093,19.974 M 30.392,24.586 32.961,13.387 M 130.736,28.674 141.732,17.694 M 85.509,15.589 89.266,0.000 M 85.509,15.589 100.496,24.952 M 100.496,24.952 118.054,23.374 M 118.054,23.374 126.439,30.063 M 126.439,30.063 130.736,28.674 M 60.670,17.215 78.262,20.288 M 78.262,20.288 85.509,15.589 M 100.496,24.952 102.261,34.957 M 30.392,24.586 46.633,37.523 M 46.633,37.523 48.307,37.927 M 48.307,37.927 60.670,17.215 M 97.867,44.837 102.261,34.957 M 130.736,28.674 141.732,34.222 M 75.211,38.864 78.262,20.288 M 48.307,37.927 52.942,46.052 M 125.599,45.401 126.439,30.063 M 125.599,45.401 141.732,41.318 M 0.000,9.421 16.921,40.499 M 16.921,40.499 17.359,40.812 M 17.359,40.812 30.392,24.586 M 75.211,38.864 83.941,50.160 M 83.941,50.160 97.867,44.837 M 52.942,46.052 58.073,51.478 M 58.073,51.478 75.211,38.864 M 24.004,51.109 46.633,37.523 M 17.359,40.812 18.684,48.423 M 18.684,48.423 24.004,51.109 M 24.004,51.109 24.507,51.526 M 24.507,51.526 52.942,46.052 M 57.621,54.313 58.073,51.478 M 97.867,44.837 105.918,59.285 M 102.261,34.957 122.434,55.725 M 122.434,55.725 125.599,45.401 M 83.941,50.160 86.308,62.066 M 86.308,62.066 105.918,59.285 M 7.268,59.768 18.684,48.423 M 24.507,51.526 35.275,63.760 M 35.275,63.760 57.621,54.313 M 7.268,59.768 10.810,71.759 M 82.787,68.527 86.308,62.066 M 122.434,55.725 122.662,61.723 M 105.918,59.285 121.538,63.193 M 121.538,63.193 122.662,61.723 M 82.787,68.527 93.603,79.085 M 93.603,79.085 100.453,79.835 M 4.622,82.391 10.810,71.759 M 100.453,79.835 120.467,71.303 M 120.467,71.303 121.538,63.193 M 57.621,54.313 67.586,74.447 M 67.586,74.447 82.787,68.527 M 120.467,71.303 121.800,75.004 M 89.090,89.970 93.603,79.085 M 65.746,78.309 67.586,74.447 M 65.746,78.309 89.090,89.970 M 35.275,63.760 36.154,80.838 M 64.218,80.566 65.746,78.309 M 36.154,80.838 42.283,83.393 M 10.810,71.759 29.654,83.928 M 29.654,83.928 36.154,80.838 M 42.283,83.393 46.404,84.118 M 46.404,84.118 64.218,80.566 M 121.800,75.004 122.922,90.197 M 100.453,79.835 102.730,99.658 M 121.797,95.379 122.922,90.197 M 10.481,98.336 19.713,97.721 M 19.713,97.721 29.654,83.928 M 89.090,89.970 89.241,100.768 M 4.622,82.391 7.695,98.110 M 7.695,98.110 10.481,98.336 M 121.797,95.379 131.352,103.632 M 102.730,99.658 114.751,100.549 M 114.751,100.549 121.797,95.379 M 89.241,100.768 93.713,103.035 M 93.713,103.035 102.730,99.658 M 38.493,109.281 42.283,83.393 M 64.218,80.566 71.484,102.702 M 71.484,102.702 89.241,100.768 M 0.000,60.307 7.268,59.768 M 0.000,81.000 4.622,82.391 M 19.713,97.721 27.625,109.718 M 27.625,109.718 38.493,109.281 M 93.713,103.035 94.575,112.902 M 0.000,101.686 7.695,98.110 M 27.015,112.058 27.625,109.718 M 122.922,90.197 141.732,90.549 M 121.800,75.004 141.732,81.000 M 94.575,112.902 114.248,117.519 M 114.248,117.519 114.751,100.549 M 0.000,109.705 13.673,121.717 M 10.481,98.336 13.673,121.717 M 38.493,109.281 52.576,114.338 M 46.404,84.118 52.576,114.338 M 13.673,121.717 15.118,123.986 M 15.118,123.986 27.015,112.058 M 114.248,117.519 115.712,122.222 M 52.576,114.338 55.700,117.093 M 91.279,124.582 94.575,112.902 M 35.723,128.595 55.700,117.093 M 115.712,122.222 125.821,125.025 M 125.821,125.025 131.352,103.632 M 109.757,127.468 115.712,122.222 M 109.757,127.468 116.675,135.773 M 27.015,112.058 34.367,128.772 M 34.367,128.772 35.723,128.595 M 122.662,61.723 141.732,60.307 M 62.988,118.855 71.484,102.702 M 55.700,117.093 61.890,119.096 M 61.890,119.096 62.988,118.855 M 91.279,124.582 94.589,128.377 M 62.988,118.855 70.377,124.103 M 70.377,124.103 91.279,124.582 M 13.719,129.739 15.118,123.986 M 13.719,129.739 28.291,135.067 M 28.291,135.067 34.367,128.772 M 94.589,128.377 100.989,133.704 M 100.989,133.704 109.757,127.468 M 70.377,124.103 75.297,141.732 M 80.022,141.732 94.589,128.377 M 35.723,128.595 48.635,141.732 M 52.441,141.732 61.890,119.096 M 116.675,135.773 141.732,141.539 M 125.821,125.025 141.732,137.350 M 28.291,135.067 29.724,141.732 M 100.989,133.704 101.502,141.732 M 116.244,141.732 116.675,135.773 M 42.023,0.000 42.115,4.822 M 0.000,7.866 0.000,7.866 M 0.000,37.025 16.921,40.499 M 0.000,138.057 13.719,129.739 M 131.352,103.632 141.732,106.349 " />
    </pattern>
  </defs>
  <metadata
     id="metadata7">
    <rdf:RDF>
      <cc:Work
         rdf:about="">
        <dc:format>image/svg+xml</dc:format>
        <dc:type
           rdf:resource="http://purl.org/dc/dcmitype/StillImage" />
        <dc:title></dc:title>
      </cc:Work>
    </rdf:RDF>
  </metadata>
  <g
     inkscape:label="Layer 1"
     inkscape:groupmode="layer"
     id="layer1" />
  <g
     inkscape:label="newlayer"
     inkscape:groupmode="layer"
     id="g4430" />
  <path
     d="m 260.12373,24.746907 0,78.112203 7.08662,0 0,-78.112203 -7.08662,0"
     style="fill:none;stroke:#000000;stroke-width:1"
     inkscape:label="part"
     id="path4442"
     inkscape:connector-curvature="0" />
  <path
     d="m 185.71429,258.60517 78.1122,0 0,7.08662 -78.1122,0 0,-7.08662"
     style="fill:none;stroke:#000000;stroke-width:1"
     inkscape:label="part"
     id="path4458"
     inkscape:connector-curvature="0" />
  <g
     id="g4578"
     inkscape:groupmode="layer"
     inkscape:label="newlayer" />
  <path
     id="path4590"
     inkscape:label="part"
     style="fill:none;stroke:#000000;stroke-width:1"
     d="m 260.12373,24.746907 0,78.112203 7.08662,0 0,-78.112203 -7.08662,0"
     inkscape:connector-curvature="0" />
  <path
     id="path4606"
     inkscape:label="part"
     style="fill:none;stroke:#000000;stroke-width:1"
     d="m 185.71429,258.16639 78.1122,0 0,7.08662 -78.1122,0 0,-7.08662"
     inkscape:connector-curvature="0" />
  <path
     id="path4723"
     inkscape:label="part"
     style="fill:none;stroke:#000000;stroke-width:1"
     d="m 97.266592,24.746907 0,78.112203 7.086618,0 0,-78.112203 -7.086618,0"
     inkscape:connector-curvature="0" />
  <path
     id="path4731"
     inkscape:label="part"
     style="fill:none;stroke:#000000;stroke-width:1"
     d="m 22.857143,258.60517 78.112207,0 0,7.08662 -78.112207,0 0,-7.08662"
     inkscape:connector-curvature="0" />
  <path
     d="m 97.266592,24.746907 0,78.112203 7.086618,0 0,-78.112203 -7.086618,0"
     style="fill:none;stroke:#000000;stroke-width:1"
     inkscape:label="part"
     id="path4743"
     inkscape:connector-curvature="0" />
  <path
     d="m 22.857143,258.44807 78.112207,0 0,7.08662 -78.112207,0 0,-7.08662"
     style="fill:none;stroke:#000000;stroke-width:1"
     inkscape:label="part"
     id="path4751"
     inkscape:connector-curvature="0" />
  <path
     style="stroke-opacity:1;fill-opacity:1;stroke:#00f400;stroke-dasharray:none;stroke-miterlimit:4;stroke-width:2.21937895;fill:none"
     d="M 81.296875 120.11523 L 72.177734 111.1543 L 56.714844 110.60938 L 70.095703 126.01758 L 81.296875 120.11523 z "
     id="path6466" />
  <path
     style="stroke-opacity:1;fill-opacity:1;stroke:#00f400;stroke-dasharray:none;stroke-miterlimit:4;stroke-width:2.21937895;fill:none"
     d="M 102.83789 96.099609 L 75.345703 90.027344 L 88.193359 110.61133 L 102.83789 96.099609 z "
     id="path6464" />
  <path
     style="stroke-opacity:1;fill-opacity:1;stroke:#00f400;stroke-dasharray:none;stroke-miterlimit:4;stroke-width:2.21937895;fill:none"
     d="M 100.03125 77.613281 L 100.57227 78.109375 L 113.69922 63.435547 L 108.67969 60.783203 L 103.43555 60.833984 L 100.03125 77.613281 z "
     id="path6462" />
  <path
     style="stroke-opacity:1;fill-opacity:1;stroke:#00f400;stroke-dasharray:none;stroke-miterlimit:4;stroke-width:2.21937895;fill:none"
     d="M 68.982422 84.306641 L 75.345703 90.027344 L 102.83789 96.099609 L 109.32812 91.746094 L 109.26562 91.365234 L 105.72852 84.193359 L 100.57227 78.109375 L 100.03125 77.613281 L 99.013672 77.302734 L 68.982422 84.306641 z "
     id="path6460" />
  <path
     style="stroke-opacity:1;fill-opacity:1;stroke:#00f400;stroke-dasharray:none;stroke-miterlimit:4;stroke-width:2.21937895;fill:none"
     d="M 64.236328 90.615234 L 72.177734 111.1543 L 81.296875 120.11523 L 84.146484 120.17383 L 88.193359 110.61133 L 75.345703 90.027344 L 68.982422 84.306641 L 66.445312 83.701172 L 64.236328 90.615234 z "
     id="path6458" />
  <path
     style="stroke-opacity:1;fill-opacity:1;stroke:#00f400;stroke-dasharray:none;stroke-miterlimit:4;stroke-width:2.21937895;fill:none"
     d="M 54.582031 108.74805 L 58.580078 96.720703 L 41.101562 98.011719 L 39.472656 99.853516 L 54.582031 108.74805 z "
     id="path6456" />
  <path
     style="stroke-opacity:1;fill-opacity:1;stroke:#00f400;stroke-dasharray:none;stroke-miterlimit:4;stroke-width:2.21937895;fill:none"
     d="M 54.617188 110.0293 L 56.714844 110.60938 L 72.177734 111.1543 L 64.236328 90.615234 L 58.580078 96.720703 L 54.582031 108.74805 L 54.617188 110.0293 z "
     id="path6454" />
  <path
     style="stroke-opacity:1;fill-opacity:1;stroke:#00f400;stroke-dasharray:none;stroke-miterlimit:4;stroke-width:2.21937895;fill:none"
     d="M 58.677734 134.12695 L 70.095703 126.01758 L 56.714844 110.60938 L 54.617188 110.0293 L 42.363281 127.28711 L 56.105469 133.76562 L 58.677734 134.12695 z "
     id="path6452" />
  <path
     style="stroke-opacity:1;fill-opacity:1;stroke:#00f400;stroke-dasharray:none;stroke-miterlimit:4;stroke-width:2.21937895;fill:none"
     d="M 94.394531 131.70117 L 84.146484 120.17383 L 81.296875 120.11523 L 70.095703 126.01758 L 58.677734 134.12695 L 70.671875 152.92188 L 86.552734 150.50977 L 94.394531 131.70117 z "
     id="path6450" />
  <path
     style="stroke-opacity:1;fill-opacity:1;stroke:#00f400;stroke-dasharray:none;stroke-miterlimit:4;stroke-width:2.21937895;fill:none"
     d="M 118.5332 131.57812 L 127.88281 124.2793 L 124.98047 105.17773 L 109.32812 91.746094 L 102.83789 96.099609 L 88.193359 110.61133 L 84.146484 120.17383 L 94.394531 131.70117 L 118.5332 131.57812 z "
     id="path6448" />
  <path
     style="stroke-opacity:1;fill-opacity:1;stroke:#00f400;stroke-dasharray:none;stroke-miterlimit:4;stroke-width:2.21937895;fill:none"
     d="M 135.61719 127.00586 L 127.88281 124.2793 L 118.5332 131.57812 L 117.70898 157.95898 L 134.10352 160.46875 L 140.53125 156.08789 L 147.31641 140.91211 L 135.61719 127.00586 z "
     id="path6446" />
  <path
     style="stroke-opacity:1;fill-opacity:1;stroke:#00f400;stroke-dasharray:none;stroke-miterlimit:4;stroke-width:2.21937895;fill:none"
     d="M 158.72266 101.20312 L 141.49023 92.457031 L 124.98047 105.17773 L 127.88281 124.2793 L 135.61719 127.00586 L 153.40625 117.5625 L 158.72266 101.20312 z "
     id="path6444" />
  <path
     style="fill:none;fill-opacity:1;stroke:#00f400;stroke-width:2.21937895;stroke-miterlimit:4;stroke-dasharray:none;stroke-opacity:1"
     d="m 144.18767,79.765798 -3.25977,12.128906 17.23243,8.746086 2.94726,-0.988277 4.99414,-15.765621 -4.38867,-3.845703 -17.52539,-0.275391 z"
     id="path6442"
     inkscape:connector-curvature="0" />
  <path
     style="stroke-opacity:1;fill-opacity:1;stroke:#00f400;stroke-dasharray:none;stroke-miterlimit:4;stroke-width:2.21937895;fill:none"
     d="M 134.39062 69.666016 L 109.26562 91.365234 L 109.32812 91.746094 L 124.98047 105.17773 L 141.49023 92.457031 L 144.75 80.328125 L 144.11328 78.740234 L 140.08008 72.279297 L 139.38672 71.820312 L 134.39062 69.666016 z "
     id="path6440" />
  <path
     style="stroke-opacity:1;fill-opacity:1;stroke:#00f400;stroke-dasharray:none;stroke-miterlimit:4;stroke-width:2.21937895;fill:none"
     d="M 120.75781 65.439453 L 105.72852 84.193359 L 109.26562 91.365234 L 134.39062 69.666016 L 133.98438 69.142578 L 120.75781 65.439453 z "
     id="path6438" />
  <path
     style="stroke-opacity:1;fill-opacity:1;stroke:#00f400;stroke-dasharray:none;stroke-miterlimit:4;stroke-width:2.21937895;fill:none"
     d="M 118.58594 62.037109 L 113.69922 63.435547 L 100.57227 78.109375 L 105.72852 84.193359 L 120.75781 65.439453 L 118.58594 62.037109 z "
     id="path6436" />
  <path
     style="stroke-opacity:1;fill-opacity:1;stroke:#00f400;stroke-dasharray:none;stroke-miterlimit:4;stroke-width:2.21937895;fill:none"
     d="M 118.02539 55.404297 L 108.67969 60.783203 L 113.69922 63.435547 L 118.58594 62.037109 L 118.02539 55.404297 z "
     id="path6434" />
  <path
     style="stroke-opacity:1;fill-opacity:1;stroke:#00f400;stroke-dasharray:none;stroke-miterlimit:4;stroke-width:2.21937895;fill:none"
     d="M 101.96289 53.177734 L 103.43555 60.833984 L 108.67969 60.783203 L 118.02539 55.404297 L 119.11523 46.638672 L 101.96289 53.177734 z "
     id="path6432" />
  <path
     style="stroke-opacity:1;fill-opacity:1;stroke:#00f400;stroke-dasharray:none;stroke-miterlimit:4;stroke-width:2.21937895;fill:none"
     d="M 97.246094 75.277344 L 99.013672 77.302734 L 100.03125 77.613281 L 103.43555 60.833984 L 101.96289 53.177734 L 91.464844 47.240234 L 97.246094 75.277344 z "
     id="path6430" />
  <path
     style="stroke-opacity:1;fill-opacity:1;stroke:#00f400;stroke-dasharray:none;stroke-miterlimit:4;stroke-width:2.21937895;fill:none"
     d="M 64.890625 81.148438 L 66.445312 83.701172 L 68.982422 84.306641 L 99.013672 77.302734 L 97.246094 75.277344 L 75.035156 54.587891 L 64.890625 81.148438 z "
     id="path6428" />
  <path
     style="stroke-opacity:1;fill-opacity:1;stroke:#00f400;stroke-dasharray:none;stroke-miterlimit:4;stroke-width:2.21937895;fill:none"
     d="M 48.792969 76.292969 L 44.607422 79.341797 L 41.101562 98.011719 L 58.580078 96.720703 L 64.236328 90.615234 L 66.445312 83.701172 L 64.890625 81.148438 L 48.792969 76.292969 z "
     id="path6426" />
  <path
     style="stroke-opacity:1;fill-opacity:1;stroke:#00f400;stroke-dasharray:none;stroke-miterlimit:4;stroke-width:2.21937895;fill:none"
     d="M 34.769531 79.685547 L 35.513672 80.974609 L 44.607422 79.341797 L 48.792969 76.292969 L 44.806641 65.865234 L 41.861328 64.867188 A 69.756454 69.756454 0 0 0 34.769531 79.685547 z "
     id="path6424" />
  <path
     style="stroke-opacity:1;fill-opacity:1;stroke:#00f400;stroke-dasharray:none;stroke-miterlimit:4;stroke-width:2.21937895;fill:none"
     d="M 34.078125 81.611328 L 35.513672 80.974609 L 34.769531 79.685547 A 69.756454 69.756454 0 0 0 34.078125 81.611328 z "
     id="path6422" />
  <path
     style="stroke-opacity:1;fill-opacity:1;stroke:#00f400;stroke-dasharray:none;stroke-miterlimit:4;stroke-width:2.21937895;fill:none"
     d="M 32.013672 90.695312 L 38.046875 100.69531 L 39.472656 99.853516 L 41.101562 98.011719 L 44.607422 79.341797 L 35.513672 80.974609 L 34.078125 81.611328 A 69.756454 69.756454 0 0 0 32.013672 90.695312 z "
     id="path6420" />
  <path
     style="stroke-opacity:1;fill-opacity:1;stroke:#00f400;stroke-dasharray:none;stroke-miterlimit:4;stroke-width:2.21937895;fill:none"
     d="M 31.402344 108.97852 L 38.046875 100.69531 L 32.013672 90.695312 A 69.756454 69.756454 0 0 0 30.992188 102.11328 A 69.756454 69.756454 0 0 0 31.402344 108.97852 z "
     id="path6418" />
  <path
     style="stroke-opacity:1;fill-opacity:1;stroke:#00f400;stroke-dasharray:none;stroke-miterlimit:4;stroke-width:2.21937895;fill:none"
     d="M 35.703125 127.29688 L 42.363281 127.28711 L 54.617188 110.0293 L 54.582031 108.74805 L 39.472656 99.853516 L 38.046875 100.69531 L 31.402344 108.97852 A 69.756454 69.756454 0 0 0 35.703125 127.29688 z "
     id="path6416" />
  <path
     style="stroke-opacity:1;fill-opacity:1;stroke:#00f400;stroke-dasharray:none;stroke-miterlimit:4;stroke-width:2.21937895;fill:none"
     d="M 50.326172 150.27734 L 56.105469 133.76562 L 42.363281 127.28711 L 35.703125 127.29688 A 69.756454 69.756454 0 0 0 50.326172 150.27734 z "
     id="path6414" />
  <path
     style="stroke-opacity:1;fill-opacity:1;stroke:#00f400;stroke-dasharray:none;stroke-miterlimit:4;stroke-width:2.21937895;fill:none"
     d="M 65.023438 161.93164 L 70.671875 152.92188 L 58.677734 134.12695 L 56.105469 133.76562 L 50.326172 150.27734 A 69.756454 69.756454 0 0 0 65.023438 161.93164 z "
     id="path6412" />
  <path
     style="stroke-opacity:1;fill-opacity:1;stroke:#00f400;stroke-dasharray:none;stroke-miterlimit:4;stroke-width:2.21937895;fill:none"
     d="M 100.38086 171.85156 L 86.552734 150.50977 L 70.671875 152.92188 L 65.023438 161.93164 A 69.756454 69.756454 0 0 0 100.38086 171.85156 z "
     id="path6410" />
  <path
     style="stroke-opacity:1;fill-opacity:1;stroke:#00f400;stroke-dasharray:none;stroke-miterlimit:4;stroke-width:2.21937895;fill:none"
     d="M 107.99609 171.41211 L 117.70898 157.95898 L 118.5332 131.57812 L 94.394531 131.70117 L 86.552734 150.50977 L 100.38086 171.85156 A 69.756454 69.756454 0 0 0 100.75 171.86914 A 69.756454 69.756454 0 0 0 107.99609 171.41211 z "
     id="path6408" />
  <path
     style="stroke-opacity:1;fill-opacity:1;stroke:#00f400;stroke-dasharray:none;stroke-miterlimit:4;stroke-width:2.21937895;fill:none"
     d="M 134.8125 162.89062 L 134.10352 160.46875 L 117.70898 157.95898 L 107.99609 171.41211 A 69.756454 69.756454 0 0 0 134.8125 162.89062 z "
     id="path6406" />
  <path
     style="stroke-opacity:1;fill-opacity:1;stroke:#00f400;stroke-dasharray:none;stroke-miterlimit:4;stroke-width:2.21937895;fill:none"
     d="M 142.33789 158.02344 L 140.53125 156.08789 L 134.10352 160.46875 L 134.8125 162.89062 A 69.756454 69.756454 0 0 0 142.33789 158.02344 z "
     id="path6404" />
  <path
     style="stroke-opacity:1;fill-opacity:1;stroke:#00f400;stroke-dasharray:none;stroke-miterlimit:4;stroke-width:2.21937895;fill:none"
     d="M 154.91602 145.97852 L 150.64258 142.00391 L 147.31641 140.91211 L 140.53125 156.08789 L 142.33789 158.02344 A 69.756454 69.756454 0 0 0 154.91602 145.97852 z "
     id="path6402" />
  <path
     style="stroke-opacity:1;fill-opacity:1;stroke:#00f400;stroke-dasharray:none;stroke-miterlimit:4;stroke-width:2.21937895;fill:none"
     d="M 162.43359 134.58789 L 150.64258 142.00391 L 154.91602 145.97852 A 69.756454 69.756454 0 0 0 162.43359 134.58789 z "
     id="path6400" />
  <path
     style="stroke-opacity:1;fill-opacity:1;stroke:#00f400;stroke-dasharray:none;stroke-miterlimit:4;stroke-width:2.21937895;fill:none"
     d="M 167.73047 121.39648 L 153.40625 117.5625 L 135.61719 127.00586 L 147.31641 140.91211 L 150.64258 142.00391 L 162.43359 134.58789 A 69.756454 69.756454 0 0 0 167.73047 121.39648 z "
     id="path6398" />
  <path
     style="stroke-opacity:1;fill-opacity:1;stroke:#00f400;stroke-dasharray:none;stroke-miterlimit:4;stroke-width:2.21937895;fill:none"
     d="M 170.40625 104.0957 L 161.66992 100.21484 L 158.72266 101.20312 L 153.40625 117.5625 L 167.73047 121.39648 A 69.756454 69.756454 0 0 0 170.40625 104.0957 z "
     id="path6396" />
  <path
     style="stroke-opacity:1;fill-opacity:1;stroke:#00f400;stroke-dasharray:none;stroke-miterlimit:4;stroke-width:2.21937895;fill:none"
     d="M 168.16602 84.357422 L 166.66406 84.449219 L 161.66992 100.21484 L 170.40625 104.0957 A 69.756454 69.756454 0 0 0 170.50586 102.11328 A 69.756454 69.756454 0 0 0 168.16602 84.357422 z "
     id="path6394" />
  <path
     style="stroke-opacity:1;fill-opacity:1;stroke:#00f400;stroke-dasharray:none;stroke-miterlimit:4;stroke-width:2.21937895;fill:none"
     d="M 163.81836 72.488281 L 162.27539 80.603516 L 166.66406 84.449219 L 168.16602 84.357422 A 69.756454 69.756454 0 0 0 163.81836 72.488281 z "
     id="path6392" />
  <path
     style="stroke-opacity:1;fill-opacity:1;stroke:#00f400;stroke-dasharray:none;stroke-miterlimit:4;stroke-width:2.21937895;fill:none"
     d="M 160.0625 65.494141 L 144.11328 78.740234 L 144.75 80.328125 L 162.27539 80.603516 L 163.81836 72.488281 A 69.756454 69.756454 0 0 0 160.0625 65.494141 z "
     id="path6390" />
  <path
     style="stroke-opacity:1;fill-opacity:1;stroke:#00f400;stroke-dasharray:none;stroke-miterlimit:4;stroke-width:2.21937895;fill:none"
     d="M 154.7207 57.988281 L 140.08008 72.279297 L 144.11328 78.740234 L 160.0625 65.494141 A 69.756454 69.756454 0 0 0 154.7207 57.988281 z "
     id="path6388" />
  <path
     style="stroke-opacity:1;fill-opacity:1;stroke:#00f400;stroke-dasharray:none;stroke-miterlimit:4;stroke-width:2.21937895;fill:none"
     d="M 145.31055 48.472656 L 139.38672 71.820312 L 140.08008 72.279297 L 154.7207 57.988281 A 69.756454 69.756454 0 0 0 145.31055 48.472656 z "
     id="path6386" />
  <path
     style="stroke-opacity:1;fill-opacity:1;stroke:#00f400;stroke-dasharray:none;stroke-miterlimit:4;stroke-width:2.21937895;fill:none"
     d="M 129.91406 38.830078 L 133.98438 69.142578 L 134.39062 69.666016 L 139.38672 71.820312 L 145.31055 48.472656 A 69.756454 69.756454 0 0 0 129.91406 38.830078 z "
     id="path6384" />
  <path
     style="stroke-opacity:1;fill-opacity:1;stroke:#00f400;stroke-dasharray:none;stroke-miterlimit:4;stroke-width:2.21937895;fill:none"
     d="M 126.53516 37.359375 L 119.11523 46.638672 L 118.02539 55.404297 L 118.58594 62.037109 L 120.75781 65.439453 L 133.98438 69.142578 L 129.91406 38.830078 A 69.756454 69.756454 0 0 0 126.53516 37.359375 z "
     id="path6382" />
  <path
     style="stroke-opacity:1;fill-opacity:1;stroke:#00f400;stroke-dasharray:none;stroke-miterlimit:4;stroke-width:2.21937895;fill:none"
     d="M 78.382812 37.251953 L 78.746094 36.009766 A 69.756454 69.756454 0 0 0 74.035156 37.740234 L 78.382812 37.251953 z "
     id="path6380" />
  <path
     style="stroke-opacity:1;fill-opacity:1;stroke:#00f400;stroke-dasharray:none;stroke-miterlimit:4;stroke-width:2.21937895;fill:none"
     d="M 78.484375 37.929688 L 91.464844 47.240234 L 101.96289 53.177734 L 119.11523 46.638672 L 126.53516 37.359375 A 69.756454 69.756454 0 0 0 100.75 32.355469 A 69.756454 69.756454 0 0 0 78.746094 36.009766 L 78.382812 37.251953 L 78.484375 37.929688 z "
     id="path6378" />
  <path
     style="stroke-opacity:1;fill-opacity:1;stroke:#00f400;stroke-dasharray:none;stroke-miterlimit:4;stroke-width:2.21937895;fill:none"
     d="M 74.96875 51.8125 L 75.035156 54.587891 L 97.246094 75.277344 L 91.464844 47.240234 L 78.484375 37.929688 L 74.96875 51.8125 z "
     id="path6376" />
  <path
     style="stroke-opacity:1;fill-opacity:1;stroke:#00f400;stroke-dasharray:none;stroke-miterlimit:4;stroke-width:2.21937895;fill:none"
     d="M 47.697266 59.203125 L 44.806641 65.865234 L 48.792969 76.292969 L 64.890625 81.148438 L 75.035156 54.587891 L 74.96875 51.8125 L 47.697266 59.203125 z "
     id="path6374" />
  <path
     style="stroke-opacity:1;fill-opacity:1;stroke:#00f400;stroke-dasharray:none;stroke-miterlimit:4;stroke-width:2.21937895;fill:none"
     d="M 47.400391 57.167969 A 69.756454 69.756454 0 0 0 41.861328 64.867188 L 44.806641 65.865234 L 47.697266 59.203125 L 47.400391 57.167969 z "
     id="path6372" />
  <path
     style="stroke-opacity:1;fill-opacity:1;stroke:#00f400;stroke-dasharray:none;stroke-miterlimit:4;stroke-width:2.21937895;fill:none"
     d="M 47.400391 57.167969 L 47.697266 59.203125 L 74.96875 51.8125 L 78.484375 37.929688 L 78.382812 37.251953 L 74.035156 37.740234 A 69.756454 69.756454 0 0 0 47.400391 57.167969 z "
     id="path4761" />
  <path
     style="stroke-opacity:1;fill-opacity:1;stroke:#00f400;stroke-dasharray:none;stroke-miterlimit:4;stroke-width:2.21937895;fill:none"
     d="M 275.86719 127.38867 L 249.7207 141.16406 L 251.77148 144.9043 L 262.05859 147.81445 L 281.38672 141.63477 L 275.86719 127.38867 z "
     id="path6363" />
  <path
     style="stroke-opacity:1;fill-opacity:1;stroke:#00f400;stroke-dasharray:none;stroke-miterlimit:4;stroke-width:2.21937895;fill:none"
     d="M 268.69336 113.77539 L 246.87891 137.66602 L 249.7207 141.16406 L 275.86719 127.38867 L 271.69141 114.5957 L 268.69336 113.77539 z "
     id="path6361" />
  <path
     style="stroke-opacity:1;fill-opacity:1;stroke:#00f400;stroke-dasharray:none;stroke-miterlimit:4;stroke-width:2.21937895;fill:none"
     d="M 254.33984 106.35352 L 236.49609 110.89062 L 227.69727 116.43945 L 231.2207 135.3457 L 246.87891 137.66602 L 268.69336 113.77539 L 254.33984 106.35352 z "
     id="path6359" />
  <path
     style="stroke-opacity:1;fill-opacity:1;stroke:#00f400;stroke-dasharray:none;stroke-miterlimit:4;stroke-width:2.21937895;fill:none"
     d="M 245.14844 81.167969 L 253.99609 102.34766 L 270.42188 68.816406 L 267.18164 66.949219 L 251.05469 69.304688 L 245.14844 81.167969 z "
     id="path6357" />
  <path
     style="stroke-opacity:1;fill-opacity:1;stroke:#00f400;stroke-dasharray:none;stroke-miterlimit:4;stroke-width:2.21937895;fill:none"
     d="M 226.91016 79.988281 L 236.49609 110.89062 L 254.33984 106.35352 L 253.99609 102.34766 L 245.14844 81.167969 L 226.91016 79.988281 z "
     id="path6355" />
  <path
     style="stroke-opacity:1;fill-opacity:1;stroke:#00f400;stroke-dasharray:none;stroke-miterlimit:4;stroke-width:2.21937895;fill:none"
     d="M 220.3125 114.71289 L 227.69727 116.43945 L 236.49609 110.89062 L 226.91016 79.988281 L 216.64648 73.583984 L 220.3125 114.71289 z "
     id="path6353" />
  <path
     style="stroke-opacity:1;fill-opacity:1;stroke:#00f400;stroke-dasharray:none;stroke-miterlimit:4;stroke-width:2.21937895;fill:none"
     d="M 223.80273 143.99805 L 229.45703 140.55664 L 231.2207 135.3457 L 227.69727 116.43945 L 220.3125 114.71289 L 209.4707 115.19141 L 204.5332 131.16992 L 223.80273 143.99805 z "
     id="path6351" />
  <path
     style="stroke-opacity:1;fill-opacity:1;stroke:#00f400;stroke-dasharray:none;stroke-miterlimit:4;stroke-width:2.21937895;fill:none"
     d="M 238.54883 155.37305 L 229.45703 140.55664 L 223.80273 143.99805 L 220.9668 146.40234 L 219.48047 151.46094 L 229.80859 160.16602 L 238.06836 158.23242 L 238.54883 155.37305 z "
     id="path6349" />
  <path
     style="stroke-opacity:1;fill-opacity:1;stroke:#00f400;stroke-dasharray:none;stroke-miterlimit:4;stroke-width:2.21937895;fill:none"
     d="M 244.87305 153.3418 L 251.77148 144.9043 L 249.7207 141.16406 L 246.87891 137.66602 L 231.2207 135.3457 L 229.45703 140.55664 L 238.54883 155.37305 L 244.87305 153.3418 z "
     id="path6347" />
  <path
     style="stroke-opacity:1;fill-opacity:1;stroke:#00f400;stroke-dasharray:none;stroke-miterlimit:4;stroke-width:2.21937895;fill:none"
     d="M 255.62305 158.23242 L 262.05859 147.81445 L 251.77148 144.9043 L 244.87305 153.3418 L 255.62305 158.23242 z "
     id="path6345" />
  <path
     style="stroke-opacity:1;fill-opacity:1;stroke:#00f400;stroke-dasharray:none;stroke-miterlimit:4;stroke-width:2.21937895;fill:none"
     d="M 284.08984 144.37109 L 281.38672 141.63477 L 262.05859 147.81445 L 255.62305 158.23242 L 255.67578 158.65625 L 261.69336 165.30469 L 281.125 156.64648 L 285.52148 150.72852 L 284.08984 144.37109 z "
     id="path6343" />
  <path
     style="stroke-opacity:1;fill-opacity:1;stroke:#00f400;stroke-dasharray:none;stroke-miterlimit:4;stroke-width:2.21937895;fill:none"
     d="M 292.23242 97.761719 L 271.69141 114.5957 L 275.86719 127.38867 L 281.38672 141.63477 L 284.08984 144.37109 L 310.56836 132.19336 L 313.60938 103.13477 L 292.23242 97.761719 z "
     id="path6341" />
  <path
     style="stroke-opacity:1;fill-opacity:1;stroke:#00f400;stroke-dasharray:none;stroke-miterlimit:4;stroke-width:2.21937895;fill:none"
     d="M 291.51367 94.306641 L 287.79102 81.404297 L 282.19531 70.660156 L 270.42188 68.816406 L 253.99609 102.34766 L 254.33984 106.35352 L 268.69336 113.77539 L 271.69141 114.5957 L 292.23242 97.761719 L 291.51367 94.306641 z "
     id="path6339" />
  <path
     style="stroke-opacity:1;fill-opacity:1;stroke:#00f400;stroke-dasharray:none;stroke-miterlimit:4;stroke-width:2.21937895;fill:none"
     d="M 311.61719 69.074219 L 287.79102 81.404297 L 291.51367 94.306641 L 315.95508 69.152344 L 311.61719 69.074219 z "
     id="path6337" />
  <path
     style="stroke-opacity:1;fill-opacity:1;stroke:#00f400;stroke-dasharray:none;stroke-miterlimit:4;stroke-width:2.21937895;fill:none"
     d="M 290.43164 57.466797 L 282.19531 70.660156 L 287.79102 81.404297 L 311.61719 69.074219 L 290.43164 57.466797 z "
     id="path6335" />
  <path
     style="stroke-opacity:1;fill-opacity:1;stroke:#00f400;stroke-dasharray:none;stroke-miterlimit:4;stroke-width:2.21937895;fill:none"
     d="M 263.94531 53.658203 L 267.18164 66.949219 L 270.42188 68.816406 L 282.19531 70.660156 L 290.43164 57.466797 L 291.34375 54.748047 L 290.30664 48.919922 L 289.49023 48 L 276.17773 40.097656 L 263.94531 53.658203 z "
     id="path6333" />
  <path
     style="stroke-opacity:1;fill-opacity:1;stroke:#00f400;stroke-dasharray:none;stroke-miterlimit:4;stroke-width:2.21937895;fill:none"
     d="M 241.86719 60.091797 L 251.05469 69.304688 L 267.18164 66.949219 L 263.94531 53.658203 L 245.96094 37.357422 L 241.86719 60.091797 z "
     id="path6331" />
  <path
     style="stroke-opacity:1;fill-opacity:1;stroke:#00f400;stroke-dasharray:none;stroke-miterlimit:4;stroke-width:2.21937895;fill:none"
     d="M 216.63281 73.570312 L 216.64648 73.583984 L 226.91016 79.988281 L 245.14844 81.167969 L 251.05469 69.304688 L 241.86719 60.091797 L 219.48438 66.544922 L 216.63281 73.570312 z "
     id="path6329" />
  <path
     style="stroke-opacity:1;fill-opacity:1;stroke:#00f400;stroke-dasharray:none;stroke-miterlimit:4;stroke-width:2.21937895;fill:none"
     d="M 194.51367 107.05273 L 209.4707 115.19141 L 220.3125 114.71289 L 216.64648 73.583984 L 216.63281 73.570312 L 198.83203 78.34375 A 69.756454 69.756454 0 0 0 194.35742 102.67578 A 69.756454 69.756454 0 0 0 194.51367 107.05273 z "
     id="path6327" />
  <path
     style="stroke-opacity:1;fill-opacity:1;stroke:#00f400;stroke-dasharray:none;stroke-miterlimit:4;stroke-width:2.21937895;fill:none"
     d="M 201.18945 132.625 L 203.77734 132.61328 L 204.5332 131.16992 L 209.4707 115.19141 L 194.51367 107.05273 A 69.756454 69.756454 0 0 0 201.18945 132.625 z "
     id="path6325" />
  <path
     style="stroke-opacity:1;fill-opacity:1;stroke:#00f400;stroke-dasharray:none;stroke-miterlimit:4;stroke-width:2.21937895;fill:none"
     d="M 203.24414 136.57812 L 203.77734 132.61328 L 201.18945 132.625 A 69.756454 69.756454 0 0 0 203.24414 136.57812 z "
     id="path6323" />
  <path
     style="stroke-opacity:1;fill-opacity:1;stroke:#00f400;stroke-dasharray:none;stroke-miterlimit:4;stroke-width:2.21937895;fill:none"
     d="M 208.43164 144.58008 L 220.9668 146.40234 L 223.80273 143.99805 L 204.5332 131.16992 L 203.77734 132.61328 L 203.24414 136.57812 A 69.756454 69.756454 0 0 0 208.43164 144.58008 z "
     id="path6321" />
  <path
     style="stroke-opacity:1;fill-opacity:1;stroke:#00f400;stroke-dasharray:none;stroke-miterlimit:4;stroke-width:2.21937895;fill:none"
     d="M 217.91992 154.85938 L 219.48047 151.46094 L 220.9668 146.40234 L 208.43164 144.58008 A 69.756454 69.756454 0 0 0 217.91992 154.85938 z "
     id="path6319" />
  <path
     style="stroke-opacity:1;fill-opacity:1;stroke:#00f400;stroke-dasharray:none;stroke-miterlimit:4;stroke-width:2.21937895;fill:none"
     d="M 227.06836 161.68359 L 229.80859 160.16602 L 219.48047 151.46094 L 217.91992 154.85938 A 69.756454 69.756454 0 0 0 227.06836 161.68359 z "
     id="path6317" />
  <path
     style="stroke-opacity:1;fill-opacity:1;stroke:#00f400;stroke-dasharray:none;stroke-miterlimit:4;stroke-width:2.21937895;fill:none"
     d="M 240.58789 168.25391 L 238.06836 158.23242 L 229.80859 160.16602 L 227.06836 161.68359 A 69.756454 69.756454 0 0 0 240.58789 168.25391 z "
     id="path6315" />
  <path
     style="stroke-opacity:1;fill-opacity:1;stroke:#00f400;stroke-dasharray:none;stroke-miterlimit:4;stroke-width:2.21937895;fill:none"
     d="M 244.94336 169.68555 L 255.67578 158.65625 L 255.62305 158.23242 L 244.87305 153.3418 L 238.54883 155.37305 L 238.06836 158.23242 L 240.58789 168.25391 A 69.756454 69.756454 0 0 0 244.94336 169.68555 z "
     id="path6313" />
  <path
     style="stroke-opacity:1;fill-opacity:1;stroke:#00f400;stroke-dasharray:none;stroke-miterlimit:4;stroke-width:2.21937895;fill:none"
     d="M 259.43359 172.19727 L 261.69336 165.30469 L 255.67578 158.65625 L 244.94336 169.68555 A 69.756454 69.756454 0 0 0 259.43359 172.19727 z "
     id="path6311" />
  <path
     style="stroke-opacity:1;fill-opacity:1;stroke:#00f400;stroke-dasharray:none;stroke-miterlimit:4;stroke-width:2.21937895;fill:none"
     d="M 276.49414 171.30078 L 281.125 156.64648 L 261.69336 165.30469 L 259.43359 172.19727 A 69.756454 69.756454 0 0 0 264.11523 172.43164 A 69.756454 69.756454 0 0 0 276.49414 171.30078 z "
     id="path6309" />
  <path
     style="stroke-opacity:1;fill-opacity:1;stroke:#00f400;stroke-dasharray:none;stroke-miterlimit:4;stroke-width:2.21937895;fill:none"
     d="M 289.74219 167.53516 L 289.88672 154.65625 L 285.52148 150.72852 L 281.125 156.64648 L 276.49414 171.30078 A 69.756454 69.756454 0 0 0 289.74219 167.53516 z "
     id="path6307" />
  <path
     style="stroke-opacity:1;fill-opacity:1;stroke:#00f400;stroke-dasharray:none;stroke-miterlimit:4;stroke-width:2.21937895;fill:none"
     d="M 297.88867 163.62109 L 296.5 158.33594 L 289.88672 154.65625 L 289.74219 167.53516 A 69.756454 69.756454 0 0 0 297.88867 163.62109 z "
     id="path6305" />
  <path
     style="stroke-opacity:1;fill-opacity:1;stroke:#00f400;stroke-dasharray:none;stroke-miterlimit:4;stroke-width:2.21937895;fill:none"
     d="M 304.64844 159.33984 L 296.5 158.33594 L 297.88867 163.62109 A 69.756454 69.756454 0 0 0 304.64844 159.33984 z "
     id="path6303" />
  <path
     style="stroke-opacity:1;fill-opacity:1;stroke:#00f400;stroke-dasharray:none;stroke-miterlimit:4;stroke-width:2.21937895;fill:none"
     d="M 322.29102 141.08008 L 321.69727 139.72266 L 310.56836 132.19336 L 284.08984 144.37109 L 285.52148 150.72852 L 289.88672 154.65625 L 296.5 158.33594 L 304.64844 159.33984 A 69.756454 69.756454 0 0 0 322.29102 141.08008 z "
     id="path6301" />
  <path
     style="stroke-opacity:1;fill-opacity:1;stroke:#00f400;stroke-dasharray:none;stroke-miterlimit:4;stroke-width:2.21937895;fill:none"
     d="M 325.52344 135.7207 L 321.69727 139.72266 L 322.29102 141.08008 A 69.756454 69.756454 0 0 0 325.52344 135.7207 z "
     id="path6299" />
  <path
     style="stroke-opacity:1;fill-opacity:1;stroke:#00f400;stroke-dasharray:none;stroke-miterlimit:4;stroke-width:2.21937895;fill:none"
     d="M 333.57227 96.708984 L 313.60938 103.13477 L 310.56836 132.19336 L 321.69727 139.72266 L 325.52344 135.7207 A 69.756454 69.756454 0 0 0 333.87109 102.67578 A 69.756454 69.756454 0 0 0 333.57227 96.708984 z "
     id="path6297" />
  <path
     style="stroke-opacity:1;fill-opacity:1;stroke:#00f400;stroke-dasharray:none;stroke-miterlimit:4;stroke-width:2.21937895;fill:none"
     d="M 324.50195 67.933594 L 315.95508 69.152344 L 291.51367 94.306641 L 292.23242 97.761719 L 313.60938 103.13477 L 333.57227 96.708984 A 69.756454 69.756454 0 0 0 324.50195 67.933594 z "
     id="path6295" />
  <path
     style="stroke-opacity:1;fill-opacity:1;stroke:#00f400;stroke-dasharray:none;stroke-miterlimit:4;stroke-width:2.21937895;fill:none"
     d="M 321.06836 62.548828 L 319.01953 61.109375 L 307.40039 53.679688 L 291.34375 54.748047 L 290.43164 57.466797 L 311.61719 69.074219 L 315.95508 69.152344 L 324.50195 67.933594 A 69.756454 69.756454 0 0 0 321.06836 62.548828 z "
     id="path6293" />
  <path
     style="stroke-opacity:1;fill-opacity:1;stroke:#00f400;stroke-dasharray:none;stroke-miterlimit:4;stroke-width:2.21937895;fill:none"
     d="M 318.24609 58.732422 L 319.01953 61.109375 L 321.06836 62.548828 A 69.756454 69.756454 0 0 0 318.24609 58.732422 z "
     id="path6291" />
  <path
     style="stroke-opacity:1;fill-opacity:1;stroke:#00f400;stroke-dasharray:none;stroke-miterlimit:4;stroke-width:2.21937895;fill:none"
     d="M 309.39844 49.644531 L 307.40039 53.679688 L 319.01953 61.109375 L 318.24609 58.732422 A 69.756454 69.756454 0 0 0 309.39844 49.644531 z "
     id="path6289" />
  <path
     style="stroke-opacity:1;fill-opacity:1;stroke:#00f400;stroke-dasharray:none;stroke-miterlimit:4;stroke-width:2.21937895;fill:none"
     d="M 297.85742 41.642578 L 290.30664 48.919922 L 291.34375 54.748047 L 307.40039 53.679688 L 309.39844 49.644531 A 69.756454 69.756454 0 0 0 297.85742 41.642578 z "
     id="path6287" />
  <path
     style="stroke-opacity:1;fill-opacity:1;stroke:#00f400;stroke-dasharray:none;stroke-miterlimit:4;stroke-width:2.21937895;fill:none"
     d="M 289.60547 37.814453 L 289.49023 48 L 290.30664 48.919922 L 297.85742 41.642578 A 69.756454 69.756454 0 0 0 289.60547 37.814453 z "
     id="path6285" />
  <path
     style="stroke-opacity:1;fill-opacity:1;stroke:#00f400;stroke-dasharray:none;stroke-miterlimit:4;stroke-width:2.21937895;fill:none"
     d="M 272.94922 33.550781 L 276.17773 40.097656 L 289.49023 48 L 289.60547 37.814453 A 69.756454 69.756454 0 0 0 272.94922 33.550781 z "
     id="path6283" />
  <path
     style="stroke-opacity:1;fill-opacity:1;stroke:#00f400;stroke-dasharray:none;stroke-miterlimit:4;stroke-width:2.21937895;fill:none"
     d="M 245.42188 35.472656 L 245.96094 37.357422 L 263.94531 53.658203 L 276.17773 40.097656 L 272.94922 33.550781 A 69.756454 69.756454 0 0 0 264.11523 32.919922 A 69.756454 69.756454 0 0 0 245.42188 35.472656 z "
     id="path6281" />
  <path
     style="stroke-opacity:1;fill-opacity:1;stroke:#00f400;stroke-dasharray:none;stroke-miterlimit:4;stroke-width:2.21937895;fill:none"
     d="M 218.69141 61.783203 L 219.48438 66.544922 L 241.86719 60.091797 L 245.96094 37.357422 L 245.42188 35.472656 A 69.756454 69.756454 0 0 0 230.9375 41.388672 L 218.69141 61.783203 z "
     id="path6279" />
  <path
     style="stroke-opacity:1;fill-opacity:1;stroke:#00f400;stroke-dasharray:none;stroke-miterlimit:4;stroke-width:2.21937895;fill:none"
     d="M 213.77148 54.507812 A 69.756454 69.756454 0 0 0 198.83203 78.34375 L 216.63281 73.570312 L 219.48438 66.544922 L 218.69141 61.783203 L 213.77148 54.507812 z "
     id="path6277" />
  <path
     style="stroke-opacity:1;fill-opacity:1;stroke:#00f400;stroke-dasharray:none;stroke-miterlimit:4;stroke-width:2.21937895;fill:none"
     d="M 213.77148 54.507812 L 218.69141 61.783203 L 230.9375 41.388672 A 69.756454 69.756454 0 0 0 213.77148 54.507812 z "
     id="circle4763" />
  <path
     style="stroke-opacity:1;fill-opacity:1;stroke:#000000;stroke-dasharray:none;stroke-miterlimit:4;stroke-width:2.21937895;fill:none"
     d="m 333.30782,262.09802 a 69.756454,69.756454 0 0 1 -69.75646,69.75646 69.756454,69.756454 0 0 1 -69.75645,-69.75646 69.756454,69.756454 0 0 1 69.75645,-69.75645 69.756454,69.756454 0 0 1 69.75646,69.75645 z"
     id="circle4765" />
  <path
     style="stroke-opacity:1;fill-opacity:1;stroke:#000000;stroke-dasharray:none;stroke-miterlimit:4;stroke-width:2.219;fill:none"
     d="m 170.50569,262.09802 a 69.756454,69.756454 0 0 1 -69.75645,69.75646 69.756454,69.756454 0 0 1 -69.756457,-69.75646 69.756454,69.756454 0 0 1 69.756457,-69.75645 69.756454,69.756454 0 0 1 69.75645,69.75645 z"
     id="circle4767" />
  <path
     style="fill:none;fill-opacity:1;stroke:#000000;stroke-width:1.9177779;stroke-miterlimit:4;stroke-dasharray:none;stroke-opacity:1"
     d="m 44.684166,250.16142 a 3.5411112,3.541111 0 0 1 -3.541111,3.54111 3.5411112,3.541111 0 0 1 -3.541111,-3.54111 3.5411112,3.541111 0 0 1 3.541111,-3.54111 3.5411112,3.541111 0 0 1 3.541111,3.54111 z"
     id="path6038" />
  <path
     style="fill:none;fill-opacity:1;stroke:#000000;stroke-width:1.9177779;stroke-miterlimit:4;stroke-dasharray:none;stroke-opacity:1"
     d="m 44.684166,273.82126 a 3.5411112,3.541111 0 0 1 -3.541111,3.54111 3.5411112,3.541111 0 0 1 -3.541111,-3.54111 3.5411112,3.541111 0 0 1 3.541111,-3.54111 3.5411112,3.541111 0 0 1 3.541111,3.54111 z"
     id="ellipse6040" />
  <path
     style="fill:none;fill-opacity:1;stroke:#000000;stroke-width:1.9177779;stroke-miterlimit:4;stroke-dasharray:none;stroke-opacity:1"
     d="m 209.17627,274.38458 a 3.5411112,3.541111 0 0 1 -3.54111,3.54111 3.5411112,3.541111 0 0 1 -3.54111,-3.54111 3.5411112,3.541111 0 0 1 3.54111,-3.54111 3.5411112,3.541111 0 0 1 3.54111,3.54111 z"
     id="ellipse6042" />
  <path
     style="fill:none;fill-opacity:1;stroke:#000000;stroke-width:1.9177779;stroke-miterlimit:4;stroke-dasharray:none;stroke-opacity:1"
     d="m 209.17627,249.03477 a 3.5411112,3.541111 0 0 1 -3.54111,3.54112 3.5411112,3.541111 0 0 1 -3.54111,-3.54112 3.5411112,3.541111 0 0 1 3.54111,-3.54111 3.5411112,3.541111 0 0 1 3.54111,3.54111 z"
     id="ellipse6044" />
  <ellipse
     style="fill:none;fill-opacity:1;stroke:#000000;stroke-width:2.05841446;stroke-miterlimit:4;stroke-dasharray:none;stroke-opacity:1"
     id="path6365"
     cx="264.19589"
     cy="102.69693"
     rx="69.836929"
     ry="69.836937" />
  <ellipse
     ry="69.836937"
     rx="69.836929"
     cy="102.1346"
     cx="101.1212"
     id="ellipse6367"
     style="fill:none;fill-opacity:1;stroke:#000000;stroke-width:2.05841446;stroke-miterlimit:4;stroke-dasharray:none;stroke-opacity:1" />
  <circle
     style="fill:none;fill-opacity:1;stroke:#00f400;stroke-width:2.36313128;stroke-miterlimit:4;stroke-dasharray:none;stroke-opacity:1"
     id="path6514"
     cx="100.75475"
     cy="102.18136"
     r="67.818436" />
  <circle
     r="67.818436"
     cy="102.18136"
     cx="100.75475"
     id="circle6516"
     style="fill:none;fill-opacity:1;stroke:#00f400;stroke-width:2.36313128;stroke-miterlimit:4;stroke-dasharray:none;stroke-opacity:1" />
  <circle
     style="fill:none;fill-opacity:1;stroke:#00f400;stroke-width:2.36313128;stroke-miterlimit:4;stroke-dasharray:none;stroke-opacity:1"
     id="circle6518"
     cx="264.39175"
     cy="102.18137"
     r="67.818436" />
</svg>
