<?xml version="1.0" encoding="UTF-8" standalone="no"?>
<!-- Created with Inkscape (http://www.inkscape.org/) -->

<svg
   xmlns:dc="http://purl.org/dc/elements/1.1/"
   xmlns:cc="http://creativecommons.org/ns#"
   xmlns:rdf="http://www.w3.org/1999/02/22-rdf-syntax-ns#"
   xmlns:svg="http://www.w3.org/2000/svg"
   xmlns="http://www.w3.org/2000/svg"
   xmlns:sodipodi="http://sodipodi.sourceforge.net/DTD/sodipodi-0.dtd"
   xmlns:inkscape="http://www.inkscape.org/namespaces/inkscape"
   width="48in"
   height="24in"
   viewBox="0 0 4320.0001 2160.0001"
   id="svg4470"
   version="1.1"
   inkscape:version="0.91 r13725"
   sodipodi:docname="kettle.svg">
  <defs
     id="defs4472" />
  <sodipodi:namedview
     id="base"
     pagecolor="#ffffff"
     bordercolor="#666666"
     borderopacity="1.0"
     inkscape:pageopacity="0.0"
     inkscape:pageshadow="2"
     inkscape:zoom="0.30500001"
     inkscape:cx="2075.4749"
     inkscape:cy="1429.0798"
     inkscape:document-units="px"
     inkscape:current-layer="layer1"
     showgrid="false"
     inkscape:window-width="1280"
     inkscape:window-height="751"
     inkscape:window-x="0"
     inkscape:window-y="1"
     inkscape:window-maximized="1"
     units="in" />
  <metadata
     id="metadata4475">
    <rdf:RDF>
      <cc:Work
         rdf:about="">
        <dc:format>image/svg+xml</dc:format>
        <dc:type
           rdf:resource="http://purl.org/dc/dcmitype/StillImage" />
        <dc:title></dc:title>
      </cc:Work>
    </rdf:RDF>
  </metadata>
  <g
     inkscape:label="Layer 1"
     inkscape:groupmode="layer"
     id="layer1"
     transform="translate(0,1107.6379)">
    <path
       style="fill:none;stroke:#00f400;stroke-width:4;stroke-miterlimit:4;stroke-dasharray:none;stroke-opacity:1"
       d="m 883.19268,426.93682 c -27.47665,-1.26961 -78.0478,-4.67703 -80.17604,-5.40195 -0.9062,-0.30868 -1.19085,-1.17812 -0.66968,-2.0454 0.61484,-1.02323 0.24719,-0.97356 -1.14301,0.15434 -1.72883,1.40266 -4.39263,1.42391 -17.03031,0.1351 -8.23957,-0.8401 -14.98096,-2.00363 -14.98096,-2.58564 0,-0.58197 -1.26549,-0.74052 -2.81213,-0.35238 -3.91844,0.98341 -22.77155,-1.74815 -23.85847,-3.45697 -0.59781,-0.93959 -0.89872,-0.96802 -0.91104,-0.0866 -0.032,2.27904 -44.157,-5.31419 -78.01837,-13.42573 -34.97987,-8.37937 -66.33611,-19.21052 -90,-31.08791 -12.32775,-6.18757 -24.35816,-13.48226 -25,-15.15885 -0.22,-0.57467 -0.95231,-1.04487 -1.62732,-1.04487 -2.89419,0 -19.62339,-14.6765 -26.45855,-23.21201 -2.99061,-3.73458 -3.37181,-4.81553 -2.00368,-5.68165 1.28103,-0.81099 1.03675,-1.07401 -1.01044,-1.08796 -2.9328,-0.02 -3.55556,-2.28281 -1.26001,-4.57837 1.12,-1.12 0.83972,-1.44002 -1.26124,-1.44002 -4.92196,0 -5.84515,-5.33468 -9.71392,-56.13335 -2.01568,-26.46585 -3.66483,-48.86491 -3.66483,-49.77512 0,-0.91021 -5.26501,-5.23874 -11.7,-9.61891 -6.435,-4.38021 -15.95513,-11.67618 -21.15581,-16.21326 -10.14459,-8.85025 -27.07399,-27.52326 -27.11767,-29.91062 -0.02,-1.18538 7.6914,3.98189 17.97348,12.04103 2.82455,2.21393 23.89611,12.38991 31.19999,15.06723 3.63,1.33063 11.46001,3.29176 17.40001,4.35804 18.55368,3.33057 24.58011,5.33869 24.7392,8.24371 0.11079,2.02745 0.25039,2.11685 0.688,0.44186 0.47468,-1.81658 2.11603,-2.10141 12.16076,-2.11039 14.22656,-0.012 38.39899,-2.76295 47.47451,-5.40126 12.08525,-3.51329 14.57449,-0.70296 14.30265,16.14743 -0.212,13.14788 1.13152,16.79266 7.26336,19.70241 4.59663,2.18123 14.13027,2.60348 17.54315,0.777 1.21761,-0.65164 3.34601,-3.01671 4.72977,-5.25566 2.20088,-3.56104 2.57487,-6.38075 2.98644,-22.5152 0.25879,-10.14439 1.01679,-19.79433 1.68447,-21.44434 1.30032,-3.21326 11.56348,-13.69484 17.85668,-18.23664 9.92641,-7.16381 20.92989,-16.98978 22.56352,-20.14893 3.01384,-5.82805 2.31429,-11.34044 -2.09047,-16.47267 -2.14389,-2.49796 -4.43889,-4.93848 -5.1,-5.42335 -2.63016,-1.92907 -9.96409,-0.85261 -14.31709,2.10145 -2.44752,1.66091 -4.95283,2.70903 -5.56747,2.32919 -0.61461,-0.38004 -1.11748,-0.17559 -1.11748,0.45428 0,1.58094 -9.54577,11.5449 -14.51473,15.15059 -8.65275,6.27889 -32.6166,17.55526 -44.57575,20.97547 -18.04532,5.16069 -29.80084,6.50883 -50.00916,5.73492 -13.44132,-0.51478 -20.25417,-1.39805 -29.37329,-3.8083 -14.10872,-3.72901 -23.09967,-7.41135 -24.03276,-9.84289 -0.37239,-0.97087 -1.19595,-1.44471 -1.82979,-1.05297 -0.63381,0.39167 -6.71261,-2.2966 -13.50845,-5.97397 -14.14948,-9.29652 -26.07183,-19.35597 -34.90172,-29.67731 -5.52163,-6.51577 -10.02023,-14.094945 -8.38519,-14.127215 0.51195,-0.008 0.2692,-0.43873 -0.53945,-0.9525 -0.80868,-0.5137 -1.61867,-2.26048 -1.79999,-3.88159 -0.1812,-1.62114 -0.95796,-3.61435 -1.72585,-4.42939 -4.8878,-5.187879 -9.94168,-33.60937 -9.9788,-56.11815 -0.028,-16.82549 2.09696,-28.7256897 9.06137,-50.7508 6.24395,-19.746631 8.84768,-25.605071 13.71055,-30.849231 1.83601,-1.97998 3.70573,-4.81974 4.15489,-6.31063 0.44911,-1.49082 5.23367,-6.49721 10.63235,-11.12525 5.39868,-4.62807 13.51061,-11.61553 18.02648,-15.5277 6.63357,-5.74675 10.09117,-7.73266 18.00001,-10.33858 5.38411,-1.77401 11.34812,-4.0138 13.25336,-4.97733 1.90528,-0.96353 9.73528,-3.146684 17.40004,-4.851454 12.72776,-2.8309 16.0504,-3.08154 38.32727,-2.89124 17.99653,0.15354 26.07424,0.69751 30.81013,2.07427 7.39564,2.14996 13.14492,5.753454 16.58111,10.392554 2.74609,3.70748 3.17205,10.26686 3.33469,51.35537 0.0536,13.53 0.62043,27.746891 1.25971,31.593071 0.84341,5.0743903 0.77877,7.4552503 -0.2356,8.6774303 -0.80412,0.96890997 -1.16568,3.86026 -0.85127,6.80694 0.30079,2.81739 0.0964,28.8825497 -0.45404,57.9225797 l -1.00068,52.799975 3.61607,3.31333 c 3.51128,3.21727 3.72385,3.2576 7.33232,1.39159 9.32069,-4.8199 17.29117,-13.00383 26.61989,-27.332725 5.17204,-7.944289 11.30703,-18.252929 13.63324,-22.908189 5.50923,-11.024981 7.06219,-12.664001 11.99916,-12.664001 3.83548,0 4.2576,0.43103 7.5006,7.65909 1.89003,4.212521 4.02035,8.019981 4.73403,8.461081 0.71372,0.44113 2.15277,3.8795 3.19784,7.64089 1.81881,6.545959 4.48997,12.669619 20.78009,47.638964 3.99692,8.57998 8.85107,19.91998 10.78704,25.19997 1.93595,5.28 5.73488,14.16144 8.44208,19.73653 2.7072,5.57512 4.92216,10.94031 4.92216,11.92268 0,0.98237 1.01792,2.9009 2.26208,4.26347 3.50823,3.8421 4.37667,7.86067 1.7188,7.95339 -1.76801,0.0617 -1.66972,0.28142 0.51912,1.16133 1.485,0.59692 2.70836,2.04769 2.7186,3.22397 0.012,1.17624 2.17355,5.91865 4.8074,10.53863 2.63384,4.62001 7.85284,14.60999 11.5978,22.20001 3.74492,7.58999 7.26816,14.11213 7.82944,14.49358 0.56128,0.38164 2.12868,3.61018 3.48316,7.17486 1.35444,3.56465 4.29628,8.9791 6.5374,12.03213 2.24112,3.053 3.72632,5.89929 3.30047,6.32515 -0.42584,0.42586 -0.18319,0.77428 0.53885,0.77428 0.7222,0 3.35604,3.36299 5.85291,7.47336 4.91601,8.09262 21.33109,27.60221 31.98193,38.01107 3.80316,3.71674 6.36836,7.17976 6.00999,8.11362 -0.3992,1.04074 -0.012,1.39328 1.07701,0.976 1.72712,-0.66279 14.79948,4.74004 15.94212,6.58889 1.50384,2.43326 14.54143,8.62043 26.52856,12.5894 11.45275,3.79215 14.95056,4.39577 28.9348,4.99361 15.86855,0.67842 15.94152,0.6692 30.03339,-3.78088 21.43601,-4.71788 13.96985,-2.96248 28.43421,-16.46097 17.36212,-16.12029 24.64307,-29.12044 30.6132,-54.6598 3.47692,-14.87362 1.52796,-24.86612 -7.64744,-39.2096 -4.77132,-7.45869 -9.43653,-10.23471 -17.20005,-10.23471 -3.62164,0 -5.40527,0.8316 -8.36495,3.90002 -7.43633,7.70949 -7.46628,15.00936 -0.1072,26.1 3.31519,4.99617 3.5538,6.07825 3.19063,14.47041 -0.33879,7.82987 -0.84383,9.60676 -3.69248,12.99205 -1.815,2.15693 -3.29999,5.19108 -3.29999,6.74263 0,1.661 -1.41876,3.96694 -3.45028,5.60792 -1.89768,1.53287 -5.378,5.51023 -7.73412,8.83859 -3.99512,5.64376 -4.85692,6.20023 -12.78776,8.25722 -4.67716,1.21309 -9.72825,3.16865 -11.22457,4.34565 -4.14747,3.26238 -20.35363,2.894 -32.19403,-0.73185 -15.16193,-4.64299 -22.91976,-8.24532 -33.0624,-15.35248 -10.705,-7.50115 -12.92169,-9.66926 -11.77796,-11.51983 0.42655,-0.69013 -0.60696,-1.78046 -2.29668,-2.42284 -1.68973,-0.64242 -3.07221,-1.71468 -3.07221,-2.38271 0,-0.66804 -2.02499,-2.52258 -4.49999,-4.12112 -4.3884,-2.83443 -7.5834,-7.30419 -21.41069,-29.95308 -6.72811,-11.02069 -7.30444,-12.21598 -5.28932,-10.97058 0.66001,0.40794 1.2,0.16957 1.2,-0.52917 0,-0.69895 -0.74703,-1.27081 -1.66003,-1.27081 -0.91305,0 -1.99968,-0.94501 -2.41472,-2.10001 -0.41508,-1.15499 -3.16456,-6.42 -6.10993,-11.69999 -2.94535,-5.28 -8.91523,-16.89 -13.26639,-25.80002 -8.48173,-17.36833 -11.51268,-23.37526 -15.13721,-29.99999 -1.26384,-2.30998 -2.0834,-5.41501 -1.82123,-6.90002 0.272,-1.53972 -0.13,-2.69997 -0.93464,-2.69997 -2.2836,0 -5.53868,-7.83716 -3.92521,-9.45065 0.99917,-0.99917 0.87313,-1.34935 -0.48552,-1.34935 -2.32399,0 -5.24564,-6.3955 -21.61011,-47.30466 -2.61912,-6.547525 -6.83153,-16.267495 -9.36084,-21.600014 -2.52932,-5.33243 -5.98656,-13.57546 -7.68272,-18.317831 -1.69617,-4.74236 -5.91716,-14.05163 -9.38001,-20.68727 -5.25116,-10.06249 -6.37739,-13.34174 -6.786,-19.75886 -0.55164,-8.66336 1.41849,-16.3313897 4.196,-16.3313897 1.18681,0 1.57585,-0.67614 1.10104,-1.91356 -1.02008,-2.65824 2.7732,-10.73337 11.72681,-24.9641703 9.86063,-15.672421 13.19183,-21.446631 17.03176,-29.522251 1.72604,-3.63003 5.70455,-10.92003 8.84108,-16.20002 3.13655,-5.28 7.68683,-13.11 10.11176,-17.40001 2.42491,-4.28996 7.36928,-12.55512 10.98752,-18.367024 3.61824,-5.81189 6.5806,-11.21187 6.58308,-12.00002 0.002,-0.7881 1.12652,-3.27343 2.49792,-5.52293 1.81139,-2.97129 2.29003,-5.17404 1.74988,-8.05329 -0.94997,-5.06384 -6.81857,-10.95403 -11.85521,-11.89892 -5.54083,-1.03949 -13.18567,2.35353 -17.23127,7.64772 -2.87736,3.76541 -20.92936,35.063384 -24.85057,43.085124 -0.7234,1.47984 -1.70331,2.69484 -2.17759,2.70002 -0.47428,0.004 -0.58629,0.72869 -0.2488,1.60795 0.3372,0.87919 -1.94309,5.0642 -5.06769,9.30001 -5.95099,8.06724 -14.82107,24.26635 -14.82107,27.06714 0,0.89883 -0.45497,1.63425 -1.01104,1.63425 -0.55608,0 -2.04108,2.0216 -3.30001,4.49242 -1.25891,2.47082 -3.95919,7.19583 -6.0006,10.50002 -2.0414,3.30415 -8.47595,14.107561 -14.29903,24.0075413 -5.82312,9.90001 -12.58192,20.9700097 -15.01964,24.5999997 -2.43772,3.63003 -4.81412,7.81376 -5.28093,9.29724 -0.88955,2.82697 -5.39275,4.6569 -8.51332,3.45941 -2.62935,-1.00899 -3.62147,-4.41123 -1.65032,-5.65935 1.33913,-0.84792 1.354,-1.0642 0.0744,-1.07891 -1.29836,-0.016 -1.58596,-6.53221 -1.5232,-34.5183797 0.0425,-18.9750013 0.206,-36.6600013 0.36359,-39.2999913 0.48876,-8.19874 0.16121,-22.25017 -0.83183,-35.7 -0.52392,-7.09501 -0.56952,-12.90001 -0.1016,-12.90001 0.46816,0 1.89572,0.559 3.17235,1.24223 2.87613,1.53924 2.97272,0.78081 0.24761,-1.94434 -1.54364,-1.54361 -2.11385,-4.280434 -2.23121,-10.709164 -0.2104,-11.51687 -4.46767,-21.30933 -10.32928,-23.75847 -2.25407,-0.9418 -10.32391,-1.96731 -18.3912,-2.33713 -7.90615,-0.3624 -15.99479,-1.25265 -17.9748,-1.97829 -2.61655,-0.95892 -10.48392,-0.9594 -28.8,-0.001 -13.86,0.72468 -28.71,1.45441 -33,1.62154 -10.7594,0.41921 -36.04479,6.48458 -47.1,11.29819 -3.135,1.36502 -5.69999,2.14735 -5.69999,1.73856 0,-0.40886 -0.94501,0.0822 -2.10001,1.0909 -1.155,1.00887 -4.152,2.49331 -6.66003,3.29889 -5.69548,1.82925 -39.92505,30.174424 -48.07141,39.807404 -3.2424,3.83412 -6.32443,6.70587 -6.84899,6.38167 -0.52453,-0.32391 -1.34448,0.0429 -1.82204,0.81557 -0.57361,0.92813 -0.34521,1.08171 0.67275,0.45256 0.8476,-0.52384 1.33604,-0.47221 1.0854,0.11465 -1.18911,2.78488 -11.02307,18.49943 -11.36359,18.15892 -0.2128,-0.21287 0.3956,-7.38589 1.3526,-15.93969 0.95692,-8.5538 2.09775,-24.05741 2.53524,-34.452404 0.61556,-14.62787 1.1598,-18.89999 2.40772,-18.89999 0.88679,0 1.61236,-0.52304 1.61236,-1.16233 0,-0.6393 -0.82777,-0.84467 -1.83949,-0.45649 -1.58567,0.60854 -1.81779,-1.01104 -1.68231,-11.73764 0.0864,-6.84394 -0.1488,-14.33354 -0.52268,-16.64353 -0.374,-2.31003 -0.97468,-8.79 -1.33504,-14.40001 -0.79744,-12.41465 -1.01945,-14.01612 -4.21832,-30.43134 -1.39668,-7.16725 -2.37356,-13.10723 -2.1708,-13.19999 8.20848,-3.46835 3.65984,-6.68038 -2.30164,-9.48983 -0.51132,-0.12107 -2.60464,-4.55375 -4.65177,-9.84974 -2.04711,-5.296 -4.11179,-10.52688 -4.58811,-11.62415 -0.5344,-1.23104 -0.258,-2.19902 0.72204,-2.52775 0.87348,-0.29265 0.64311,-0.39087 -0.51189,-0.21728 -1.15499,0.17358 -2.09999,-0.12548 -2.09999,-0.66447 0,-0.53895 -2.14373,-3.69189 -4.76384,-7.00662 -2.44736,-9.50686 -4.53889,-5.21337 -10.83617,-11.95023 0,-0.71329 -0.62344,-1.6822 -1.3854,-2.15312 -0.9218,-0.56974 -1.05672,-0.32431 -0.40316,0.73306 0.74528,1.20587 0.42813,1.35837 -1.31456,0.63196 -14.38228,-5.99542 -14.11232,-5.93981 -29.8968,-6.15549 -8.58,-0.11706 -16.14,0.20245 -16.8,0.71005 -0.98952,0.7612 -8.13416,2.42444 -13.2,3.07283 -0.66,0.0846 -2.01,0.48917 -3,0.89931 -10.48884,4.34509 -37.11696,11.62235 -42.5274,11.62235 -9.12964,0 -10.2726,-0.66151 -10.2726,-5.94571 0,-3.90873 0.89184,-5.33183 6.9,-11.01015 16.9792,-9.25299 63.09016,-52.34481 78.18192,-56.43537 0.542,0.87698 1.42792,0.48294 2.5724,-1.14413 2.23024,-3.17074 12.5842,-8.43546 23.34568,-11.87078 18.53101,-5.91548 45.73853,-2.44973 69.63517,8.87018 12.97324,6.14547 25.76483,14.67518 25.76483,17.18048 0,0.93334 0.50769,1.38322 1.12816,0.99973 1.64481,-1.01653 9.11125,5.91327 16.85484,15.64343 7.57161,9.51412 16.79917,26.57931 19.69856,36.42997 2.43245,8.26424 2.43676,8.21541 -0.78155,8.8353 -2.39196,0.46074 -2.33588,0.53867 0.49155,0.68347 3.00605,0.15394 3.27405,0.66912 4.61021,8.8634 5.4996,33.72808 13.66004,57.82208 23.27207,68.71197 4.05184,4.59047 4.22881,4.66423 4.28856,1.78803 0.48289,-23.23891 8.02857,-74.05361 16.60136,-111.79781 l 3.45188,-15.19785 -5.22455,-1.46279 c -3.2978,-0.92333 -6.59493,-3.02357 -8.94044,-5.69492 -3.40529,-3.87846 -3.67005,-4.7847 -3.16768,-10.84274 0.64711,-7.80302 3.92315,-11.41236 12.42192,-13.68539 2.91231,-0.77892 5.29511,-2.04812 5.29511,-2.82043 0,-0.77231 0.84413,-2.10474 1.87581,-2.96099 1.70111,-1.41176 1.70111,-1.65458 0,-2.60653 -1.1218,-0.62782 -1.87581,-2.67383 -1.87581,-5.09017 0,-2.2222 -0.48087,-4.22038 -1.06859,-4.44034 -2.00649,-0.75106 -13.33141,-23.82618 -13.33141,-27.1634 0,-1.83045 1.21501,-5.73749 2.7,-8.68236 3.2066,-6.35886 8.90817,-8.9874 15.43461,-7.11566 12.75195,2.62112 -13.62693,-23.58339 -14.98768,-25.00762 -7.56869,-7.84375 -15.3908,-14.3222 -25.34693,-20.99275 -55.89999,-37.45283 -86.27576,-70.70365 -97.78312,-107.03824 -4.08783,-12.90727 -4.68147,-33.06569 -1.36051,-46.19833 3.56508,-14.09778 10.53011,-28.65217 14.14596,-29.5597 3.02039,-0.75803 3.69512,-2.34282 1.33275,-3.13028 -3.6086,-1.20286 21.524,-28.93996 42.26493,-46.64484 12.38455,-10.57178 43.96527,-33.46687 46.163,-33.46687 0.28399,0 2.83875,-1.56008 5.67683,-3.46684 10.62977,-7.14156 41.75973,-23.19012 43.60741,-22.48108 1.03256,0.3964 1.59156,0.25801 1.24219,-0.3072 -1.11,-1.79604 48.86485,-23.13553 58.41965,-24.94543 2.14,-0.4054 4.43092,-1.1473 5.09092,-1.6487 1.68231,-1.2782 38.20471,-12.6683 46.2,-14.4083 3.63,-0.79 7.68,-1.909 9,-2.4866 4.4436,-1.9446 41.81752,-10.5191 64.52524,-14.8036 39.57752,-7.4676 82.9992,-13.0763 137.07476,-17.7057 24.54611,-2.1014 148.72329,-2.1102 175.79999,-0.012 33.1492,2.5682 67.7244,6.2035 93.6617,9.8477 31.0974,9.1999 50.6138,8.0306 67.2342,11.4034 53.5942,10.8863 102.6109,25.7237 144.5041,43.7413 16.6617,7.16591 45.4062,21.92087 55.467,28.47211 3.8132,2.48292 8.013,5.10748 9.333,5.83232 11.9294,10.29255 25.9058,18.3869 36.6,27.63912 14.9523,12.99862 18.479,16.784 17.3457,18.61793 -0.6021,0.97412 -0.422,1.17729 0.5248,0.59211 2.8434,-1.75736 22.0186,22.64701 30.6356,38.99023 29.2417,55.45998 11.9097,109.86486 -50.9061,159.79408 -12.1125,9.62761 -49.8966,35.73567 -51.7174,35.73567 -0.5954,0 -1.0826,0.5879 -1.0826,1.30649 0,0.71859 -3.544,5.17356 -7.8755,9.90001 -7.3028,7.96851 -17.8415,22.27643 -17.0161,23.10186 0.1976,0.19763 2.4684,-0.11666 5.0468,-0.69827 12.6038,-2.8426 21.2459,10.16973 15.6496,23.56372 -0.9874,2.36318 -3.8097,7.61087 -6.2718,11.66147 -5.0241,8.26576 -5.0756,8.41781 -5.9495,17.58272 l -0.6311,6.618 5.2698,1.40943 c 10.1698,2.72002 14.9743,8.8887 13.5391,17.38365 -1.0344,6.12282 -6.157,11.33238 -12.7839,13.00107 l -5.3748,1.3534 1.6237,12.20823 c 5.9174,44.4914 15.2838,90.56874 23.7836,117.00265 11.2913,35.1155 22.0842,76.448914 26.0364,99.712324 1.2016,7.07288 1.2071,9.0088 0.028,9.40223 -1.0315,0.34356 -0.7939,1.10701 0.7763,2.49323 2.7579,2.43507 5.6493,18.22431 3.5723,19.50803 -0.9038,0.55851 -0.8771,0.93795 0.089,1.25982 0.76,0.25336 2.1337,5.58367 3.0527,11.84524 2.465,16.7965513 5.7643,49.257621 5.0762,49.945621 -0.328,0.32792 -3.5285,-1.05834 -7.1124,-3.08085 -3.5837,-2.02256 -12.4133,-5.7419 -19.6212,-8.26524 -13.0047,-4.5525897 -13.239,-4.5865897 -30.5055,-4.4261097 -19.7581,0.1836 -26.9956,1.9218097 -43.4373,10.4322297 -11.3214,5.86004 -25.3768,19.91368 -30.9418,30.93774 -4.6548,9.22119 -9.6138,27.569371 -9.6178,35.58554 0,9.95209 5.1837,30.363755 10.0622,39.583745 6.4824,12.25126 16.325,21.75331 28.5114,27.52492 9.6582,4.57415 10.4606,4.74425 22.0234,4.66888 14.6964,-0.0954 23.387,-3.05002 31.3131,-10.64458 4.1065,-3.93478 5.2869,-5.92875 5.2869,-8.93107 0,-5.3063 -2.9495,-10.54813 -7.1607,-12.72582 -4.8241,-2.49464 -7.3649,-2.30294 -15.6393,1.17968 -14.1248,5.94503 -25.8565,3.24462 -34.3665,-7.91053 -7.0021,-9.17866 -8.5484,-12.7247 -10.5474,-24.187775 -1.5439,-8.85354 -1.547,-11.042989 -0.024,-17.567369 0.9563,-4.09931 2.6097,-9.18151 3.6743,-11.29378 5.0302,-9.980431 26.2284,-25.117111 38.3008,-27.348771 13.6055,-1.84163 29.9001,-1.13382 39.3876,3.70484 15.6763,6.75967 15.1662,8.49013 15.1662,8.49013 l 4.5049,4.55672 c 2.4778,2.50622 6.608,7.12312 9.1784,10.25977 l 4.6735,5.703051 -0.7731,42.796894 c -1.1735,64.95713 -1.9399,69.40509 -13.589,78.86778 -3.1817,2.58443 -7.4048,6.35317 -9.3848,8.37492 -5.4968,5.61269 -12.6269,9.36198 -17.2886,9.09106 -3.6416,-0.21166 -3.9125,-0.024 -2.4772,1.70421 2.1394,2.5779 0.6334,3.47669 -9.757,5.82312 -24.4607,5.52398 -29.1294,6.03343 -40.1986,4.38662 -14.5309,-2.16186 -37.7731,-13.61138 -48.2471,-23.7674 -22.8436,-22.14999 -38.6714,-32.92854 -57.5822,-39.21267 -11.2379,-3.73446 -13.312,-4.79032 -12.153,-6.18689 1.6113,-1.94153 -0.1884,-2.31167 -2.0738,-0.42646 -1.4009,1.40094 -7.6226,-0.81989 -7.6226,-2.7209 0,-0.59299 -0.5241,-0.75422 -1.1647,-0.35839 -1.5209,0.93996 -7.2092,-2.0345 -10.1904,-5.32866 -2.0023,-2.2125 -2.0905,-2.75987 -0.5971,-3.70448 1.4854,-0.93955 1.452,-1.11113 -0.2192,-1.12669 -2.7924,-0.0281 -3.4288,-2.49804 -3.4288,-13.31657 0,-6.79166 0.4279,-9.50711 1.5,-9.52021 1.0914,-0.012 1.0515,-0.30227 -0.1464,-1.06119 -2.1171,-1.34113 -1.406,-30.504144 0.8439,-34.608024 2.5531,-4.6567 8.3144,-6.72307 20.3023,-7.28154 10.6195,-0.49478 11.1,-0.40875 11.1,1.98731 0,2.09315 0.4434,2.34046 2.7,1.50569 1.485,-0.54937 2.4607,-1.47698 2.168,-2.06132 -0.2924,-0.58441 1.0305,-1.33319 2.9401,-1.66396 5.1056,-0.88435 11.3919,-9.564671 11.3919,-15.730471 0,-8.5928 -2.4424,-12.22086 -10.7311,-15.94061 -6.669,-2.9929 -7.8359,-3.18384 -11.1266,-1.82075 -5.982,2.47776 -17.664,2.08786 -22.4998,-0.75102 -8.178,-4.8009 -9.0425,-7.9515 -9.0425,-32.9557597 0,-26.2267603 0.6035,-30.8665513 4.3974,-33.8071713 11.049,-8.56398 10.9967,-8.54558 19.9943,-7.02798 8.5055,1.43465 22.4573,0.35398 29.3723,-2.27507 9.7449,-3.70508 10.3495,-22.17019 0.8861,-27.06386 -3.1956,-1.65253 -8.9026,-1.92906 -39.2696,-1.90301 -38.2883,0.0321 -40.5277,0.37684 -41.6378,6.3923 -0.2724,1.47663 -1.127,5.65479 -1.8986,9.28478 -2.581,12.14036 -3.0502,20.86574 -2.1621,40.200021 0.485,10.55999027 0.5836,28.38001 0.2191,39.59998 -0.5056,15.56109 -0.2591,21.89089 1.0385,26.68522 1.595,5.89239 1.1012,15.468931 -1.1302,21.914781 -0.3428,0.99003 -0.5471,8.145019 -0.4542,15.900009 1.1099,31.341195 0.6449,-10.214509 0.6449,47.700015 0,27.76295 0.2608,32.27666 2.0556,35.55458 1.1306,2.06501 3.0206,4.19768 4.2001,4.73924 1.7064,0.78358 22.7703,2.48907 35.7443,2.89416 5.5062,0.17198 20.8978,5.26164 29.5956,9.78673 6.7348,3.50379 13.2652,8.51984 23.4679,18.02574 7.7751,7.2441 15.7566,14.00562 17.7365,15.02567 1.98,1.02002 4.68,2.80412 6,3.96461 4.1217,3.62358 24.2545,11.95292 34.5534,14.29542 19.0511,4.33306 26.2695,5.25241 35.5951,4.53322 21.4267,-1.65225 50.1525,-10.07075 60.2482,-17.65649 3.4862,-2.61959 6.7583,-4.76289 7.2711,-4.76289 1.334,0 1.1648,2.78684 -0.911,15.00001 -5.8717,34.54661 -12.973,64.99527 -17.0717,73.19997 -8.5088,17.03227 -27.7659,34.12603 -54.984,48.80738 -4.8638,2.62348 -9.3963,4.42819 -10.0722,4.01047 -0.6758,-0.41772 -1.2289,-0.15795 -1.2289,0.5774 0,1.11562 -10.9731,6.79511 -15,7.76377 -0.66,0.15875 -3.3379,1.23236 -5.9509,2.38579 -4.6418,2.04894 -4.7976,2.03971 -6.773,-0.40008 -1.758,-2.17092 -2.2145,-2.26509 -3.4959,-0.721 -1.2227,1.47322 -1.0397,1.77605 1.0729,1.77605 13.831,0 -34.1135,15.29555 -75.2193,23.99699 -36.3943,7.70412 -84.8791,14.46479 -133.0468,18.55199 -25.7355,2.18391 -27.1562,2.21919 -26.1869,0.651 0.4078,-0.65998 1.7897,-1.19997 3.0708,-1.19997 1.281,0 2.3291,-0.54 2.3291,-1.20002 0,-2.12782 -3.7536,-1.27618 -5.8644,1.33055 -1.8042,2.22817 -3.9783,2.66341 -18.1924,3.64225 -21.9356,1.51058 -178.75951,2.25768 -206.34315,0.98306 z m 130.19152,-1.14205 c 0.4204,-0.6803 -0.061,-0.88151 -1.1292,-0.47172 -2.0789,0.79776 -2.4593,1.65791 -0.7332,1.65791 0.6211,0 1.4591,-0.53375 1.8624,-1.18619 z m -63.31652,-0.73883 c -0.3988,-0.39888 -1.43376,-0.44138 -2.3,-0.0946 -0.95728,0.38325 -0.67292,0.66743 0.72499,0.72504 1.26501,0.0517 1.97377,-0.23171 1.57501,-0.63035 z M 846.50011,183.20062 c 12.88845,-1.28112 14.67365,-1.75003 18.00001,-4.72746 3.40356,-3.04654 3.67663,-3.86606 3.48892,-10.47099 -0.2224,-7.82242 -2.76744,-14.11409 -6.0832,-15.03793 -13.91452,-3.87678 -19.31872,-4.54666 -30.79961,-3.81765 -10.96092,0.69594 -12.49151,0.53194 -16.08575,-1.72353 -6.31385,-3.96208 -7.19564,-7.7068 -7.50328,-31.86311 -0.31921,-25.058255 0.40588,-31.042054 4.35919,-35.977004 l 2.88393,-3.6 17.71616,-0.62904 c 9.74391,-0.34596 18.38419,-1.04851 19.20068,-1.56121 0.81643,-0.51273 3.11143,-3.29697 5.1,-6.1872 4.05584,-5.894921 4.52023,-10.332691 1.78928,-17.098301 -1.47641,-3.65764 -3.14292,-5.14991 -8.70001,-7.79051 -6.31479,-3.00067 -16.55447,-4.24566 -15.08167,-1.83377 0.30239,0.49501 -3.12733,0.89803 -7.62124,0.89554 -10.13084,-0.004 -14.62164,-2.45066 -18.24384,-9.93317 -2.48009,-5.12317 -2.5676,-6.44946 -1.88856,-28.6172497 0.3916,-12.78479 0.94728,-24.4155103 1.23479,-25.8460003 0.2876,-1.43048 2.54865,-3.830871 5.02477,-5.334191 2.47607,-1.50333 4.90008,-3.37763 5.38668,-4.16518 1.50724,-2.43955 7.00411,-3.09877 13.00803,-1.56001 4.25661,1.09094 8.17677,1.15857 15.12649,0.26058 5.15943,-0.66647 9.68476,-0.75583 10.05624,-0.19884 1.11972,1.67947 8.1286,-5.43979 10.17336,-10.33357 3.54264,-8.47871 0.162,-16.60982 -8.22693,-19.78833 -2.04583,-0.77515 -14.55955,-1.27999 -31.72935,-1.27999 -23.98192,0 -28.01253,-0.24775 -26.15352,-1.60699 1.62328,-4.03244 -0.74276,-1.93211 -2.55333,-0.93796 -0.46511,1.77862 -2.00247,2.38187 -7.16024,2.80958 -4.32175,0.35839 -7.35656,1.33327 -8.8738,2.8505 -2.80427,2.80428 -4.82859,13.57787 -5.57052,29.64661 -0.51263,11.102311 -0.68363,11.741401 -3.05052,11.400011 -5.99387,1.45979 0.30761,2.3263 2.82237,1.74185 l -0.37641,11.8508103 c -0.2076,6.54246997 0.10961,11.84969 0.70865,11.84824 0.63563,-0.001 0.73084,6.8316297 0.22999,16.4973697 -1.08139,20.86438 -0.92168,30.90787 0.58185,36.58539 0.78031,2.94652 0.78556,8.710421 0.016,16.800001 -1.24116,13.034979 -1.73469,92.589484 -0.61248,98.730024 0.93708,5.12742 4.12179,8.86163 8.98779,10.53866 5.21657,1.79786 40.04829,1.48862 60.42009,-0.53638 z m 290.49259,1.18422 c 4.6199,-0.004 16.4003,0.29024 26.1785,0.65569 l 17.7785,0.6639 3.5146,-3.59539 c 4.0283,-4.12091 8.3284,-11.99123 8.3284,-15.24326 0,-3.94429 -5.9642,-14.38561 -8.7433,-15.30653 -1.4612,-0.48419 -11.6818,-1.23922 -22.7124,-1.67783 -18.9524,-0.75355 -20.2239,-0.95543 -23.1135,-3.67008 -3.8952,-3.65937 -5.5654,-9.91072 -5.3797,-20.13525 0.1712,-9.41358 -0.8146,-25.29378 -1.7315,-27.896695 -0.5948,-1.6885 0,-63.99229 0.7397,-77.69628 0.1876,-3.46458 0.012,-6.29957 -0.3937,-6.29997 -0.404,-4.4e-4 -0.4854,-11.2058197 -0.1808,-24.90083 0.6191,-27.850071 0.6628,-25.507731 -0.6866,-36.900011 -1.2611,-10.64722 -1.899,-11.9948 -6.7721,-14.30732 -10.3308,-4.9022 -19.8259,0.7865 -19.8259,11.87811 0,3.97579 -2.495,7.82924 -5.0694,7.82924 -0.7138,0 -0.1067,1.0332 1.3494,2.29595 2.4226,2.10101 2.6636,3.48247 2.8394,16.271031 0.1077,7.82655 -0.3164,14.3399103 -0.9635,14.8041003 -0.6358,0.45593 -1.0599,3.79892 -0.9425,7.42891 0.1173,3.62999 0.4435,17.5460397 0.7245,30.9244697 0.2812,13.37851 0.86,24.67349 1.2866,25.10003 1.0739,1.07386 0.9767,7.30953 -0.1244,7.99003 -0.495,0.30588 -0.8608,14.107761 -0.813,30.67083 0.053,18.168905 -0.3628,30.114645 -1.0469,30.114645 -0.6237,0 -0.4814,0.78638 0.3164,1.74743 0.7975,0.96108 1.1019,2.31111 0.6761,3.00003 -0.4258,0.68889 -0.1576,1.25253 0.5955,1.25253 0.9915,0 1.2802,6.6366 1.0456,24.03191 -0.2664,19.74823 -0.012,24.34315 1.4223,25.77824 2.9091,2.90908 14.5277,6.42966 19.1041,5.78877 2.31,-0.32352 7.98,-0.59187 12.6,-0.5964 z m -202.34262,-1.13259 c 7.57024,-2.63899 7.36208,-0.18922 7.37783,-86.830545 0.012,-61.3478 0.33881,-78.66021 1.48952,-78.73409 1.14057,-0.0734 1.13497,-0.23211 -0.024,-0.70003 -1.88444,-0.76032 -2.16604,-26.8052397 -0.29,-26.8052397 0.75028,0 0.68355,-0.8432603 -0.1756,-2.2189103 -2.07493,-3.3225 -0.2624,-8.44163 4.74323,-13.396061 3.57853,-3.54196 5.91025,-4.65935 12.22217,-5.85696 9.96128,-1.89002 14.658,-4.20943 17.18428,-8.486 2.67812,-4.53371 2.54499,-9.90022 -0.3884,-15.64977 -2.87832,-5.64196 -4.2148,-6.41263 -14.64296,-8.444 -6.66641,-1.29859 -8.8794,-1.29278 -12.89928,0.0321 -4.03073,1.33026 -5.97032,1.33327 -11.45448,0.016 -5.10624,-1.22495 -7.29692,-1.26724 -9.66861,-0.18682 -2.24616,1.02339 -5.85736,1.07739 -13.49863,0.20205 -13.51464,-1.54858 -24.98829,-1.53708 -27.91265,0.0281 -1.27747,0.68368 -3.73119,4.02258 -5.45263,7.41973 -2.48996,4.91363 -3.01565,7.36657 -2.5708,11.99605 0.96488,10.04181 3.28436,11.41108 27.11524,16.00708 5.13119,0.98959 7.38328,5.977381 7.40296,16.395501 0.008,4.1462103 0.79068,10.4558903 1.73964,14.0215303 1.4204,5.33693 1.4556,7.14003 0.1992,10.1999997 -1.71909,4.1863 -1.87868,43.23057 -0.2008,49.14521 0.57796,2.03747 0.3908,6.027731 -0.46161,9.836151 -1.19007,5.31784 -1.13675,6.97535 0.31321,9.74299 1.5678,2.99226 1.51352,3.92833 -0.52824,9.108219 -2.81388,7.13891 -2.86904,10.909575 -0.2252,15.385555 1.79548,3.03952 1.87044,4.33046 0.60223,10.37651 -1.10767,5.28092 -1.14588,12.97586 -0.1624,32.71375 0.70725,14.19475 1.52432,27.0149 1.81577,28.4892 0.5718,2.89275 7.78852,7.37747 12.01479,7.46639 1.38653,0.0281 4.23793,-0.54549 6.33649,-1.27707 z m 111.86512,-1.41124 c 2.2517,-1.51375 4.2563,-3.98593 4.4767,-5.52089 0.3193,-2.22315 0.9801,-2.66866 3.3001,-2.2252 1.5953,0.30508 2.9007,0.0898 2.9007,-0.47906 0,-0.56849 -1.0727,-1.0336 -2.3836,-1.0336 -2.358,0 -2.3838,-1.02451 -2.4016,-95.162504 l -0.02,-95.162421 3.6454,-5.74815 c 3.0535,-4.814891 3.935,-5.507861 5.4291,-4.267841 1.4444,1.19877 1.6603,1.15853 1.1346,-0.21166 -0.472,-1.23005 1.0858,-2.09516 5.7075,-3.16973 3.4964,-0.81284 7.5374,-1.47791 8.9801,-1.47791 1.4427,0 4.4598,-1.61265 6.7047,-3.58365 5.2834,-4.63894 6.4676,-11.51306 3.2403,-18.8092 -2.6122,-5.90518 -4.078,-6.7927 -14.6043,-8.84275 -6.4652,-1.25911 -8.9927,-1.26392 -13.416,-0.0241 -4.3944,1.23036 -6.5935,1.23289 -11.3531,0.012 -4.4178,-1.13226 -6.8553,-1.18097 -9.688,-0.19363 -2.6739,0.93218 -6.9283,0.96846 -14.4947,0.12347 -5.8904,-0.65765 -14.3756,-1.03516 -18.8559,-0.83893 l -8.1459,0.35679 -3.52344,5.25466 c -4.29736,6.40893 -5.45032,11.34309 -4.00756,17.15073 1.70088,6.8465 5.20791,9.2408 17.1933,11.73788 12.9001,2.6877 14.4517,3.27516 15.4501,5.849501 1.0195,2.62917 3.3411,25.8495603 3.2,32.0072203 -1.0367,45.2462297 -1.0305,51.8348797 0.051,53.8549897 0.8406,1.57087 0.7515,4.455971 -0.2892,9.359821 -1.2324,5.80716 -1.2154,7.62907 0.094,10.0754 1.3627,2.54627 1.2992,3.82089 -0.4309,8.648079 -2.5655,7.1578 -2.5602,11.572565 0.02,15.938945 1.7936,3.03627 1.852,4.16769 0.4893,9.48461 -1.244,4.85382 -1.2745,11.27021 -0.1556,32.7376 0.7653,14.68532 1.6333,27.90683 1.9287,29.38113 0.6165,3.07613 7.9038,7.38626 12.6239,7.4664 1.7174,0.0281 4.9573,-1.1805 7.1999,-2.68819 z m 343.7091,-22.22659 c -0.3696,-0.36961 -1.3377,-7.6e-4 -2.1517,0.81934 -1.1764,1.18514 -1.0386,1.32296 0.6717,0.67172 1.1835,-0.4506 1.8495,-1.1216 1.48,-1.49106 z M 848.39268,146.90953 c 0,-0.25978 -0.83805,-0.7932 -1.86232,-1.18627 -1.06793,-0.40978 -1.5496,-0.20846 -1.1292,0.47165 0.70472,1.14024 2.99152,1.68648 2.99152,0.71462 z m 35.40424,-293.9665 c 3.37744,-5.15472 -0.2608,-10.362 -7.23988,-10.362 l -2.83932,0 -0.09,-36.59998 -0.09,-36.60003 11.4372,0 11.4372,0 -10e-4,5.1 c -0.002,8.3653 0.25079,9.10738 3.36904,9.88999 4.76692,1.19645 6.66779,-1.81305 7.21035,-11.4154 0.49089,-8.68754 -1.07596,-14.88737 -4.05091,-16.02897 -1.37028,-0.52584 -39.39748,-1.02579 -61.44672,-0.80787 -9.3362,0.0922 -11.10001,2.34791 -11.10001,14.19528 0,12.71989 3.25784,17.52058 8.60552,12.681 1.55076,-1.40342 2.19449,-3.69144 2.19449,-7.80001 l -4e-5,-5.81402 11.39999,0 11.40001,0 0,26.94038 c 0,24.39155 -0.1988,27.05612 -2.10001,28.16353 -1.99999,1.16489 -1.99999,1.22487 0,1.25962 1.79477,0.0321 2.10001,1.24692 2.10001,8.36406 l 0,8.32754 -4.46228,0.37242 c -3.35868,0.28022 -4.89916,1.1544 -6.22864,3.53414 -1.58196,2.83174 -1.55168,3.48928 0.29,6.30001 2.01036,3.06823 2.34972,3.13826 15.20096,3.13826 12.49676,0 13.23632,-0.13991 15.0042,-2.83795 z m 73.55576,1.39801 c 0.79199,-0.79199 1.44,-3.20301 1.44,-5.35777 0,-4.32132 -2.50961,-6.40224 -7.72112,-6.40224 l -3.07888,0 0,-14.99997 0,-15.00002 20.4,0 20.4,0 0,15.00002 0,14.99997 -3.20552,0 c -6.48885,0 -10.25952,7.91238 -5.49449,11.52958 2.78337,2.11283 26.78593,2.30449 28.86003,0.23051 1.591,-1.59104 1.8997,-6.83123 0.5216,-8.85398 -1.292,-1.89644 -8.6816,-5.31307 -8.6816,-4.01404 0,0.60943 -0.54,1.10801 -1.19999,1.10801 -0.66,0 -1.2,-2.42997 -1.2,-5.39998 0,-4.28985 0.4317,-5.42861 2.09999,-5.53921 2,-0.1323 2,-0.16517 0,-0.688 -1.76229,-0.4605 -2.09999,-1.98219 -2.09999,-9.46077 l 0,-8.91203 4.17229,0 c 3.1753,0 4.6637,-0.7499 6.2286,-3.1383 1.8417,-2.81069 1.8719,-3.46827 0.29,-6.29997 -1.3295,-2.37978 -2.8699,-3.25384 -6.2286,-3.53418 l -4.46229,-0.37242 0,-10.72757 c 0,-7.73153 0.4189,-10.75402 1.5,-10.82229 1.19999,-0.0762 1.19999,-0.21568 0,-0.69999 -0.825,-0.33273 -1.5,-2.18026 -1.5,-4.10528 0,-3.18901 0.3672,-3.50002 4.13199,-3.50002 2.9094,0 4.6846,-0.78902 6,-2.66698 2.4688,-3.52475 2.3563,-5.24468 -0.532,-8.13298 -2.0602,-2.06028 -4,-2.40003 -13.70182,-2.40003 -13.14432,0 -14.88356,0.47934 -16.42196,4.52565 -1.74564,4.59135 1.43228,8.67434 6.75148,8.67434 l 4.17232,0 0,15.00002 0,15.00001 -11.47084,0 c -8.82828,0 -11.27572,-0.34556 -10.62392,-1.5 0.67748,-1.20001 0.52364,-1.20001 -0.7692,0 -0.96372,0.8945 -4.90992,1.5 -9.77604,1.5 l -8.16,0 0,-14.83361 0,-14.8336 3.04204,0.58156 c 6.2752,1.19958 10.23824,-6.98468 5.77195,-11.91988 -1.66779,-1.84287 -3.87875,-2.19449 -13.79999,-2.19449 -10.21401,0 -12.13904,0.32512 -14.21401,2.40003 -4.61475,4.61476 -2.18524,10.79996 4.2422,10.79996 l 4.15781,0 0,15.00002 0,15.00001 -3.20552,0 c -3.90104,0 -7.59448,3.10839 -7.59448,6.39149 0,3.57976 3.50259,6.8085 7.386,6.8085 l 3.414,0 0,15.00002 0,14.99997 -3.20552,0 c -6.46797,0 -9.74636,6.43323 -5.60848,11.00554 1.68703,1.86416 3.90871,2.19445 14.75999,2.19445 8.33533,0 13.27437,-0.50034 14.21397,-1.43998 z m 149.97292,-0.42803 c 2.3956,-1.67787 2.6671,-2.89252 2.6671,-11.93199 0,-8.88565 -0.2973,-10.27199 -2.5378,-11.84143 -1.3958,-0.9776 -3.2127,-1.51851 -4.0374,-1.20197 -2.0983,0.80514 -4.2249,5.88882 -4.2249,10.09989 l 0,3.54352 -21.5999,0 -21.6,0 0,-14.99997 0,-15.00002 14.3142,0 c 14.8483,0 18.0858,-1.00494 18.0858,-5.61409 0,-1.1449 0.6815,-1.5811 1.7999,-1.15195 1.1307,0.43388 1.8,-0.012 1.8,-1.20002 0,-1.0963 -0.6821,-1.62896 -1.6235,-1.26772 -0.8929,0.34276 -2.5076,-0.40954 -3.5882,-1.67158 -2.1847,-2.55144 -2.5669,-2.59766 -19.0883,-2.30846 l -11.6999,0.20485 0,-15.09546 0,-15.09551 11.4,0 c 8.2694,0 11.426,0.41195 11.4947,1.50004 0.076,1.19997 0.2156,1.19997 0.7001,0 0.4022,-0.99709 3.388,-1.50004 8.9052,-1.50004 l 8.3,0 0,5.81406 c 0,6.47332 2.8658,10.45284 6.5184,9.05126 3.0224,-1.15985 4.2815,-5.55425 4.2815,-14.94341 0,-13.60761 1.3549,-13.1219 -36.5999,-13.1219 -30.2001,0 -31.9208,0.12067 -34.2,2.40003 -4.6088,4.60875 -1.808,10.79996 4.8856,10.79996 l 3.5143,0 0,14.92397 0,14.924 -3.8625,0.37603 c -2.6835,0.26138 -4.3951,1.32951 -5.6071,3.49938 -1.5942,2.85428 -1.5068,3.50792 1.0148,7.58783 1.9649,3.17939 3.1298,4.09381 4.047,3.1767 0.7083,-0.70833 1.9898,-1.28785 2.8479,-1.28785 1.1976,0 1.5599,3.52047 1.5599,15.157 l 0,15.15704 -4.0413,-0.65585 c -3.8307,-0.62161 -4.122,-0.41131 -5.5904,4.03809 -1.3788,4.17748 -1.3097,4.95845 0.6273,7.09878 2.0778,2.296 3.6777,2.40492 35.3235,2.40492 28.0584,0 33.5563,-0.28663 35.8139,-1.86801 z m -517.29545,-66.33454 c 5.80941,-5.83138 13.02497,-12.26677 16.03464,-14.30083 7.28009,-4.92028 23.64672,-13.11633 31.77904,-15.91424 14.00141,2.12017 8.96508,-3.63279 30.11944,-7.78361 11.40621,-2.2145 20.10953,-13.08097 19.39837,-24.21952 l -0.3688,-5.77926 -14.4,-0.73728 c -7.92,-0.40553 -14.535,-0.81055 -14.7,-0.90003 -0.1648,-0.0898 -0.3,-13.66269 -0.3,-30.1627 l 0,-29.99999 114.6,-0.0481 6.23784,-9.87648 c 7.08416,-11.21645 13.10924,-18.52457 24.34676,-29.53143 9.32192,-9.13055 23.87727,-19.65483 26.037,-18.82608 0.84799,0.32552 2.11159,-0.47308 2.80804,-1.7744 26.782,-16.73281 64.2312,-26.21566 89.9958,-26.33604 l 7.82543,-0.008 1.39441,-7.33739 c 1.94028,-10.2097 7.11835,-15.34642 17.41776,-17.27857 5.60968,-1.05237 8.17239,-3.94553 9.00704,-10.16837 0.51808,-3.86262 0.11239,-5.72049 -1.82032,-8.33451 -1.9338,-2.61563 -2.17148,-3.70528 -1.0684,-4.89856 1.11116,-1.20205 1.05544,-1.32761 -0.25721,-0.57924 -2.86236,1.63201 -14.7064,0.63024 -19.83592,-1.67783 -9.29728,-4.18329 -13.28103,-11.52036 -12.45507,-22.93889 0.8112,-22.68172 36.374,-19.22007 35.52736,-28.60466 -0.2588,-2.17052 -1.328,-3.28013 -3.7896,-3.93342 -7.58141,-2.01209 -10.28208,-8.33764 -5.57108,-13.0487 1.80087,-1.80082 2.4,-4 2.4,-8.80928 0,-13.08947 4.78388,-22.57036 14.16163,-28.06611 11.76328,-6.89373 25.12033,-3.2376 32.1797,8.80836 2.6335,4.49366 3.37769,7.49237 3.80349,15.32686 0.3832,7.05263 1.1158,10.4024 2.6544,12.14017 5.1122,5.77401 4.0402,9.45667 -3.83709,13.18147 -9.23873,4.36862 -7.11641,10.05383 4.12339,11.04555 9.3878,0.82831 18.043,5.19488 22.5341,11.3685 3.5755,4.91487 3.7637,5.7053 3.3832,14.20449 -0.6267,13.99996 -6.2677,19.69692 -21.3118,21.52312 -8.91269,1.08191 -11.74039,2.82818 -13.36607,8.25418 -1.98347,6.62028 0.73813,12.66332 6.56997,14.58802 2.3799,0.7855 4.0434,1.88729 3.6965,2.44849 -0.3468,0.56121 -0.082,1.35953 0.589,1.77409 0.6708,0.41459 1.2196,-0.0361 1.2196,-1.00474 0,-2.35036 3.5195,-1.35985 7.5871,2.13536 3.9277,3.3749 6.8128,9.99967 6.8128,15.64295 l 0,4.23854 10.8001,0 c 5.94,0 10.7999,0.43155 10.7999,0.95904 0,0.52749 1.7551,0.76886 3.9001,0.53643 3.6941,-0.40049 10.0554,0.69225 28.921,4.96698 10.6845,2.42107 31.4687,10.90997 42.4629,17.34328 21.9025,12.81618 40.0414,29.96699 54.1438,51.19426 l 7.9722,12.00002 56.7,-0.25577 56.7,-0.25577 0,5.8675 c 0,4.53892 -0.456,5.95537 -2.0143,6.25556 -1.8857,0.3632 -1.8857,0.5165 0,2.40223 1.7412,1.74109 2.0143,5.03666 2.0143,24.29998 l 0,22.28573 -14.3456,0 -14.3456,0 -0.8096,4.31574 c -1.2018,6.40577 1.45,13.54917 7.143,19.2422 5.1961,5.19609 5.324,5.24524 27.2424,10.45684 19.2878,4.58622 45.6691,16.82417 43.5743,20.21363 -0.5187,0.83917 -0.2844,1.00538 0.625,0.44338 2.598,-1.60563 14.4499,7.93895 25.1382,20.24437 4.7299,5.44544 5.005,5.22187 8.757,-7.11618 1.4049,-4.61998 2.832,-8.88689 3.1711,-9.48205 0.7708,-1.35271 1.0441,-6.06385 1.3641,-23.51793 0.2536,-13.83829 -1.5802,-26.61659 -5.3562,-37.3189 -9.1788,-21.18833 4.9539,7.97536 -9.1788,-21.18833 -6.3746,-13.17093 -10.6083,-26.39466 -12.2919,-38.39275 -0.6565,-4.67751 -0.4909,-5.11355 1.9985,-5.2634 2.6698,-0.16076 2.6675,-0.17238 -0.1412,-0.70388 -2.8316,-0.53591 -2.8496,-0.63717 -2.165,-12.1366 0.9821,-16.49416 1.7352,-20.87701 5.73,-33.34787 3.0344,-9.47275 4.0161,-11.23866 6.8176,-12.2626 2.2263,-0.81368 2.5755,-1.22647 1.092,-1.2909 -2.8662,-0.12427 -1.9866,-2.86137 4.4422,-13.82193 12.8904,-17.31914 27.1459,-32.56117 46.8828,-40.27286 1.0206,0 1.8558,-0.52352 1.8558,-1.16342 0,-0.63989 4.0648,-3.90631 9.033,-7.25881 10.5634,-7.12808 30.8257,-23.30526 35.8916,-28.65549 1.9384,-2.04721 4.2335,-3.72227 5.0999,-3.72227 0.8666,0 1.5756,-0.58843 1.5756,-1.30766 0,-0.71927 2.7417,-4.36425 6.0927,-8.10003 13.6535,-15.22122 23.3097,-32.49274 26.5107,-47.41779 6.7802,-31.61608 -25.8775,-77.41886 -80.6035,-113.04693 -6.93,-4.51158 -12.87,-8.51587 -13.1999,-8.8984 -0.3301,-0.38245 -2.9882,-1.74959 -5.907,-3.03796 -2.9189,-1.28833 -6.5449,-3.67741 -8.0579,-5.30906 -1.5129,-1.63165 -3.0769,-2.64048 -3.4755,-2.24188 -32.4134,-22.28607 -32.0576,-14.42187 -57.786,-23.94835 -45.0482,-16.70096 -89.2213,-28.38799 -144.2161,-38.15579 -32.1378,-8.6062 -51.8576,-8.3504 -90.1566,-13.0283 -2.3101,-0.2812 -9.4767,-0.8957 -15.9259,-1.3659 -6.4492,-0.4703 -12.0216,-1.3335 -12.3829,-1.9182 -0.3616,-0.5848 -1.155,-0.7554 -1.7636,-0.3792 -0.6086,0.376 -12.8564,-0.1692 -27.2172,-1.2115 -68.09718,-4.9432 -120.61267,-3.807 -197.62431,4.2755 -12.49263,1.3111 -23.42764,2.11 -24.29999,1.7752 -8.46325,2.1513 -15.91396,2.8618 -22.90684,3.4388 -2.1564,0.1751 -4.27141,0.6693 -4.7,1.0979 -0.4286,0.4286 -2.17428,0.7819 -3.87929,0.785 -4.75119,0.01 -52.42291,8.9493 -73.24231,13.736 -38.99609,8.9658 -80.06512,21.69217 -110.45769,34.22825 -43.22935,19.02339 -88.43787,44.29744 -119.82923,73.79207 -18.94489,21.7281 -45.46841,49.44676 -41.07912,76.57804 1.64304,9.94884 5.47791,19.71388 11.34212,28.88107 2.40144,3.75403 4.36623,7.033 4.36623,7.28656 0,0.80294 7.48717,9.31721 16.8,19.10481 10.79052,11.34056 29.77265,26.85191 46.20001,37.75261 6.6,4.37949 12.27,8.24901 12.59999,8.59886 0.33001,0.34998 3.6306,2.14835 7.33473,3.99668 24.7842,12.36711 44.17371,41.31357 51.60423,77.03942 0.82361,3.96 1.45224,14.21997 1.39688,22.79998 -0.12919,20.05528 -3.30719,32.8086 -13.15671,52.80001 -11.52032,23.3826 -15.49364,40.4837 -14.47553,62.30247 0.3592,7.69807 1.71837,17.59271 3.22765,23.49753 2.28104,8.92421 4.9528,16.79999 5.69915,16.79999 0.1344,0 4.99769,-4.77111 10.80708,-10.60253 z"
       id="path5083"
       inkscape:connector-curvature="0"
       sodipodi:nodetypes="cccccscccsssssscsssssscssscccsssssscssscscssssscccccccscsscssscssssssscscsssssscsssssscccsscsscssscccssccsssssssscsssssccssscsscssscssssssssscssssscsssssccsssssssssscsccsscccsscsssccscccsssssscscssccsscssccsscsccsssccsssscssscsssscsssssccscssccsssccsssccssscsscccssccsssssssscssscssscssscsccsccsssscsscsssssscscccsscsssscssssscscsscscsssscccsssssssssccssccccccscssssssssssssscscsssscssssccccscccccccssssssscscsssccsscscsscsssccssscccccscsscccccsscsscsccssssscscccscssccssccccccccscssscsccccscsscsccccscsscccccccssccscccssssccccscssssscccscssccccsccssccscscccccccsscssscccsscsccscscscsscccccccsssssssccscsscscsccssssssscccscssccccsscscccssscccssssssccscccccsscscsscccsccscsssssscccsccssscsssscccccccscsccssccccssscscsccscssscssssssssccssscsssssscccscsscccsssccssccccsccssscccsssssssscssccccscccsccscscccsssscsscssssc" />
    <path
       style="fill:none;fill-opacity:1;stroke:#00f400;stroke-width:3.97642708;stroke-miterlimit:4;stroke-dasharray:none;stroke-opacity:1"
       d="M 1819.8288,-185.52068 A 898.01176,898.01178 0 0 1 921.81712,712.4911 898.01176,898.01178 0 0 1 23.805351,-185.52068 898.01176,898.01178 0 0 1 921.81712,-1083.5325 898.01176,898.01178 0 0 1 1819.8288,-185.52068 Z"
       id="path5104"
       inkscape:connector-curvature="0" />
    <path
       style="fill:none;fill-opacity:1;stroke:#00f400;stroke-width:1.46963978;stroke-miterlimit:4;stroke-dasharray:none;stroke-opacity:1"
       d="m 3667.6172,-188.12149 a 899.2652,899.2652 0 0 1 -899.2651,899.2652 899.2652,899.2652 0 0 1 -899.2652,-899.2652 899.2652,899.2652 0 0 1 899.2652,-899.26521 899.2652,899.2652 0 0 1 899.2651,899.26521 z"
       id="path5767" />
  </g>
</svg>
