<?xml version="1.0" encoding="UTF-8" standalone="no"?>
<!-- Created with Inkscape (http://www.inkscape.org/) -->

<svg
   xmlns:dc="http://purl.org/dc/elements/1.1/"
   xmlns:cc="http://creativecommons.org/ns#"
   xmlns:rdf="http://www.w3.org/1999/02/22-rdf-syntax-ns#"
   xmlns:svg="http://www.w3.org/2000/svg"
   xmlns="http://www.w3.org/2000/svg"
   xmlns:sodipodi="http://sodipodi.sourceforge.net/DTD/sodipodi-0.dtd"
   xmlns:inkscape="http://www.inkscape.org/namespaces/inkscape"
   width="210mm"
   height="297mm"
   viewBox="0 0 744.09448819 1052.3622047"
   id="svg2"
   version="1.1"
   inkscape:version="0.91 r13725"
   sodipodi:docname="voronoicircle.svg">
  <sodipodi:namedview
     id="base"
     pagecolor="#ffffff"
     bordercolor="#666666"
     borderopacity="1.0"
     inkscape:pageopacity="0.0"
     inkscape:pageshadow="2"
     inkscape:zoom="1"
     inkscape:cx="370.04724"
     inkscape:cy="770.97861"
     inkscape:document-units="px"
     inkscape:current-layer="layer1"
     showgrid="false"
     inkscape:window-width="1280"
     inkscape:window-height="751"
     inkscape:window-x="0"
     inkscape:window-y="1"
     inkscape:window-maximized="1" />
  <defs
     id="defs4">
    <pattern
       patternUnits="userSpaceOnUse"
       patternTransform="translate(70.928558,89.005066)"
       height="581.0"
       width="552.42859"
       id="Voronoi8326">
      <path
         id="path4141"
         style="stroke:#000000"
         d="M 81.390,13.497 91.070,0.000 M 176.020,0.000 189.929,19.198 M 189.929,19.198 213.261,12.782 M 213.261,12.782 222.529,0.000 M 213.261,12.782 223.255,36.582 M 412.714,0.000 428.245,22.638 M 81.390,13.497 93.965,45.755 M 381.287,14.013 384.649,0.000 M 223.255,36.582 239.460,41.008 M 239.460,41.008 261.754,0.000 M 411.957,59.920 428.245,22.638 M 350.405,50.671 381.287,14.013 M 500.231,31.961 526.342,42.919 M 350.405,50.671 352.817,57.222 M 381.287,14.013 387.235,49.853 M 387.235,49.853 411.957,59.920 M 190.827,46.708 223.255,36.582 M 189.353,46.110 189.929,19.198 M 189.353,46.110 190.827,46.708 M 493.762,40.411 500.231,31.961 M 309.631,0.000 325.931,55.954 M 325.931,55.954 350.405,50.671 M 73.076,58.036 93.965,45.755 M 324.529,58.283 325.931,55.954 M 239.460,41.008 243.025,55.192 M 190.827,46.708 204.892,64.592 M 204.892,64.592 243.025,55.192 M 34.866,37.635 81.390,13.497 M 34.866,37.635 73.076,58.036 M 428.245,22.638 455.590,54.083 M 93.965,45.755 135.585,51.060 M 133.418,0.000 135.585,51.060 M 455.590,54.083 465.918,55.889 M 465.918,55.889 493.762,40.411 M 276.207,67.389 282.305,65.798 M 282.305,65.798 290.239,0.000 M 282.305,65.798 282.904,66.111 M 282.904,66.111 296.069,70.974 M 296.069,70.974 324.529,58.283 M 324.529,58.283 337.083,83.132 M 337.083,83.132 352.817,57.222 M 385.779,76.163 387.235,49.853 M 385.779,76.163 389.360,78.249 M 243.025,55.192 253.060,70.134 M 253.060,70.134 276.207,67.389 M 274.951,99.039 276.207,67.389 M 274.951,99.039 282.934,101.976 M 282.904,66.111 282.934,101.976 M 526.342,42.919 548.330,79.830 M 352.817,57.222 365.172,85.440 M 365.172,85.440 385.779,76.163 M 411.957,59.920 424.625,83.459 M 424.625,83.459 455.590,54.083 M 389.360,78.249 424.490,83.667 M 424.490,83.667 424.625,83.459 M 135.585,51.060 142.702,65.624 M 142.702,65.624 189.353,46.110 M 204.892,64.592 208.601,92.247 M 493.762,40.411 522.705,91.329 M 522.705,91.329 548.330,79.830 M 142.063,71.367 142.702,65.624 M 142.063,71.367 194.107,94.948 M 194.107,94.948 205.138,94.957 M 205.138,94.957 208.601,92.247 M 296.069,70.974 308.785,99.098 M 208.601,92.247 241.498,91.718 M 241.498,91.718 253.060,70.134 M 45.102,96.372 79.407,94.243 M 79.407,94.243 84.476,92.750 M 73.076,58.036 84.476,92.750 M 136.416,82.031 142.063,71.367 M 134.070,84.458 136.416,82.031 M 241.498,91.718 246.228,104.309 M 64.660,123.495 79.407,94.243 M 134.070,84.458 136.017,104.469 M 352.888,100.940 365.172,85.440 M 84.476,92.750 98.843,98.122 M 98.843,98.122 134.070,84.458 M 246.228,104.309 255.958,112.513 M 255.958,112.513 274.951,99.039 M 175.799,121.351 194.107,94.948 M 136.416,82.031 172.157,121.177 M 172.157,121.177 175.799,121.351 M 337.083,83.132 345.957,103.355 M 345.957,103.355 352.888,100.940 M 308.785,99.098 345.160,104.101 M 345.160,104.101 345.957,103.355 M 45.102,96.372 53.926,125.619 M 53.926,125.619 64.660,123.495 M 282.934,101.976 293.773,117.621 M 293.773,117.621 308.785,99.098 M 343.317,114.109 345.160,104.101 M 424.490,83.667 427.965,112.235 M 389.360,78.249 396.380,120.962 M 255.958,112.513 264.222,123.118 M 465.918,55.889 481.490,110.342 M 352.888,100.940 389.860,123.677 M 389.860,123.677 396.380,120.962 M 481.490,110.342 508.806,112.629 M 508.806,112.629 522.705,91.329 M 396.380,120.962 420.409,120.137 M 420.409,120.137 427.965,112.235 M 95.712,126.432 98.843,98.122 M 64.660,123.495 79.398,135.654 M 79.398,135.654 95.712,126.432 M 427.965,112.235 470.823,118.725 M 470.823,118.725 481.490,110.342 M 328.205,134.452 343.317,114.109 M 288.345,130.710 293.773,117.621 M 288.345,130.710 328.205,134.452 M 468.607,136.234 470.823,118.725 M 264.222,123.118 286.740,132.105 M 286.740,132.105 288.345,130.710 M 381.257,145.163 389.860,123.677 M 205.138,94.957 207.423,139.513 M 207.423,139.513 217.412,141.535 M 217.412,141.535 246.228,104.309 M 175.799,121.351 201.796,141.787 M 201.796,141.787 207.423,139.513 M 115.566,148.368 136.017,104.469 M 95.712,126.432 110.582,147.923 M 110.582,147.923 115.566,148.368 M 343.317,114.109 365.249,151.029 M 365.249,151.029 381.257,145.163 M 364.133,152.618 365.249,151.029 M 508.806,112.629 526.823,138.984 M 136.017,104.469 149.974,149.234 M 149.974,149.234 150.507,149.404 M 150.507,149.404 172.157,121.177 M 115.566,148.368 131.014,154.071 M 131.014,154.071 149.974,149.234 M 217.412,141.535 234.961,155.862 M 234.961,155.862 264.222,123.118 M 420.409,120.137 425.373,159.005 M 425.373,159.005 468.607,136.234 M 540.154,167.184 552.429,150.701 M 526.823,138.984 552.429,149.280 M 39.770,157.104 53.926,125.619 M 92.975,170.500 110.582,147.923 M 234.961,155.862 239.298,165.125 M 286.325,163.998 286.740,132.105 M 239.298,165.125 247.051,170.099 M 247.051,170.099 286.325,163.998 M 490.319,173.139 526.823,138.984 M 468.607,136.234 478.280,171.479 M 92.975,170.500 125.699,185.762 M 125.699,185.762 131.014,154.071 M 39.770,157.104 56.145,167.633 M 56.145,167.633 79.398,135.654 M 478.280,171.479 482.742,173.892 M 482.742,173.892 490.319,173.139 M 364.133,152.618 383.586,186.578 M 519.557,190.017 540.154,167.184 M 490.319,173.139 511.480,189.269 M 511.480,189.269 519.557,190.017 M 150.507,149.404 175.953,172.063 M 175.953,172.063 201.796,141.787 M 383.586,186.578 385.253,187.021 M 328.205,134.452 333.501,174.287 M 333.501,174.287 364.133,152.618 M 286.325,163.998 297.277,175.880 M 383.649,194.874 385.253,187.021 M 481.343,191.033 482.742,173.892 M 385.253,187.021 415.023,178.088 M 381.257,145.163 415.023,178.088 M 432.397,183.347 478.280,171.479 M 481.343,191.033 485.464,205.045 M 485.464,205.045 486.335,205.771 M 415.023,178.088 420.649,178.990 M 420.649,178.990 425.373,159.005 M 486.335,205.771 505.217,208.397 M 505.217,208.397 511.480,189.269 M 432.397,183.347 461.376,209.011 M 461.376,209.011 481.343,191.033 M 420.649,178.990 424.114,183.055 M 424.114,183.055 432.397,183.347 M 201.949,194.969 239.298,165.125 M 56.145,167.633 66.836,183.359 M 66.836,183.359 92.975,170.500 M 519.557,190.017 534.271,207.395 M 534.271,207.395 537.157,207.808 M 537.157,207.808 540.154,167.184 M 537.157,207.808 541.382,208.898 M 422.102,203.675 424.114,183.055 M 0.000,36.582 34.866,37.635 M 0.000,80.659 45.102,96.372 M 383.649,194.874 390.764,221.671 M 390.764,221.671 422.102,203.675 M 201.949,194.969 249.499,211.429 M 247.051,170.099 249.499,211.429 M 505.217,208.397 510.411,222.450 M 486.335,205.771 493.154,226.377 M 493.154,226.377 510.411,222.450 M 297.277,175.880 324.300,192.598 M 324.300,192.598 333.501,174.287 M 324.300,192.598 324.317,192.650 M 324.317,192.650 383.586,186.578 M 175.953,172.063 178.104,197.015 M 510.411,222.450 513.659,224.035 M 513.659,224.035 534.271,207.395 M 178.104,197.015 181.613,199.674 M 181.613,199.674 201.949,194.969 M 249.499,211.429 251.047,214.152 M 251.047,214.152 297.277,175.880 M 386.862,226.543 390.764,221.671 M 251.047,214.152 251.239,215.105 M 251.239,215.105 271.287,222.986 M 125.699,185.762 135.504,209.922 M 135.504,209.922 178.104,197.015 M 66.836,183.359 67.410,204.285 M 461.376,209.011 464.987,227.053 M 464.987,227.053 485.464,205.045 M 324.317,192.650 324.492,206.595 M 271.287,222.986 323.496,207.678 M 323.496,207.678 324.492,206.595 M 312.269,236.818 323.496,207.678 M 236.257,237.870 251.239,215.105 M 67.410,204.285 78.794,221.851 M 324.492,206.595 358.536,233.319 M 358.536,233.319 383.649,194.874 M 312.269,236.818 323.444,257.564 M 301.564,248.205 312.269,236.818 M 301.564,248.205 303.089,252.130 M 358.536,233.319 359.858,234.870 M 359.858,234.870 386.862,226.543 M 359.858,234.870 360.220,237.243 M 462.633,241.049 464.987,227.053 M 422.102,203.675 434.225,240.441 M 434.225,240.441 462.633,241.049 M 359.001,243.900 360.220,237.243 M 78.794,221.851 99.959,230.352 M 99.959,230.352 115.183,231.676 M 115.183,231.676 135.504,209.922 M 462.633,241.049 471.658,247.063 M 471.658,247.063 493.154,226.377 M 427.202,248.058 434.225,240.441 M 386.862,226.543 418.976,251.519 M 418.976,251.519 427.202,248.058 M 52.656,254.054 78.794,221.851 M 271.287,222.986 279.896,257.344 M 279.896,257.344 301.564,248.205 M 303.089,252.130 303.575,274.906 M 323.444,257.564 345.845,264.807 M 345.845,264.807 359.001,243.900 M 6.369,250.493 52.656,254.054 M 217.276,249.681 236.257,237.870 M 297.665,275.902 303.575,274.906 M 181.613,199.674 198.112,246.969 M 198.112,246.969 217.276,249.681 M 303.089,252.130 316.828,274.455 M 316.828,274.455 323.444,257.564 M 471.658,247.063 477.916,257.002 M 360.220,237.243 406.275,263.615 M 406.275,263.615 418.976,251.519 M 236.257,237.870 275.693,263.621 M 275.693,263.621 279.896,257.344 M 344.797,270.807 345.845,264.807 M 275.487,265.273 275.693,263.621 M 275.487,265.273 297.665,275.902 M 303.575,274.906 316.914,277.104 M 316.828,274.455 316.914,277.104 M 0.000,218.761 67.410,204.285 M 0.000,246.342 6.369,250.493 M 272.123,271.411 275.487,265.273 M 477.916,257.002 527.335,262.178 M 513.659,224.035 527.335,262.178 M 316.914,277.104 320.524,282.101 M 320.524,282.101 344.797,270.807 M 344.797,270.807 352.219,283.955 M 115.183,231.676 134.721,263.469 M 124.080,278.382 134.721,263.469 M 83.334,283.918 99.959,230.352 M 83.334,283.918 124.080,278.382 M 134.721,263.469 154.177,270.461 M 217.276,249.681 236.256,280.475 M 236.256,280.475 272.123,271.411 M 272.123,271.411 275.768,288.899 M 154.177,270.461 176.290,271.107 M 176.290,271.107 198.112,246.969 M 352.219,283.955 383.871,287.172 M 359.001,243.900 383.871,287.172 M 263.098,301.397 275.768,288.899 M 146.834,303.168 154.177,270.461 M 527.335,262.178 539.148,269.495 M 539.148,269.495 541.382,208.898 M 176.290,271.107 181.281,284.787 M 539.148,269.495 541.595,271.870 M 297.665,275.902 299.044,304.108 M 116.438,304.672 124.080,278.382 M 116.438,304.672 146.834,303.168 M 275.768,288.899 294.731,305.033 M 294.731,305.033 299.044,304.108 M 233.483,300.069 236.256,280.475 M 294.253,305.745 294.731,305.033 M 383.871,287.172 394.870,293.726 M 394.870,293.726 406.275,263.615 M 233.483,300.069 237.418,304.934 M 237.418,304.934 263.098,301.397 M 299.044,304.108 317.744,304.948 M 317.744,304.948 320.524,282.101 M 317.744,304.948 318.901,306.026 M 237.418,304.934 238.269,308.617 M 263.098,301.397 272.708,319.833 M 272.708,319.833 294.253,305.745 M 181.281,284.787 197.758,306.862 M 197.758,306.862 233.483,300.069 M 513.990,305.148 541.595,271.870 M 318.901,306.026 332.569,314.235 M 332.569,314.235 339.158,315.017 M 339.158,315.017 352.219,283.955 M 394.870,293.726 398.360,305.877 M 398.360,305.877 400.676,306.963 M 154.524,324.722 181.281,284.787 M 339.158,315.017 346.586,320.096 M 427.202,248.058 451.541,308.312 M 400.676,306.963 432.965,313.371 M 432.965,313.371 451.541,308.312 M 146.834,303.168 150.378,326.664 M 150.378,326.664 154.524,324.722 M 154.524,324.722 194.638,325.149 M 194.638,325.149 197.758,306.862 M 451.541,308.312 463.708,309.070 M 463.708,309.070 477.916,257.002 M 61.425,308.060 83.334,283.918 M 52.656,254.054 59.671,308.006 M 59.671,308.006 61.425,308.060 M 346.586,320.096 373.975,323.660 M 373.975,323.660 398.360,305.877 M 541.382,208.898 552.429,206.014 M 513.990,305.148 532.385,336.998 M 463.708,309.070 473.967,317.252 M 473.967,317.252 513.990,305.148 M 473.967,317.252 475.856,327.304 M 105.035,327.176 116.438,304.672 M 515.402,349.374 532.385,336.998 M 105.035,327.176 142.766,336.149 M 142.766,336.149 150.378,326.664 M 61.425,308.060 103.368,327.725 M 103.368,327.725 105.035,327.176 M 6.369,250.493 36.326,319.721 M 36.326,319.721 59.671,308.006 M 373.975,323.660 374.680,347.596 M 35.228,320.878 36.326,319.721 M 238.269,308.617 261.836,341.989 M 261.836,341.989 272.708,319.833 M 475.856,327.304 494.971,352.032 M 494.971,352.032 515.402,349.374 M 292.281,351.918 294.253,305.745 M 292.281,351.918 318.901,306.026 M 494.844,361.465 494.971,352.032 M 211.431,352.229 238.269,308.617 M 426.439,362.823 432.965,313.371 M 35.228,320.878 53.880,365.710 M 194.638,325.149 202.717,354.467 M 202.717,354.467 211.431,352.229 M 400.676,306.963 406.099,366.273 M 406.099,366.273 426.439,362.823 M 211.431,352.229 263.549,354.251 M 261.836,341.989 263.549,354.251 M 374.680,347.596 402.512,368.471 M 402.512,368.471 406.099,366.273 M 142.766,336.149 156.060,362.596 M 156.060,362.596 196.243,364.555 M 196.243,364.555 202.717,354.467 M 426.439,362.823 447.072,375.507 M 447.072,375.507 475.856,327.304 M 397.276,380.888 402.512,368.471 M 95.830,375.012 103.368,327.725 M 53.880,365.710 73.779,381.101 M 73.779,381.101 79.310,381.409 M 79.310,381.409 95.830,375.012 M 344.807,378.645 374.680,347.596 M 196.243,364.555 200.268,379.963 M 140.297,384.501 156.060,362.596 M 336.128,377.867 346.586,320.096 M 336.128,377.867 344.807,378.645 M 196.557,391.792 200.268,379.963 M 95.830,375.012 121.445,390.473 M 121.445,390.473 140.297,384.501 M 140.297,384.501 157.171,404.321 M 157.171,404.321 196.557,391.792 M 344.807,378.645 370.094,395.072 M 370.094,395.072 397.276,380.888 M 79.310,381.409 83.166,414.500 M 196.557,391.792 197.034,408.765 M 263.549,354.251 286.075,377.929 M 286.075,377.929 292.281,351.918 M 200.268,379.963 250.821,400.976 M 45.794,412.175 73.779,381.101 M 9.072,400.072 53.880,365.710 M 9.072,400.072 45.794,412.175 M 515.402,349.374 544.945,397.397 M 494.844,361.465 543.126,398.252 M 543.126,398.252 544.945,397.397 M 471.565,403.190 494.844,361.465 M 45.794,412.175 50.648,421.893 M 50.648,421.893 83.166,414.500 M 250.821,400.976 271.870,398.833 M 286.075,377.929 291.936,388.351 M 291.936,388.351 332.569,314.235 M 200.830,431.007 207.257,426.368 M 197.034,408.765 207.257,426.368 M 447.072,375.507 459.565,405.786 M 459.565,405.786 471.565,403.190 M 157.171,404.321 161.347,426.852 M 161.347,426.852 197.034,408.765 M 271.870,398.833 292.105,388.847 M 291.936,388.351 292.105,388.847 M 292.105,388.847 292.119,388.855 M 292.119,388.855 336.128,377.867 M 207.257,426.368 214.838,430.087 M 214.838,430.087 250.821,400.976 M 471.565,403.190 521.421,415.837 M 521.421,415.837 543.126,398.252 M 115.855,433.568 121.445,390.473 M 187.519,453.960 200.830,431.007 M 292.119,388.855 306.462,425.238 M 157.402,439.543 161.347,426.852 M 157.402,439.543 200.830,431.007 M 115.855,433.568 156.109,441.715 M 156.109,441.715 157.402,439.543 M 370.094,395.072 377.012,436.154 M 187.519,453.960 223.339,449.314 M 214.838,430.087 223.339,449.314 M 50.648,421.893 55.125,447.789 M 245.038,453.768 271.870,398.833 M 520.238,446.134 521.421,415.837 M 83.166,414.500 102.425,442.890 M 102.425,442.890 115.855,433.568 M 439.467,432.516 459.565,405.786 M 397.276,380.888 437.610,432.953 M 437.610,432.953 439.467,432.516 M 306.462,425.238 359.230,447.417 M 359.230,447.417 377.012,436.154 M 544.945,397.397 552.429,395.343 M 532.385,336.998 552.429,342.798 M 377.012,436.154 420.728,443.048 M 420.728,443.048 437.610,432.953 M 223.339,449.314 230.121,459.125 M 230.121,459.125 245.038,453.768 M 357.716,458.156 359.230,447.417 M 156.109,441.715 162.969,459.515 M 160.169,462.977 162.969,459.515 M 162.969,459.515 175.009,464.397 M 175.009,464.397 187.519,453.960 M 55.125,447.789 59.850,456.099 M 245.038,453.768 277.960,467.060 M 417.482,460.923 420.728,443.048 M 59.850,456.099 94.236,455.693 M 94.236,455.693 102.425,442.890 M 250.512,487.249 277.960,467.060 M 23.907,473.774 47.479,471.772 M 47.479,471.772 59.850,456.099 M 277.960,467.060 292.415,468.697 M 292.415,468.697 306.462,425.238 M 344.570,479.891 357.716,458.156 M 160.169,462.977 162.862,496.303 M 357.716,458.156 383.802,488.783 M 383.802,488.783 417.482,460.923 M 439.467,432.516 476.603,470.955 M 476.603,470.955 498.704,473.106 M 498.704,473.106 520.238,446.134 M 14.001,495.290 23.907,473.774 M 0.000,433.194 55.125,447.789 M 0.000,458.405 23.907,473.774 M 498.704,473.106 507.615,487.961 M 162.862,496.303 186.148,499.282 M 94.236,455.693 108.213,486.601 M 186.148,499.282 189.465,498.518 M 108.213,486.601 126.648,492.127 M 126.648,492.127 160.169,462.977 M 189.465,498.518 200.277,489.985 M 175.009,464.397 200.277,489.985 M 457.643,503.186 476.603,470.955 M 323.145,496.672 344.570,479.891 M 95.095,503.436 108.213,486.601 M 0.000,400.165 9.072,400.072 M 14.001,495.290 17.565,511.655 M 200.277,489.985 218.595,492.094 M 218.595,492.094 230.121,459.125 M 218.595,492.094 218.667,492.190 M 218.667,492.190 250.512,487.249 M 417.482,460.923 424.951,504.428 M 126.648,492.127 139.355,510.017 M 139.355,510.017 162.862,496.303 M 424.951,504.428 451.852,509.290 M 451.852,509.290 457.643,503.186 M 250.512,487.249 289.734,504.927 M 505.319,515.017 507.615,487.961 M 457.643,503.186 500.546,518.036 M 500.546,518.036 505.319,515.017 M 289.734,504.927 303.160,499.011 M 292.415,468.697 303.160,499.011 M 344.570,479.891 382.587,512.946 M 382.587,512.946 383.802,488.783 M 505.319,515.017 514.608,522.936 M 303.160,499.011 309.383,502.549 M 309.383,502.549 323.145,496.672 M 139.355,510.017 142.305,518.777 M 95.095,503.436 111.707,534.996 M 111.707,534.996 142.305,518.777 M 142.305,518.777 147.156,524.095 M 147.156,524.095 186.148,499.282 M 309.383,502.549 314.192,517.611 M 218.667,492.190 228.614,517.630 M 109.323,540.990 111.707,534.996 M 323.145,496.672 384.905,522.228 M 382.587,512.946 384.905,522.228 M 47.479,471.772 57.428,526.118 M 57.428,526.118 95.095,503.436 M 147.156,524.095 155.802,541.299 M 244.748,534.883 289.734,504.927 M 228.614,517.630 244.593,534.922 M 244.593,534.922 244.748,534.883 M 155.802,541.299 174.707,546.296 M 174.707,546.296 189.465,498.518 M 384.905,522.228 390.378,532.636 M 390.378,532.636 424.951,504.428 M 174.707,546.296 175.482,546.833 M 175.482,546.833 228.614,517.630 M 242.566,543.188 244.593,534.922 M 0.000,331.957 35.228,320.878 M 314.192,517.611 385.706,541.353 M 385.706,541.353 389.005,540.661 M 389.005,540.661 390.378,532.636 M 109.323,540.990 134.958,563.430 M 134.958,563.430 155.802,541.299 M 451.852,509.290 466.845,554.941 M 466.845,554.941 500.546,518.036 M 17.565,511.655 47.731,546.428 M 47.731,546.428 57.428,526.118 M 244.748,534.883 312.538,563.723 M 312.538,563.723 314.192,517.611 M 312.538,563.723 317.107,577.209 M 317.107,577.209 385.706,541.353 M 45.608,570.409 47.731,546.428 M 45.608,570.409 109.323,540.990 M 507.615,487.961 552.429,495.552 M 520.238,446.134 552.429,461.767 M 242.566,543.188 283.484,581.000 M 316.405,581.000 317.107,577.209 M 175.482,546.833 194.701,581.000 M 224.390,581.000 242.566,543.188 M 389.005,540.661 415.454,581.000 M 463.824,581.000 466.845,554.941 M 489.076,581.000 514.608,522.936 M 541.595,271.870 552.429,273.075 M 0.000,148.022 39.770,157.104 M 0.000,493.446 14.001,495.290 M 548.330,79.830 552.429,79.870 M 0.000,393.624 0.000,393.624 M 0.000,511.879 17.565,511.655 M 42.144,581.000 45.608,570.409 M 129.498,581.000 134.958,563.430 M 514.608,522.936 552.429,545.775 M 526.342,42.919 552.429,36.430 M 500.231,31.961 504.530,0.000 " />
    </pattern>
    <pattern
       id="Voronoi95"
       width="561.0"
       height="655.28571"
       patternTransform="translate(36.642857,57.576469)"
       patternUnits="userSpaceOnUse">
      <path
         d="M 318.817,0.000 318.863,0.436 M 228.184,12.962 232.295,0.000 M 318.863,0.436 319.370,17.094 M 228.184,12.962 228.714,22.247 M 318.863,0.436 379.074,10.942 M 228.714,22.247 239.760,37.179 M 264.763,0.000 275.161,23.769 M 379.074,10.942 384.225,0.000 M 239.760,37.179 253.693,40.204 M 253.693,40.204 275.161,23.769 M 69.758,24.991 70.865,0.000 M 275.161,23.769 284.848,31.612 M 284.848,31.612 319.370,17.094 M 214.440,44.195 228.714,22.247 M 69.758,24.991 113.317,30.896 M 113.317,30.896 140.633,0.000 M 59.819,36.262 69.758,24.991 M 370.390,31.862 379.074,10.942 M 319.370,17.094 342.898,38.870 M 284.848,31.612 287.648,47.989 M 155.915,0.000 173.059,35.968 M 173.059,35.968 228.184,12.962 M 342.898,38.870 352.156,40.199 M 352.156,40.199 370.390,31.862 M 59.819,36.262 64.570,50.510 M 214.440,44.195 231.314,60.528 M 231.314,60.528 239.760,37.179 M 287.648,47.989 316.305,58.737 M 316.305,58.737 342.898,38.870 M 64.570,50.510 106.600,61.002 M 106.600,61.002 114.967,56.841 M 113.317,30.896 114.967,56.841 M 370.390,31.862 395.265,57.848 M 380.111,76.274 395.265,57.848 M 173.059,35.968 175.869,50.327 M 175.869,50.327 214.440,44.195 M 114.967,56.841 125.805,65.587 M 395.265,57.848 404.106,61.616 M 404.106,61.616 447.999,0.000 M 404.106,61.616 405.568,63.277 M 315.792,74.143 316.305,58.737 M 0.000,33.211 59.819,36.262 M 0.000,46.327 14.201,64.817 M 92.812,79.506 106.600,61.002 M 174.671,57.001 175.869,50.327 M 283.980,78.437 315.792,74.143 M 125.805,65.587 171.255,59.638 M 171.255,59.638 174.671,57.001 M 461.822,61.320 464.432,0.000 M 174.671,57.001 186.354,68.458 M 273.611,72.159 287.648,47.989 M 273.611,72.159 283.980,78.437 M 315.792,74.143 319.225,81.864 M 351.576,79.464 352.156,40.199 M 351.576,79.464 355.260,82.185 M 355.260,82.185 380.111,76.274 M 401.625,87.708 405.568,63.277 M 405.568,63.277 440.767,74.066 M 440.767,74.066 461.822,61.320 M 380.111,76.274 382.179,94.448 M 382.179,94.448 401.625,87.708 M 319.225,81.864 331.480,90.039 M 331.480,90.039 351.576,79.464 M 92.812,79.506 124.687,91.552 M 124.687,91.552 125.805,65.587 M 253.693,40.204 255.325,79.249 M 255.325,79.249 273.611,72.159 M 14.201,64.817 63.726,82.896 M 63.726,82.896 64.570,50.510 M 186.354,68.458 237.551,80.045 M 231.314,60.528 237.551,80.045 M 283.980,78.437 297.846,98.612 M 297.846,98.612 319.225,81.864 M 237.551,80.045 245.343,87.243 M 245.343,87.243 255.325,79.249 M 461.822,61.320 494.443,88.301 M 124.687,91.552 126.397,102.998 M 297.067,110.192 297.846,98.612 M 355.260,82.185 371.051,109.370 M 371.051,109.370 382.179,94.448 M 126.397,102.998 152.411,107.994 M 152.411,107.994 171.255,59.638 M 63.726,82.896 69.018,98.820 M 69.018,98.820 92.812,79.506 M 107.922,116.245 126.397,102.998 M 494.443,88.301 501.904,104.426 M 501.904,104.426 502.796,104.697 M 186.354,68.458 198.455,120.582 M 198.455,120.582 242.604,115.382 M 242.604,115.382 245.343,87.243 M 297.067,110.192 329.421,127.053 M 329.421,127.053 331.480,90.039 M 87.182,122.113 107.922,116.245 M 67.660,116.500 69.018,98.820 M 67.660,116.500 87.182,122.113 M 430.681,125.456 440.767,74.066 M 401.625,87.708 419.442,127.139 M 419.442,127.139 430.681,125.456 M 242.604,115.382 253.053,129.044 M 253.053,129.044 297.067,110.192 M 14.201,64.817 33.248,129.360 M 253.053,129.044 254.463,135.185 M 87.182,122.113 105.558,156.868 M 152.411,107.994 174.002,137.725 M 174.002,137.725 198.455,120.582 M 430.681,125.456 459.320,138.372 M 459.320,138.372 501.904,104.426 M 254.463,135.185 336.987,140.381 M 329.421,127.053 336.987,140.381 M 33.248,129.360 43.000,132.294 M 43.000,132.294 67.660,116.500 M 173.036,141.371 174.002,137.725 M 254.463,135.185 255.277,154.565 M 43.000,132.294 46.004,158.742 M 107.922,116.245 153.333,159.997 M 153.333,159.997 173.036,141.371 M 378.942,148.504 419.442,127.139 M 378.942,148.504 436.628,180.469 M 75.808,179.218 105.558,156.868 M 436.628,180.469 465.097,164.225 M 459.320,138.372 465.097,164.225 M 173.036,141.371 210.292,175.363 M 210.292,175.363 255.277,154.565 M 307.818,162.686 346.859,151.961 M 336.987,140.381 346.859,151.961 M 255.277,154.565 262.453,164.880 M 262.453,164.880 307.818,162.686 M 75.808,179.218 88.391,189.074 M 371.051,109.370 372.388,150.266 M 372.388,150.266 372.973,150.382 M 372.973,150.382 378.942,148.504 M 346.859,151.961 352.295,154.742 M 352.295,154.742 372.388,150.266 M 46.004,158.742 54.390,175.487 M 54.390,175.487 75.808,179.218 M 428.402,194.891 436.628,180.469 M 262.453,164.880 264.445,179.679 M 262.435,183.483 264.445,179.679 M 420.006,198.247 428.402,194.891 M 264.445,179.679 286.119,196.303 M 88.391,189.074 134.767,177.220 M 105.558,156.868 134.767,177.220 M 286.119,196.303 297.073,198.366 M 297.073,198.366 307.818,162.686 M 465.097,164.225 479.641,180.769 M 260.027,206.307 262.435,183.483 M 88.391,189.074 90.760,207.127 M 76.132,211.098 90.760,207.127 M 134.767,177.220 141.211,179.417 M 141.211,179.417 153.333,159.997 M 260.027,206.307 261.470,210.681 M 90.760,207.127 95.853,211.138 M 372.973,150.382 398.598,199.538 M 398.598,199.538 420.006,198.247 M 206.253,199.569 210.292,175.363 M 49.918,201.354 54.390,175.487 M 49.918,201.354 76.132,211.098 M 479.641,180.769 520.095,186.322 M 502.796,104.697 520.095,186.322 M 141.211,179.417 142.987,189.101 M 142.987,189.101 206.253,199.569 M 520.095,186.322 529.220,190.519 M 464.780,212.999 479.641,180.769 M 141.000,201.097 142.987,189.101 M 95.853,211.138 116.403,216.297 M 116.403,216.297 141.000,201.097 M 428.402,194.891 453.204,218.194 M 453.204,218.194 464.780,212.999 M 450.882,221.095 453.204,218.194 M 279.873,226.868 286.119,196.303 M 464.780,212.999 477.101,227.590 M 394.526,218.764 398.598,199.538 M 394.526,218.764 394.634,219.369 M 420.006,198.247 431.440,228.971 M 431.440,228.971 450.882,221.095 M 261.470,210.681 277.714,229.037 M 277.714,229.037 279.873,226.868 M 334.125,209.411 352.295,154.742 M 334.125,209.411 394.526,218.764 M 383.774,232.460 394.634,219.369 M 332.932,211.217 334.125,209.411 M 206.253,199.569 212.607,216.317 M 212.607,216.317 262.435,183.483 M 522.873,217.056 529.220,190.519 M 297.073,198.366 328.263,213.344 M 328.263,213.344 332.932,211.217 M 279.873,226.868 326.283,215.929 M 326.283,215.929 328.263,213.344 M 35.816,222.787 49.918,201.354 M 223.619,229.183 260.027,206.307 M 107.748,240.652 116.403,216.297 M 332.932,211.217 354.622,239.735 M 354.622,239.735 383.774,232.460 M 212.607,216.317 212.773,224.672 M 212.773,224.672 223.619,229.183 M 76.132,211.098 77.486,241.904 M 77.486,241.904 95.853,211.138 M 450.882,221.095 455.147,250.088 M 394.634,219.369 418.241,240.254 M 418.241,240.254 431.440,228.971 M 76.979,244.494 107.748,240.652 M 76.855,244.471 77.486,241.904 M 76.855,244.471 76.979,244.494 M 477.101,227.590 501.303,241.908 M 223.619,229.183 244.731,243.688 M 244.731,243.688 261.470,210.681 M 455.147,250.088 461.739,254.254 M 461.739,254.254 477.101,227.590 M 501.303,241.908 513.617,238.359 M 513.617,238.359 522.873,217.056 M 35.816,222.787 73.543,245.639 M 73.543,245.639 76.855,244.471 M 141.000,201.097 162.264,239.983 M 143.289,254.565 162.264,239.983 M 513.617,238.359 524.304,253.647 M 125.196,259.133 143.289,254.565 M 7.437,234.155 35.816,222.787 M 244.731,243.688 252.486,251.629 M 107.748,240.652 119.959,259.194 M 119.959,259.194 125.196,259.133 M 252.486,251.629 271.110,254.051 M 271.110,254.051 277.714,229.037 M 521.540,270.195 524.304,253.647 M 143.289,254.565 146.242,278.418 M 418.241,240.254 419.773,259.445 M 419.773,259.445 455.147,250.088 M 162.264,239.983 185.578,248.995 M 185.578,248.995 212.773,224.672 M 461.739,254.254 473.457,269.630 M 456.878,278.326 473.457,269.630 M 473.457,269.630 478.345,270.562 M 478.345,270.562 501.303,241.908 M 63.337,273.680 73.543,245.639 M 63.337,273.680 81.131,282.753 M 0.000,191.694 46.004,158.742 M 0.000,232.581 7.437,234.155 M 76.979,244.494 105.618,278.502 M 105.618,278.502 119.959,259.194 M 81.131,282.753 105.367,279.334 M 105.367,279.334 105.618,278.502 M 478.345,270.562 483.767,279.544 M 483.767,279.544 521.540,270.195 M 354.622,239.735 357.602,273.444 M 125.196,259.133 137.190,291.101 M 137.190,291.101 146.242,278.418 M 415.403,272.928 419.773,259.445 M 415.403,272.928 456.878,278.326 M 7.437,234.155 35.357,280.542 M 521.540,270.195 524.665,291.480 M 35.357,280.542 43.928,283.882 M 43.928,283.882 63.337,273.680 M 43.928,283.882 44.194,284.731 M 453.503,301.348 456.878,278.326 M 357.602,273.444 385.118,280.656 M 383.774,232.460 385.118,280.656 M 271.110,254.051 295.683,275.410 M 185.578,248.995 193.204,284.008 M 295.683,275.410 300.477,278.201 M 300.477,278.201 326.283,215.929 M 44.194,284.731 50.553,302.710 M 50.553,302.710 57.583,306.960 M 193.204,284.008 221.669,292.585 M 221.669,292.585 252.486,251.629 M 146.242,278.418 187.099,290.467 M 187.099,290.467 193.204,284.008 M 483.767,279.544 490.723,299.896 M 490.723,299.896 524.665,291.480 M 323.129,287.235 357.602,273.444 M 524.304,253.647 561.000,262.325 M 522.873,217.056 561.000,245.418 M 300.477,278.201 302.688,281.899 M 302.688,281.899 323.129,287.235 M 221.669,292.585 226.553,298.343 M 226.553,298.343 295.683,275.410 M 453.503,301.348 489.445,303.700 M 489.445,303.700 490.723,299.896 M 57.583,306.960 81.131,312.079 M 81.131,312.079 81.131,282.753 M 81.131,312.079 82.215,313.072 M 105.367,279.334 116.693,305.395 M 385.118,280.656 400.553,289.774 M 400.553,289.774 415.403,272.928 M 132.582,307.041 137.190,291.101 M 82.215,313.072 88.591,315.920 M 88.591,315.920 116.693,305.395 M 400.553,289.774 401.302,294.186 M 116.693,305.395 125.728,309.878 M 125.728,309.878 132.582,307.041 M 174.746,309.436 187.099,290.467 M 132.582,307.041 174.382,309.735 M 174.382,309.735 174.746,309.436 M 323.129,287.235 340.427,321.797 M 340.427,321.797 401.302,294.186 M 57.583,306.960 62.275,336.262 M 62.275,336.262 82.215,313.072 M 88.591,315.920 89.301,337.914 M 226.553,298.343 237.649,321.461 M 340.427,321.797 341.626,329.275 M 401.302,294.186 407.553,312.030 M 431.547,321.605 453.503,301.348 M 125.718,334.514 125.728,309.878 M 123.300,336.491 125.718,334.514 M 341.626,329.275 368.972,338.968 M 368.972,338.968 407.553,312.030 M 66.249,344.467 89.301,337.914 M 407.553,312.030 415.013,319.445 M 415.013,319.445 431.547,321.605 M 60.255,343.220 62.275,336.262 M 60.255,343.220 66.249,344.467 M 174.746,309.436 214.146,342.072 M 214.146,342.072 237.649,321.461 M 89.301,337.914 99.706,348.324 M 99.706,348.324 123.300,336.491 M 431.547,321.605 460.845,339.192 M 449.394,358.059 460.845,339.192 M 529.220,190.519 561.000,180.266 M 502.796,104.697 561.000,105.297 M 120.490,365.900 123.300,336.491 M 42.734,350.128 60.255,343.220 M 411.382,354.561 415.013,319.445 M 66.249,344.467 82.303,366.198 M 237.649,321.461 273.773,337.288 M 273.773,337.288 302.688,281.899 M 460.845,339.192 489.354,341.913 M 489.354,341.913 489.445,303.700 M 273.773,337.288 274.436,339.331 M 265.898,350.692 274.436,339.331 M 25.500,347.796 50.553,302.710 M 25.500,347.796 42.734,350.128 M 120.490,365.900 154.371,357.446 M 125.718,334.514 154.371,357.446 M 449.394,358.059 451.784,377.990 M 42.734,350.128 62.303,374.610 M 62.303,374.610 82.303,366.198 M 411.382,354.561 422.674,370.143 M 422.674,370.143 449.394,358.059 M 82.303,366.198 96.802,368.416 M 96.802,368.416 99.706,348.324 M 154.371,357.446 165.581,362.711 M 165.581,362.711 174.382,309.735 M 434.034,384.327 451.784,377.990 M 422.674,370.143 425.251,381.189 M 425.251,381.189 434.034,384.327 M 3.061,353.654 44.194,284.731 M 3.061,353.654 25.500,347.796 M 489.354,341.913 505.593,358.223 M 505.593,358.223 508.192,357.530 M 96.802,368.416 103.979,380.926 M 103.979,380.926 120.490,365.900 M 508.192,357.530 561.000,340.604 M 524.665,291.480 561.000,313.602 M 165.581,362.711 169.401,369.923 M 250.595,388.019 265.898,350.692 M 368.972,338.968 371.635,378.387 M 371.635,378.387 411.382,354.561 M 103.979,380.926 104.470,383.745 M 201.071,373.986 214.146,342.072 M 201.071,373.986 265.898,350.692 M 274.436,339.331 313.570,369.932 M 313.570,369.932 341.626,329.275 M 104.470,383.745 106.868,387.497 M 106.868,387.497 169.401,369.923 M 313.570,369.932 314.663,372.785 M 61.038,394.892 62.303,374.610 M 61.038,394.892 104.470,383.745 M 394.118,394.903 412.350,397.034 M 412.350,397.034 425.251,381.189 M 197.641,378.896 201.071,373.986 M 197.641,378.896 250.595,388.019 M 368.115,385.059 371.635,378.387 M 368.115,385.059 394.118,394.903 M 106.868,387.497 109.360,400.202 M 188.784,384.458 197.641,378.896 M 188.784,384.458 197.746,393.255 M 169.401,369.923 183.562,385.275 M 183.562,385.275 188.784,384.458 M 451.784,377.990 494.209,392.220 M 494.209,392.220 505.593,358.223 M 494.205,392.282 494.209,392.220 M 493.575,393.358 494.205,392.282 M 197.746,393.255 219.484,422.840 M 318.971,420.059 341.151,395.085 M 314.663,372.785 341.151,395.085 M 341.151,395.085 348.234,397.253 M 348.234,397.253 368.115,385.059 M 298.378,429.289 318.971,420.059 M 348.234,397.253 354.974,415.145 M 434.034,384.327 457.014,420.604 M 457.014,420.604 493.575,393.358 M 250.595,388.019 265.044,418.232 M 265.044,418.232 314.663,372.785 M 493.575,393.358 502.313,438.147 M 13.358,407.985 46.344,417.341 M 46.344,417.341 61.038,394.892 M 197.746,393.255 264.515,421.091 M 264.515,421.091 265.044,418.232 M 264.479,422.581 264.515,421.091 M 264.479,422.581 267.425,424.835 M 267.425,424.835 298.378,429.289 M 354.974,415.145 369.232,432.005 M 164.883,420.562 183.562,385.275 M 369.232,432.005 396.981,438.125 M 394.118,394.903 396.981,438.125 M 0.000,354.524 3.061,353.654 M 0.000,399.480 13.358,407.985 M 62.678,430.006 109.360,400.202 M 46.344,417.341 56.049,427.972 M 56.049,427.972 62.678,430.006 M 396.981,438.125 401.946,440.211 M 164.883,420.562 192.568,446.745 M 192.568,446.745 219.484,422.840 M 219.484,422.840 242.636,439.759 M 242.636,439.759 264.479,422.581 M 447.769,434.990 457.014,420.604 M 318.971,420.059 319.191,454.125 M 319.191,454.125 330.046,455.195 M 330.046,455.195 354.974,415.145 M 240.646,444.007 242.636,439.759 M 447.769,434.990 460.768,448.684 M 460.768,448.684 502.313,438.147 M 298.378,429.289 311.222,456.976 M 311.222,456.976 319.191,454.125 M 0.000,308.328 35.357,280.542 M 412.350,397.034 427.072,439.261 M 427.072,439.261 447.769,434.990 M 109.360,400.202 140.738,434.167 M 140.738,434.167 164.883,420.562 M 401.946,440.211 421.874,443.355 M 421.874,443.355 427.072,439.261 M 421.653,445.296 421.874,443.355 M 42.690,462.748 56.049,427.972 M 192.568,446.745 200.524,457.607 M 200.524,457.607 240.646,444.007 M 200.413,458.430 200.524,457.607 M 200.413,458.430 201.102,462.358 M 330.046,455.195 341.548,467.726 M 136.373,443.253 140.738,434.167 M 267.425,424.835 288.663,467.095 M 288.663,467.095 300.413,467.628 M 300.413,467.628 311.222,456.976 M 201.102,462.358 213.881,478.008 M 13.358,407.985 13.488,470.938 M 13.488,470.938 42.690,462.748 M 213.881,478.008 247.079,474.807 M 240.646,444.007 247.079,474.807 M 62.678,430.006 99.477,461.980 M 99.477,461.980 136.373,443.253 M 520.227,465.315 520.342,465.246 M 502.313,438.147 520.342,465.246 M 460.768,448.684 475.023,474.429 M 475.023,474.429 520.227,465.315 M 341.548,467.726 358.988,476.301 M 358.988,476.301 369.232,432.005 M 403.757,483.917 421.653,445.296 M 421.653,445.296 441.439,488.530 M 300.413,467.628 312.890,487.474 M 312.890,487.474 341.548,467.726 M 433.436,492.845 441.439,488.530 M 403.757,483.917 406.508,487.159 M 406.508,487.159 433.436,492.845 M 136.373,443.253 155.017,480.251 M 155.017,480.251 200.413,458.430 M 42.690,462.748 56.283,486.803 M 431.093,500.034 433.436,492.845 M 155.017,480.251 155.511,482.993 M 494.205,392.282 561.000,431.241 M 508.192,357.530 561.000,417.264 M 56.283,486.803 92.743,483.857 M 92.743,483.857 99.477,461.980 M 143.344,499.577 155.511,482.993 M 312.890,487.474 315.069,498.439 M 467.056,493.511 475.023,474.429 M 155.511,482.993 183.142,499.903 M 183.142,499.903 201.102,462.358 M 441.439,488.530 466.214,494.200 M 466.214,494.200 467.056,493.511 M 213.881,478.008 214.445,503.409 M 214.445,503.409 257.787,491.708 M 247.079,474.807 257.787,491.708 M 358.988,476.301 365.824,489.852 M 365.824,489.852 401.946,440.211 M 365.824,489.852 365.828,489.866 M 365.828,489.866 403.757,483.917 M 406.508,487.159 411.507,511.436 M 411.507,511.436 431.093,500.034 M 143.344,499.577 146.414,511.910 M 257.787,491.708 260.455,493.339 M 260.455,493.339 288.663,467.095 M 467.056,493.511 502.834,511.770 M 502.834,511.770 520.227,465.315 M 106.925,504.124 143.344,499.577 M 462.021,509.648 466.214,494.200 M 92.743,483.857 99.156,502.505 M 99.156,502.505 106.925,504.124 M 92.393,510.211 96.561,507.490 M 96.561,507.490 97.290,506.927 M 97.290,506.927 99.156,502.505 M 97.290,506.927 101.167,521.988 M 431.093,500.034 436.067,524.312 M 106.925,504.124 133.111,530.771 M 133.111,530.771 146.414,511.910 M 203.206,515.814 214.445,503.409 M 287.898,518.130 315.069,498.439 M 183.142,499.903 192.804,516.757 M 192.804,516.757 203.206,515.814 M 436.067,524.312 450.156,526.051 M 450.156,526.051 462.021,509.648 M 32.272,515.103 56.283,486.803 M 12.937,513.438 32.272,515.103 M 409.704,527.763 411.507,511.436 M 409.704,527.763 412.470,529.551 M 412.470,529.551 436.067,524.312 M 520.342,465.246 561.000,464.159 M 357.677,514.517 365.828,489.866 M 315.069,498.439 356.750,514.905 M 356.750,514.905 357.677,514.517 M 96.167,545.333 101.167,521.988 M 354.829,517.397 356.750,514.905 M 32.272,515.103 48.602,529.392 M 48.602,529.392 92.393,510.211 M 183.718,528.667 192.804,516.757 M 260.455,493.339 270.728,520.605 M 270.728,520.605 287.898,518.130 M 357.677,514.517 377.065,528.456 M 377.065,528.456 409.704,527.763 M 287.898,518.130 323.134,540.889 M 323.134,540.889 354.829,517.397 M 146.414,511.910 173.219,534.753 M 173.219,534.753 183.718,528.667 M 82.528,549.405 96.561,507.490 M 82.528,549.405 96.167,545.333 M 0.000,486.698 13.488,470.938 M 0.000,510.412 12.937,513.438 M 267.786,527.467 270.728,520.605 M 319.797,553.320 323.134,540.889 M 267.786,527.467 314.799,558.044 M 314.799,558.044 319.797,553.320 M 519.875,540.481 561.000,502.273 M 412.470,529.551 418.989,558.558 M 69.395,556.085 92.393,510.211 M 69.395,556.085 82.528,549.405 M 502.834,511.770 516.787,541.628 M 516.787,541.628 519.875,540.481 M 349.622,567.357 354.829,517.397 M 96.167,545.333 117.315,561.438 M 117.315,561.438 130.427,556.505 M 101.167,521.988 130.427,556.505 M 319.797,553.320 346.203,569.554 M 346.203,569.554 349.622,567.357 M 130.427,556.505 135.757,556.218 M 133.111,530.771 135.757,556.218 M 418.989,558.558 430.141,566.374 M 462.021,509.648 508.817,550.942 M 508.817,550.942 516.787,541.628 M 252.701,551.779 267.786,527.467 M 203.206,515.814 249.900,552.424 M 249.900,552.424 252.701,551.779 M 430.141,566.374 461.597,561.948 M 450.156,526.051 461.597,561.948 M 349.622,567.357 382.247,570.959 M 377.065,528.456 382.247,570.959 M 48.602,529.392 60.695,562.659 M 60.695,562.659 69.395,556.085 M 382.247,570.959 383.576,572.704 M 383.576,572.704 418.989,558.558 M 60.508,564.552 60.695,562.659 M 135.757,556.218 152.518,563.328 M 152.518,563.328 173.219,534.753 M 183.718,528.667 213.325,574.342 M 60.508,564.552 98.102,579.966 M 98.102,579.966 117.315,561.438 M 213.325,574.342 224.124,575.216 M 224.124,575.216 249.900,552.424 M 98.102,579.966 99.679,586.589 M 461.597,561.948 477.171,570.865 M 477.171,570.865 499.834,567.274 M 499.834,567.274 508.817,550.942 M 12.937,513.438 31.826,580.963 M 252.701,551.779 281.414,581.511 M 281.414,581.511 298.920,585.324 M 298.920,585.324 314.799,558.044 M 419.918,598.857 430.141,566.374 M 152.518,563.328 160.658,583.736 M 99.679,586.589 143.322,598.584 M 143.322,598.584 160.658,583.736 M 160.658,583.736 169.484,588.546 M 169.484,588.546 213.325,574.342 M 0.000,563.651 31.826,580.963 M 31.826,580.963 39.751,587.317 M 39.751,587.317 60.508,564.552 M 383.576,572.704 385.273,597.605 M 136.836,609.420 143.322,598.584 M 385.273,597.605 400.999,604.096 M 400.999,604.096 419.918,598.857 M 38.841,594.582 39.751,587.317 M 335.089,603.203 346.203,569.554 M 169.484,588.546 177.743,609.302 M 224.124,575.216 229.554,611.483 M 335.089,603.203 363.270,611.659 M 363.270,611.659 385.273,597.605 M 298.920,585.324 318.352,606.855 M 318.352,606.855 335.089,603.203 M 363.270,611.659 363.846,616.326 M 229.554,611.483 239.903,618.626 M 177.743,609.302 204.098,624.509 M 204.098,624.509 229.554,611.483 M 256.549,621.225 281.414,581.511 M 419.918,598.857 453.930,617.338 M 453.930,617.338 477.171,570.865 M 239.903,618.626 252.217,623.216 M 252.217,623.216 256.549,621.225 M 499.834,567.274 529.052,610.412 M 136.836,609.420 150.225,637.777 M 150.225,637.777 163.687,640.923 M 163.687,640.923 177.743,609.302 M 256.549,621.225 308.048,637.572 M 308.048,637.572 318.352,606.855 M 93.261,634.345 99.679,586.589 M 93.261,634.345 136.836,609.420 M 453.930,617.338 460.817,655.286 M 467.568,655.286 529.052,610.412 M 38.841,594.582 61.197,655.286 M 80.017,655.286 93.261,634.345 M 201.622,655.286 204.098,624.509 M 219.997,655.286 239.903,618.626 M 113.969,655.286 150.225,637.777 M 308.048,637.572 310.033,655.286 M 340.160,655.286 363.846,616.326 M 163.687,640.923 170.826,655.286 M 400.999,604.096 411.100,655.286 M 363.846,616.326 382.320,655.286 M 529.052,610.412 561.000,621.915 M 519.875,540.481 561.000,561.541 M 0.000,130.289 33.248,129.360 M 252.217,623.216 254.103,655.286 M 0.000,603.744 38.841,594.582 M 494.443,88.301 541.709,0.000 "
         style="stroke:#000000"
         id="path5505" />
    </pattern>
    <pattern
       patternUnits="userSpaceOnUse"
       patternTransform="translate(27.999998,23.362181)"
       height="405.0"
       width="405.0"
       id="Voronoi5677">
      <path
         id="path5554"
         style="stroke:#000000"
         d="M 287.546,0.000 309.029,12.353 M 309.029,12.353 335.137,18.627 M 335.137,18.627 348.129,4.460 M 168.222,0.000 174.058,19.306 M 174.058,19.306 218.639,16.048 M 218.639,16.048 223.420,0.000 M 110.394,24.901 135.077,0.000 M 138.096,0.000 143.723,30.669 M 348.129,4.460 368.752,35.145 M 143.723,30.669 165.674,37.665 M 165.674,37.665 174.058,19.306 M 325.856,42.234 335.137,18.627 M 110.394,24.901 110.850,38.259 M 110.850,38.259 143.723,30.669 M 165.674,37.665 166.864,42.538 M 325.856,42.234 368.952,48.167 M 368.752,35.145 368.952,48.167 M 316.252,51.552 325.856,42.234 M 309.029,12.353 316.189,51.575 M 316.189,51.575 316.252,51.552 M 37.339,2.706 100.164,56.361 M 100.164,56.361 100.643,56.404 M 100.643,56.404 110.850,38.259 M 368.952,48.167 377.840,66.670 M 100.643,56.404 106.575,64.255 M 106.575,64.255 166.864,42.538 M 276.229,59.464 279.925,0.000 M 316.252,51.552 364.717,80.541 M 364.717,80.541 377.840,66.670 M 218.639,16.048 232.040,64.324 M 232.040,64.324 276.229,59.464 M 276.229,59.464 286.605,65.653 M 286.605,65.653 316.189,51.575 M 37.339,2.706 46.896,83.010 M 46.896,83.010 100.164,56.361 M 46.587,83.490 46.896,83.010 M 106.575,64.255 123.238,93.293 M 106.350,108.458 123.238,93.293 M 207.619,86.788 232.040,64.324 M 286.605,65.653 300.360,101.556 M 166.864,42.538 187.100,89.929 M 187.100,89.929 194.050,90.848 M 194.050,90.848 207.619,86.788 M 123.238,93.293 156.903,102.406 M 156.903,102.406 187.100,89.929 M 44.548,111.339 46.587,83.490 M 207.619,86.788 248.962,128.825 M 248.962,128.825 276.542,127.189 M 276.542,127.189 300.360,101.556 M 153.587,120.660 156.903,102.406 M 44.548,111.339 52.929,123.000 M 52.929,123.000 106.350,108.458 M 194.050,90.848 202.998,148.201 M 348.952,123.190 364.717,80.541 M 347.303,124.401 348.952,123.190 M 300.360,101.556 346.301,124.544 M 346.301,124.544 347.303,124.401 M 239.618,154.887 248.962,128.825 M 153.587,120.660 170.269,160.470 M 276.542,127.189 282.909,157.364 M 170.269,160.470 189.119,162.084 M 189.119,162.084 202.998,148.201 M 202.998,148.201 226.967,161.730 M 226.967,161.730 239.618,154.887 M 226.926,162.123 226.967,161.730 M 127.698,159.872 153.587,120.660 M 282.909,157.364 322.917,160.146 M 322.917,160.146 346.301,124.544 M 106.350,108.458 108.604,163.336 M 108.604,163.336 127.698,159.872 M 155.388,177.115 170.269,160.470 M 127.698,159.872 151.751,178.748 M 151.751,178.748 155.388,177.115 M 239.618,154.887 271.735,175.582 M 271.735,175.582 282.909,157.364 M 347.303,124.401 376.382,178.100 M 226.926,162.123 237.578,195.479 M 236.636,196.590 237.578,195.479 M 155.388,177.115 194.203,193.760 M 189.119,162.084 194.203,193.760 M 198.353,195.037 226.926,162.123 M 237.578,195.479 272.430,189.609 M 271.735,175.582 272.430,189.609 M 194.203,193.760 194.702,194.642 M 194.702,194.642 198.353,195.037 M 322.464,190.624 322.917,160.146 M 198.353,195.037 212.625,202.990 M 212.625,202.990 236.636,196.590 M 372.331,194.349 376.382,178.100 M 322.464,190.624 362.252,198.595 M 272.430,189.609 278.300,196.938 M 362.252,198.595 365.627,197.957 M 365.627,197.957 372.331,194.349 M 278.300,196.938 291.139,203.945 M 291.139,203.945 309.662,203.395 M 309.662,203.395 322.464,190.624 M 376.382,178.100 405.000,166.732 M 348.952,123.190 405.000,125.312 M 145.894,212.257 151.751,178.748 M 72.317,189.858 108.604,163.336 M 72.317,189.858 127.175,217.512 M 127.175,217.512 145.894,212.257 M 145.894,212.257 170.156,223.433 M 170.156,223.433 194.702,194.642 M 52.929,123.000 56.419,191.320 M 56.419,191.320 72.317,189.858 M 236.636,196.590 243.898,234.698 M 243.898,234.698 246.349,235.346 M 246.349,235.346 278.300,196.938 M 170.156,223.433 174.244,232.657 M 174.244,232.657 217.217,237.821 M 212.625,202.990 217.217,237.821 M 246.349,235.346 254.887,243.302 M 217.217,237.821 220.174,240.356 M 220.174,240.356 243.898,234.698 M 365.627,197.957 366.798,246.749 M 240.267,266.833 254.887,243.302 M 62.009,227.480 123.830,251.571 M 123.830,251.571 127.175,217.512 M 366.798,246.749 405.000,235.258 M 372.331,194.349 405.000,218.955 M 217.729,255.423 220.174,240.356 M 123.830,251.571 124.124,255.040 M 170.014,256.250 174.244,232.657 M 309.662,203.395 330.871,248.753 M 330.871,248.753 362.252,198.595 M 35.242,210.578 56.419,191.320 M 35.242,210.578 62.009,227.480 M 217.729,255.423 225.265,268.397 M 225.265,268.397 240.267,266.833 M 124.124,255.040 142.696,264.045 M 142.696,264.045 170.014,256.250 M 33.983,211.383 35.242,210.578 M 254.887,243.302 277.894,255.964 M 277.894,255.964 291.139,203.945 M 62.009,227.480 111.282,266.130 M 111.282,266.130 124.124,255.040 M 142.695,273.513 142.696,264.045 M 127.074,286.149 142.695,273.513 M 127.074,286.149 130.857,290.962 M 170.014,256.250 183.474,275.638 M 183.474,275.638 217.729,255.423 M 103.889,280.366 111.282,266.130 M 103.889,280.366 127.074,286.149 M 183.474,275.638 183.775,279.215 M 343.653,266.428 366.798,246.749 M 330.871,248.753 332.837,264.366 M 332.837,264.366 343.653,266.428 M 183.775,279.215 225.620,289.646 M 225.265,268.397 225.620,289.646 M 321.762,270.575 332.837,264.366 M 130.857,290.962 148.608,295.949 M 142.695,273.513 148.608,295.949 M 321.762,270.575 329.658,299.014 M 277.894,255.964 292.167,279.712 M 292.167,279.712 321.762,270.575 M 90.866,294.531 103.889,280.366 M 33.983,211.383 76.985,293.625 M 76.985,293.625 90.866,294.531 M 176.737,301.661 183.775,279.215 M 148.608,295.949 155.607,306.970 M 155.607,306.970 176.737,301.661 M 326.086,326.814 329.658,299.014 M 282.084,295.522 292.167,279.712 M 282.084,295.522 326.086,326.814 M 240.267,266.833 280.189,297.420 M 280.189,297.420 282.084,295.522 M 343.653,266.428 383.018,301.271 M 90.866,294.531 110.456,315.969 M 110.456,315.969 130.857,290.962 M 176.737,301.661 201.119,326.651 M 360.181,333.346 383.018,301.271 M 201.119,326.651 243.534,320.399 M 225.620,289.646 243.534,320.399 M 329.658,299.014 351.172,338.577 M 351.172,338.577 360.181,333.346 M 132.387,333.808 155.607,306.970 M 110.456,315.969 124.170,335.112 M 124.170,335.112 132.387,333.808 M 120.885,339.640 124.170,335.112 M 243.534,320.399 259.108,325.398 M 259.108,325.398 280.189,297.420 M 259.108,325.398 259.417,326.566 M 326.086,326.814 342.286,346.327 M 342.286,346.327 351.172,338.577 M 254.127,357.768 259.417,326.566 M 132.387,333.808 178.954,366.002 M 178.954,366.002 201.119,326.651 M 259.417,326.566 332.369,364.716 M 332.369,364.716 342.286,346.327 M 46.649,357.029 120.885,339.640 M 46.649,357.029 116.513,384.041 M 116.513,384.041 120.885,339.640 M 178.954,366.002 180.884,375.806 M 116.513,384.041 119.041,394.541 M 119.041,394.541 180.884,375.806 M 12.940,357.992 76.985,293.625 M 12.940,357.992 46.649,357.029 M 254.127,357.768 335.344,398.295 M 332.369,364.716 335.344,398.295 M 180.884,375.806 202.753,405.000 M 236.864,405.000 254.127,357.768 M 383.018,301.271 405.000,300.133 M 377.840,66.670 405.000,65.546 M 96.998,0.000 110.394,24.901 M 35.804,0.000 37.339,2.706 M 0.000,61.928 46.587,83.490 M 0.000,113.576 44.548,111.339 M 0.000,218.016 33.983,211.383 M 0.000,363.990 12.940,357.992 M 115.934,405.000 119.041,394.541 M 335.344,398.295 336.893,405.000 M 360.181,333.346 405.000,373.866 M 368.752,35.145 405.000,10.559 M 348.129,4.460 348.927,0.000 " />
    </pattern>
  </defs>
  <metadata
     id="metadata7">
    <rdf:RDF>
      <cc:Work
         rdf:about="">
        <dc:format>image/svg+xml</dc:format>
        <dc:type
           rdf:resource="http://purl.org/dc/dcmitype/StillImage" />
        <dc:title />
      </cc:Work>
    </rdf:RDF>
  </metadata>
  <g
     id="layer1"
     inkscape:groupmode="layer"
     inkscape:label="Layer 1">
    <path
       style="color:#000000;font-style:normal;font-variant:normal;font-weight:normal;font-stretch:normal;font-size:medium;line-height:normal;font-family:sans-serif;text-indent:0;text-align:start;text-decoration:none;text-decoration-line:none;text-decoration-style:solid;text-decoration-color:#000000;letter-spacing:normal;word-spacing:normal;text-transform:none;direction:ltr;block-progression:tb;writing-mode:lr-tb;baseline-shift:baseline;text-anchor:start;white-space:normal;clip-rule:nonzero;display:inline;overflow:visible;visibility:visible;opacity:1;isolation:auto;mix-blend-mode:normal;color-interpolation:sRGB;color-interpolation-filters:linearRGB;solid-color:#000000;solid-opacity:1;fill:none;fill-opacity:1;fill-rule:nonzero;stroke:#000000;stroke-width:1;stroke-linecap:butt;stroke-linejoin:miter;stroke-miterlimit:4;stroke-dasharray:none;stroke-dashoffset:0;stroke-opacity:1;color-rendering:auto;image-rendering:auto;shape-rendering:auto;text-rendering:auto;enable-background:accumulate"
       d="m 213.1355,18.103247 c 3.14499,0 6.27077,0.08102 9.37891,0.228516 l -0.10743,0.357422 -33.43164,2.443359 -0.44922,-1.486328 c 8.0587,-1.017117 16.27233,-1.542968 24.60938,-1.542969 z m 24.63672,1.546876 c 14.8767,1.879781 29.22169,5.444059 42.84766,10.488281 l -2.00782,32.304687 -31.57422,3.472656 -11.11914,-40.050781 z m -64.16602,2.474609 1.93164,6.386719 -4.44531,9.732422 -11.32812,-3.609376 -1.58594,-8.644531 c 5.06079,-1.488451 10.20362,-2.786743 15.42773,-3.865234 z m -29.78906,8.710937 0.71289,3.88086 -17.01758,3.929687 -0.0234,-0.699219 c 5.3097,-2.611213 10.75779,-4.984498 16.32812,-7.111328 z m 78.7168,2.884766 10.52929,37.933594 -19.77148,18.189456 -10.375,3.10351 -1.11914,-0.14843 -18.31641,-42.892583 -0.42773,-1.748047 5.45898,-11.951172 z m 72.73437,2.544922 c 6.96858,3.254223 13.71023,6.907877 20.19727,10.935547 l 1.79101,9.814453 -20.77734,9.886719 -3.00391,-1.791016 z m -182.51562,9.730469 0.006,0.162109 -4.8418,8.611328 -3.79297,-3.238281 c 2.82397,-1.918074 5.70093,-3.764787 8.62891,-5.535156 z m 40.13086,2.189453 6.73828,2.148437 -40.13086,14.455078 5.75,-10.220703 z m -61.136717,12.5 4.41992,3.77539 -19.716797,9.863282 c 4.852616,-4.809581 9.960047,-9.360143 15.296877,-13.638672 z m 80.476557,1.052734 14.47656,33.902342 -20.82617,8.603525 -28.19922,-7.632815 -10.66601,-18.585942 z m 153.0957,8.052734 39.68164,23.734378 -11.53906,31.218755 -37.66406,-18.84766 -10.23047,-26.707035 z m -217.57812,5.650391 2.04297,2.703125 13.40625,23.365237 -11.04883,9.92383 -46.681638,12.70703 -3.75586,-5.22461 1.552735,-21.218755 z m 176.2832,1.498047 5.98438,3.568359 11.15234,29.111336 -18.58984,20.00586 -21.17383,1.25781 -33.51563,-34.080085 16.90039,-15.548827 z m -69.10547,28.074225 34.8711,35.45703 -6.78516,18.92773 -6.48242,3.50782 -17.19727,-9.70508 -7.3789,-47.29883 z m 161.21094,1.66992 c 4.12814,6.366 7.8906,12.98956 11.26367,19.8418 l -18.34179,-0.69532 z m -179.09961,0.91797 7.44727,47.73437 -8.7168,8.72266 -10.85156,-0.92969 -14.06836,-33.57031 2.1875,-12.03906 z m -149.808589,3.71289 -0.191407,2.61133 -1.40039,0.0703 c 0.526644,-0.89678 1.051234,-1.79417 1.591797,-2.68163 z m 87.470699,0.0293 23.07617,6.24609 -1.81054,9.9668 -23.27539,35.2539 -7.46094,1.35352 -1.75586,-42.74023 z m 176.81445,9.17773 33.37305,16.70117 -16.34375,24.88086 -29.98047,-2.08398 -4.39453,-20.82813 z m -202.78711,7.38867 1.70313,41.47852 -31.378904,22.93555 -6.054687,0.55664 -2.783204,-54.48633 z m -58.400383,0.86914 4.710937,6.55469 3.195313,62.56836 -17.78711,16.17383 -21.33789,4.16406 c -0.06044,-1.99431 -0.09961,-3.99284 -0.09961,-6.00195 0,-29.63454 6.633621,-57.70118 18.480469,-82.81445 z m 308.107423,4.1543 0.004,0 -0.002,0.004 z m 10.50781,7.9043 25.17383,0.95312 c 3.88239,9.98028 6.96852,20.35913 9.16992,31.06446 l -13.9961,5.56054 z m -88.91992,3.96484 4.41601,20.93164 -5.60156,9.13477 -20.66406,-13.31446 5.66211,-15.79101 z m -118.43555,1.46289 9.41992,22.48047 -9.39453,10.50977 -14.36328,-11.27344 z m 194.17187,1.72852 22.12696,40.86328 -2.54297,10.20312 -2.76367,1.48633 -0.80078,0.15235 -32.23829,-6.45704 0.32813,-22.05859 z m -142,19.2832 11.21094,6.32813 -15.59961,17.97265 -2.7539,-17.15429 z m 35.01172,6.0625 25.15039,16.20508 0.17383,3.52148 -21.86523,3.68164 -6.88282,-21.55664 z m 47.64063,1.56641 28.38672,1.97461 -0.30274,20.33007 -8.54101,8.51954 -13.52149,0.40234 -9.73242,-5.3125 -3.41406,-4.26172 -0.45899,-9.28711 z m -161.20703,2.6914 17.87109,14.02344 -4.27148,24.4375 -11.36719,3.19141 -41.312497,-20.82617 24.999997,-18.26954 z m 47.64257,0.41016 9.2793,0.79297 1.99805,12.4414 -16.70508,-7.16211 z m 50.48047,8.85547 4.44922,13.93359 -14.66601,3.91016 -3.55469,-1.98047 z m 172.45118,1.14258 c 0.98623,7.93825 1.5,16.02486 1.5,24.23242 0,0.54473 -0.0151,1.08523 -0.0195,1.6289 l -16.96484,-12.77734 1.91992,-7.69727 13.56446,-5.38671 z m -238.26758,8.14648 24.78125,10.62695 -14.67188,17.20899 -13.85937,-6.38281 z m -87.164062,11.11719 48.347652,24.37109 -1.87695,19.09375 -51.927733,-20.23633 -17.828125,-11.25586 12.029297,-10.93945 z m 196.783202,0.49609 -18.79492,22.59375 -3.58789,-18.82422 z m 57.27929,0.74414 25.21485,5.05274 -18.31445,29.27148 -13.13868,-28.10156 z m -127.55468,4.31055 8.3125,4.63281 2.83594,21.51367 -29.14454,-3.50195 -0.44726,-1.01367 z m 175.91601,1.38086 23.52149,17.7168 c -0.27007,2.6888 -0.60595,5.35854 -0.98438,8.01367 l -21.76367,6.54687 z m -142.50586,1.45703 4.41016,23.15234 -11.20898,2.67188 -3.0586,-23.19727 z m 49.3418,0.5625 2.3125,1.26172 -9.41601,36.98242 -13.70118,-7.54101 -2.66797,-2.48633 z m 24.83399,4.5625 18.62304,39.82422 1.1875,9.42969 -5.98242,3.35351 -23.21484,7.16797 -9.63477,-16.03125 11.07813,-43.50781 z m 53.66406,7.50391 0.5957,24.80859 -17.68555,15.03906 -1.93164,-0.36914 -0.95117,-7.55469 z M 39.405034,229.56028 77.268315,301.9763 54.752691,324.60325 C 36.06404,298.29307 23.782545,267.11092 20.141362,233.32005 Z m 115.335936,0.40821 19.18164,8.83789 2.00977,4.5332 -2.99805,16.72656 -20.06445,5.72657 -11.89844,-5.76954 2.64453,-26.93164 z m -92.970701,9.99023 5.388672,3.4043 44.078119,34.57422 -4.06836,7.83203 -9.917967,10.78906 -6.0957,-0.39844 z m 128.083981,10.73242 31.49023,3.78516 -0.97851,6.01953 -25.22656,14.88672 -7.71875,-11.11719 z m 62.74805,1.64649 2.13672,1.99023 -9.42774,15.17188 -6.52148,0.67968 -3.75,-6.45898 1.21484,-7.48437 z m 149.59961,4.18945 c -3.28967,14.1253 -8.11977,27.6547 -14.30274,40.4043 l -23.32422,-20.64453 15.36133,-13.0625 z m -286.17579,6.10352 5.92188,2.30859 -1.41797,1.22461 z m 150.95508,0.41601 15.00196,8.25781 10.83984,18.03516 -4.625,7.25195 -28.49609,-21.83203 z m -132.21289,10.63867 9.9043,4.80274 0,1.1914 -9.93359,8.03321 -10.3379,-2.57813 2.35157,-4.52539 z m 41.62305,0.99414 9.25391,13.33204 0.01,0.11328 -5.3418,17.03125 -11.80273,2.96484 -3.46875,-5.46289 -5.36914,-20.37109 0,-2.83789 16.71875,-4.76954 z m 48.12305,0.78516 2.76171,4.75391 0.15821,9.5332 -19.07227,-4.75391 z m 119.08007,6.52539 6.10743,1.16602 30.91601,27.36328 c -5.32129,9.05641 -11.3499,17.64609 -18.02148,25.68359 l -16.46289,-30.27148 -6.09375,-21.94727 z m -96.04296,2.35742 31.64648,24.2461 -13.39648,17.77929 -7.75782,-2.49218 -15.48047,-26.57422 -0.20703,-12.41797 z m 78.52539,5.41602 5.42578,19.54101 -1.78516,13.89454 -27.99805,-19.91016 4.76758,-7.47852 z m -127.78321,8.18164 31.91602,7.95703 10.74023,18.43945 -27.66015,4.07618 -18.57813,-19.04297 z m -82.42187,0.52148 13.80273,3.44141 -10.0625,12.33594 -9.0957,-9.95313 z m 27.16601,10.79102 10.25586,2.87891 2.46875,3.89062 -17.77734,20.54688 -0.9375,0.15039 -7.67578,-10.71485 z m -53.664057,1.81836 7.46875,0.48633 17.251947,18.88086 9.23243,12.88671 -43.416016,10.16797 C 74.276108,348.18204 68.961132,342.5339 63.994878,336.58177 Z m 203.484377,4.3164 37.5625,26.7129 12.26172,14.77148 c -2.26457,2.02932 -4.5749,4.00721 -6.9336,5.92969 L 279.3523,333.31614 Z m -109,4.3379 17.44531,17.88086 -15.37109,27.29101 -32.92579,-22.76562 16.20313,-18.72461 z m 159.76172,12.97656 2.86328,5.26172 -3.06446,-3.69141 z m -91.23829,5.11133 8.20508,2.63281 -4.26172,25.12695 -14.11914,38.63477 c -8.78436,1.31621 -17.76436,2.03461 -26.89453,2.13476 l -17.92187,-23.92382 -1.06446,-5.40821 19.00196,-33.73437 z m 22.18164,9.91992 47.84766,25.02344 c -4.54233,3.09624 -9.22492,6.00153 -14.0332,8.71093 l -36.44922,-18.1875 z m -134.49218,3.69336 41.58984,28.75195 0.0312,0.15625 -40.52344,12.27539 c -2.43283,-0.97021 -4.84156,-1.98816 -7.22461,-3.05273 l 3.6836,-37.41993 0.26562,-0.36523 2.17774,-0.3457 z m -18.19922,7.64453 -2.29688,23.33398 c -8.97388,-4.93972 -17.51389,-10.56552 -25.548827,-16.8125 z m 145.89453,18.89648 23.84961,11.90039 c -10.29307,4.54868 -21.05639,8.2269 -32.19922,10.94727 z m -80.25781,16.2793 8.51172,11.36523 c -10.15757,-0.88541 -20.0898,-2.54936 -29.73633,-4.93554 z"
       id="path5527"
       inkscape:connector-curvature="0"
       sodipodi:nodetypes="sccccsccccccccccccccccccccccccccccccccccccccccccccccccccccccccccccccccccccccccccccccccccccccccccccccccccccccccccccccccccccccccccsccccccccccccccccccccccccccccccccccccccccccccccccccccccccccccccccccccscccccccccccccccccccccccccccccccccccccccccccccccccccccccccccccccccccccccccccccccccccccccccccccccccccccccccccccccccccccccccccccccccccccccccccccccccccccccccccccccccccccccccccccccccccccccccccccccccccccccccccccccccccccccccccccccccccc" />
    <rect
       style="fill:none;fill-opacity:1;stroke:#000000;stroke-width:1.78296983;stroke-miterlimit:4;stroke-dasharray:none;stroke-opacity:1"
       id="rect4773"
       width="420.21704"
       height="420.21704"
       x="3.0269847"
       y="2.1181717" />
  </g>
</svg>
